G04*
G04 #@! TF.GenerationSoftware,Altium Limited,Altium Designer,19.1.8 (144)*
G04*
G04 Layer_Physical_Order=3*
G04 Layer_Color=16440176*
%FSLAX25Y25*%
%MOIN*%
G70*
G01*
G75*
%ADD15C,0.00600*%
%ADD111C,0.04016*%
%ADD119C,0.02500*%
G36*
X234000Y42737D02*
X233500Y42585D01*
X233334Y42834D01*
X232722Y43243D01*
X232000Y43386D01*
X231278Y43243D01*
X230666Y42834D01*
X230257Y42222D01*
X230114Y41500D01*
X230257Y40778D01*
X230666Y40166D01*
X231278Y39757D01*
X232000Y39614D01*
X232722Y39757D01*
X233334Y40166D01*
X233500Y40415D01*
X234000Y40263D01*
Y2000D01*
X2000D01*
Y3263D01*
X2500Y3415D01*
X2666Y3166D01*
X3278Y2757D01*
X4000Y2614D01*
X4722Y2757D01*
X5334Y3166D01*
X5743Y3778D01*
X5886Y4500D01*
X5743Y5222D01*
X5334Y5834D01*
X4722Y6243D01*
X4000Y6386D01*
X3278Y6243D01*
X2666Y5834D01*
X2500Y5585D01*
X2000Y5737D01*
Y43763D01*
X2500Y43915D01*
X2666Y43666D01*
X3278Y43257D01*
X4000Y43114D01*
X4722Y43257D01*
X5334Y43666D01*
X5743Y44278D01*
X5886Y45000D01*
X5743Y45722D01*
X5334Y46334D01*
X4722Y46743D01*
X4000Y46886D01*
X3278Y46743D01*
X2666Y46334D01*
X2500Y46085D01*
X2000Y46237D01*
Y76263D01*
X2500Y76415D01*
X2666Y76166D01*
X3278Y75757D01*
X4000Y75614D01*
X4722Y75757D01*
X5334Y76166D01*
X5743Y76778D01*
X5886Y77500D01*
X5743Y78222D01*
X5334Y78834D01*
X4722Y79243D01*
X4000Y79386D01*
X3278Y79243D01*
X2666Y78834D01*
X2500Y78585D01*
X2000Y78737D01*
Y108763D01*
X2500Y108915D01*
X2666Y108666D01*
X3278Y108257D01*
X4000Y108114D01*
X4722Y108257D01*
X5334Y108666D01*
X5743Y109278D01*
X5886Y110000D01*
X5743Y110722D01*
X5334Y111334D01*
X4722Y111743D01*
X4000Y111886D01*
X3278Y111743D01*
X2666Y111334D01*
X2500Y111085D01*
X2000Y111237D01*
Y142263D01*
X2500Y142415D01*
X2666Y142166D01*
X3278Y141757D01*
X4000Y141614D01*
X4722Y141757D01*
X5334Y142166D01*
X5743Y142778D01*
X5886Y143500D01*
X5743Y144222D01*
X5334Y144834D01*
X4722Y145243D01*
X4000Y145386D01*
X3278Y145243D01*
X2666Y144834D01*
X2500Y144585D01*
X2000Y144737D01*
Y170763D01*
X2500Y170915D01*
X2666Y170666D01*
X3278Y170257D01*
X4000Y170114D01*
X4722Y170257D01*
X5334Y170666D01*
X5743Y171278D01*
X5886Y172000D01*
X5743Y172722D01*
X5334Y173334D01*
X4722Y173743D01*
X4000Y173886D01*
X3278Y173743D01*
X2666Y173334D01*
X2500Y173085D01*
X2000Y173237D01*
Y201263D01*
X2500Y201415D01*
X2666Y201166D01*
X3278Y200757D01*
X4000Y200614D01*
X4722Y200757D01*
X5334Y201166D01*
X5743Y201778D01*
X5886Y202500D01*
X5743Y203222D01*
X5334Y203834D01*
X4722Y204243D01*
X4000Y204386D01*
X3278Y204243D01*
X2666Y203834D01*
X2500Y203585D01*
X2000Y203737D01*
Y233263D01*
X2500Y233415D01*
X2666Y233166D01*
X3278Y232757D01*
X4000Y232614D01*
X4722Y232757D01*
X5334Y233166D01*
X5743Y233778D01*
X5886Y234500D01*
X5743Y235222D01*
X5334Y235834D01*
X4722Y236243D01*
X4000Y236386D01*
X3278Y236243D01*
X2666Y235834D01*
X2500Y235585D01*
X2000Y235737D01*
Y271763D01*
X2500Y271915D01*
X2666Y271666D01*
X3278Y271257D01*
X4000Y271114D01*
X4722Y271257D01*
X5334Y271666D01*
X5743Y272278D01*
X5886Y273000D01*
X5743Y273722D01*
X5334Y274334D01*
X5085Y274500D01*
X5237Y275000D01*
X35263D01*
X35415Y274500D01*
X35166Y274334D01*
X34757Y273722D01*
X34614Y273000D01*
X34757Y272278D01*
X35166Y271666D01*
X35778Y271257D01*
X36500Y271114D01*
X37222Y271257D01*
X37834Y271666D01*
X38243Y272278D01*
X38386Y273000D01*
X38243Y273722D01*
X37834Y274334D01*
X37585Y274500D01*
X37737Y275000D01*
X66763D01*
X66915Y274500D01*
X66666Y274334D01*
X66257Y273722D01*
X66114Y273000D01*
X66257Y272278D01*
X66666Y271666D01*
X67278Y271257D01*
X68000Y271114D01*
X68722Y271257D01*
X69334Y271666D01*
X69743Y272278D01*
X69886Y273000D01*
X69743Y273722D01*
X69334Y274334D01*
X69085Y274500D01*
X69237Y275000D01*
X89263D01*
X89415Y274500D01*
X89166Y274334D01*
X88757Y273722D01*
X88614Y273000D01*
X88757Y272278D01*
X89166Y271666D01*
X89778Y271257D01*
X90500Y271114D01*
X91222Y271257D01*
X91834Y271666D01*
X92243Y272278D01*
X92386Y273000D01*
X92243Y273722D01*
X91834Y274334D01*
X91585Y274500D01*
X91737Y275000D01*
X97263D01*
X97415Y274500D01*
X97166Y274334D01*
X96757Y273722D01*
X96614Y273000D01*
X96757Y272278D01*
X97166Y271666D01*
X97778Y271257D01*
X98500Y271114D01*
X99222Y271257D01*
X99834Y271666D01*
X100243Y272278D01*
X100386Y273000D01*
X100243Y273722D01*
X99834Y274334D01*
X99585Y274500D01*
X99737Y275000D01*
X107263D01*
X107415Y274500D01*
X107166Y274334D01*
X106757Y273722D01*
X106614Y273000D01*
X106757Y272278D01*
X107166Y271666D01*
X107778Y271257D01*
X108500Y271114D01*
X109222Y271257D01*
X109834Y271666D01*
X110243Y272278D01*
X110386Y273000D01*
X110243Y273722D01*
X109834Y274334D01*
X109585Y274500D01*
X109737Y275000D01*
X234000D01*
Y42737D01*
D02*
G37*
%LPC*%
G36*
X231500Y274386D02*
X230778Y274243D01*
X230166Y273834D01*
X229757Y273222D01*
X229614Y272500D01*
X229757Y271778D01*
X230166Y271166D01*
X230778Y270757D01*
X231500Y270614D01*
X232222Y270757D01*
X232834Y271166D01*
X233243Y271778D01*
X233386Y272500D01*
X233243Y273222D01*
X232834Y273834D01*
X232222Y274243D01*
X231500Y274386D01*
D02*
G37*
G36*
X200000D02*
X199278Y274243D01*
X198666Y273834D01*
X198257Y273222D01*
X198114Y272500D01*
X198257Y271778D01*
X198666Y271166D01*
X199278Y270757D01*
X200000Y270614D01*
X200722Y270757D01*
X201334Y271166D01*
X201743Y271778D01*
X201886Y272500D01*
X201743Y273222D01*
X201334Y273834D01*
X200722Y274243D01*
X200000Y274386D01*
D02*
G37*
G36*
X168500D02*
X167778Y274243D01*
X167166Y273834D01*
X166757Y273222D01*
X166614Y272500D01*
X166757Y271778D01*
X167166Y271166D01*
X167778Y270757D01*
X168500Y270614D01*
X169222Y270757D01*
X169834Y271166D01*
X170243Y271778D01*
X170386Y272500D01*
X170243Y273222D01*
X169834Y273834D01*
X169222Y274243D01*
X168500Y274386D01*
D02*
G37*
G36*
X136000D02*
X135278Y274243D01*
X134666Y273834D01*
X134257Y273222D01*
X134114Y272500D01*
X134257Y271778D01*
X134666Y271166D01*
X135278Y270757D01*
X136000Y270614D01*
X136722Y270757D01*
X137334Y271166D01*
X137743Y271778D01*
X137886Y272500D01*
X137743Y273222D01*
X137334Y273834D01*
X136722Y274243D01*
X136000Y274386D01*
D02*
G37*
G36*
X108500Y267386D02*
X107778Y267243D01*
X107166Y266834D01*
X106757Y266222D01*
X106614Y265500D01*
X106757Y264778D01*
X107166Y264166D01*
X107778Y263757D01*
X108500Y263614D01*
X109222Y263757D01*
X109834Y264166D01*
X110243Y264778D01*
X110386Y265500D01*
X110243Y266222D01*
X109834Y266834D01*
X109222Y267243D01*
X108500Y267386D01*
D02*
G37*
G36*
X98500Y265386D02*
X97778Y265243D01*
X97166Y264834D01*
X96757Y264222D01*
X96614Y263500D01*
X96757Y262778D01*
X97166Y262166D01*
X97778Y261757D01*
X98500Y261614D01*
X99222Y261757D01*
X99834Y262166D01*
X100243Y262778D01*
X100386Y263500D01*
X100243Y264222D01*
X99834Y264834D01*
X99222Y265243D01*
X98500Y265386D01*
D02*
G37*
G36*
X108500Y260386D02*
X107778Y260243D01*
X107166Y259834D01*
X106757Y259222D01*
X106614Y258500D01*
X106757Y257778D01*
X107166Y257166D01*
X107778Y256757D01*
X108500Y256614D01*
X109222Y256757D01*
X109834Y257166D01*
X110243Y257778D01*
X110386Y258500D01*
X110243Y259222D01*
X109834Y259834D01*
X109222Y260243D01*
X108500Y260386D01*
D02*
G37*
G36*
X98500Y257886D02*
X97778Y257743D01*
X97166Y257334D01*
X96757Y256722D01*
X96614Y256000D01*
X96757Y255278D01*
X97166Y254666D01*
X97778Y254257D01*
X98500Y254114D01*
X99222Y254257D01*
X99834Y254666D01*
X100243Y255278D01*
X100386Y256000D01*
X100243Y256722D01*
X99834Y257334D01*
X99222Y257743D01*
X98500Y257886D01*
D02*
G37*
G36*
X170500Y254386D02*
X169778Y254243D01*
X169166Y253834D01*
X168757Y253222D01*
X168614Y252500D01*
X168757Y251778D01*
X169166Y251166D01*
X169639Y250850D01*
X169526Y250337D01*
X169148Y250299D01*
X167847Y249905D01*
X166648Y249264D01*
X166458Y249108D01*
X166003Y249381D01*
X166086Y249800D01*
X165943Y250522D01*
X165534Y251134D01*
X164922Y251543D01*
X164200Y251686D01*
X163478Y251543D01*
X162866Y251134D01*
X162457Y250522D01*
X162314Y249800D01*
X162457Y249078D01*
X162866Y248466D01*
X163478Y248057D01*
X164200Y247914D01*
X164619Y247997D01*
X164892Y247542D01*
X164736Y247352D01*
X164095Y246153D01*
X163701Y244852D01*
X163643Y244269D01*
X163169Y244224D01*
X163137Y244230D01*
X162734Y244834D01*
X162122Y245243D01*
X161400Y245386D01*
X160678Y245243D01*
X160066Y244834D01*
X159657Y244222D01*
X159514Y243500D01*
X159657Y242778D01*
X160066Y242166D01*
X160678Y241757D01*
X161400Y241614D01*
X162122Y241757D01*
X162734Y242166D01*
X163137Y242770D01*
X163169Y242776D01*
X163643Y242731D01*
X163701Y242147D01*
X164095Y240847D01*
X164736Y239649D01*
X164892Y239458D01*
X164619Y239003D01*
X164200Y239086D01*
X163478Y238943D01*
X162866Y238534D01*
X162457Y237922D01*
X162314Y237200D01*
X162457Y236478D01*
X162866Y235866D01*
X163478Y235457D01*
X164200Y235314D01*
X164922Y235457D01*
X165534Y235866D01*
X165943Y236478D01*
X166086Y237200D01*
X166003Y237619D01*
X166458Y237892D01*
X166648Y237736D01*
X167847Y237095D01*
X169148Y236701D01*
X169731Y236643D01*
X169776Y236169D01*
X169770Y236137D01*
X169166Y235734D01*
X168757Y235122D01*
X168614Y234400D01*
X168757Y233678D01*
X169166Y233066D01*
X169778Y232657D01*
X170500Y232514D01*
X171222Y232657D01*
X171834Y233066D01*
X172243Y233678D01*
X172386Y234400D01*
X172243Y235122D01*
X171834Y235734D01*
X171230Y236137D01*
X171224Y236169D01*
X171269Y236643D01*
X171853Y236701D01*
X173153Y237095D01*
X174352Y237736D01*
X174542Y237892D01*
X174997Y237619D01*
X174914Y237200D01*
X175057Y236478D01*
X175466Y235866D01*
X176078Y235457D01*
X176800Y235314D01*
X177522Y235457D01*
X178134Y235866D01*
X178543Y236478D01*
X178686Y237200D01*
X178543Y237922D01*
X178134Y238534D01*
X177522Y238943D01*
X176800Y239086D01*
X176381Y239003D01*
X176108Y239458D01*
X176264Y239649D01*
X176905Y240847D01*
X177299Y242147D01*
X177357Y242731D01*
X177831Y242776D01*
X177863Y242770D01*
X178266Y242166D01*
X178878Y241757D01*
X179600Y241614D01*
X180322Y241757D01*
X180934Y242166D01*
X181343Y242778D01*
X181486Y243500D01*
X181343Y244222D01*
X180934Y244834D01*
X180322Y245243D01*
X179600Y245386D01*
X178878Y245243D01*
X178266Y244834D01*
X177863Y244230D01*
X177831Y244224D01*
X177357Y244269D01*
X177299Y244852D01*
X176905Y246153D01*
X176264Y247352D01*
X176108Y247542D01*
X176381Y247997D01*
X176800Y247914D01*
X177522Y248057D01*
X178134Y248466D01*
X178543Y249078D01*
X178686Y249800D01*
X178543Y250522D01*
X178134Y251134D01*
X177522Y251543D01*
X176800Y251686D01*
X176078Y251543D01*
X175466Y251134D01*
X175057Y250522D01*
X174914Y249800D01*
X174997Y249381D01*
X174542Y249108D01*
X174352Y249264D01*
X173153Y249905D01*
X171853Y250299D01*
X171475Y250337D01*
X171361Y250850D01*
X171834Y251166D01*
X172243Y251778D01*
X172386Y252500D01*
X172243Y253222D01*
X171834Y253834D01*
X171222Y254243D01*
X170500Y254386D01*
D02*
G37*
G36*
X53000D02*
X52278Y254243D01*
X51666Y253834D01*
X51257Y253222D01*
X51114Y252500D01*
X51257Y251778D01*
X51666Y251166D01*
X52139Y250850D01*
X52026Y250337D01*
X51648Y250299D01*
X50347Y249905D01*
X49148Y249264D01*
X48958Y249108D01*
X48503Y249381D01*
X48586Y249800D01*
X48443Y250522D01*
X48034Y251134D01*
X47422Y251543D01*
X46700Y251686D01*
X45978Y251543D01*
X45366Y251134D01*
X44957Y250522D01*
X44814Y249800D01*
X44957Y249078D01*
X45366Y248466D01*
X45978Y248057D01*
X46700Y247914D01*
X47119Y247997D01*
X47392Y247542D01*
X47236Y247352D01*
X46595Y246153D01*
X46201Y244852D01*
X46143Y244269D01*
X45669Y244224D01*
X45637Y244230D01*
X45234Y244834D01*
X44622Y245243D01*
X43900Y245386D01*
X43178Y245243D01*
X42566Y244834D01*
X42157Y244222D01*
X42014Y243500D01*
X42157Y242778D01*
X42566Y242166D01*
X43178Y241757D01*
X43900Y241614D01*
X44622Y241757D01*
X45234Y242166D01*
X45637Y242770D01*
X45669Y242776D01*
X46143Y242731D01*
X46201Y242147D01*
X46595Y240847D01*
X47236Y239649D01*
X47392Y239458D01*
X47119Y239003D01*
X46700Y239086D01*
X45978Y238943D01*
X45366Y238534D01*
X44957Y237922D01*
X44814Y237200D01*
X44957Y236478D01*
X45366Y235866D01*
X45978Y235457D01*
X46700Y235314D01*
X47422Y235457D01*
X48034Y235866D01*
X48443Y236478D01*
X48586Y237200D01*
X48503Y237619D01*
X48958Y237892D01*
X49148Y237736D01*
X50347Y237095D01*
X51648Y236701D01*
X52231Y236643D01*
X52276Y236169D01*
X52270Y236137D01*
X51666Y235734D01*
X51257Y235122D01*
X51114Y234400D01*
X51257Y233678D01*
X51666Y233066D01*
X52278Y232657D01*
X53000Y232514D01*
X53722Y232657D01*
X54334Y233066D01*
X54743Y233678D01*
X54886Y234400D01*
X54743Y235122D01*
X54334Y235734D01*
X53730Y236137D01*
X53724Y236169D01*
X53769Y236643D01*
X54352Y236701D01*
X55653Y237095D01*
X56852Y237736D01*
X57042Y237892D01*
X57497Y237619D01*
X57414Y237200D01*
X57557Y236478D01*
X57966Y235866D01*
X58578Y235457D01*
X59300Y235314D01*
X60022Y235457D01*
X60634Y235866D01*
X61043Y236478D01*
X61186Y237200D01*
X61043Y237922D01*
X60634Y238534D01*
X60022Y238943D01*
X59300Y239086D01*
X58881Y239003D01*
X58608Y239458D01*
X58764Y239649D01*
X59405Y240847D01*
X59799Y242147D01*
X59857Y242731D01*
X60331Y242776D01*
X60363Y242770D01*
X60766Y242166D01*
X61378Y241757D01*
X62100Y241614D01*
X62822Y241757D01*
X63434Y242166D01*
X63843Y242778D01*
X63986Y243500D01*
X63843Y244222D01*
X63434Y244834D01*
X62822Y245243D01*
X62100Y245386D01*
X61378Y245243D01*
X60766Y244834D01*
X60363Y244230D01*
X60331Y244224D01*
X59857Y244269D01*
X59799Y244852D01*
X59405Y246153D01*
X58764Y247352D01*
X58608Y247542D01*
X58881Y247997D01*
X59300Y247914D01*
X60022Y248057D01*
X60634Y248466D01*
X61043Y249078D01*
X61186Y249800D01*
X61043Y250522D01*
X60634Y251134D01*
X60022Y251543D01*
X59300Y251686D01*
X58578Y251543D01*
X57966Y251134D01*
X57557Y250522D01*
X57414Y249800D01*
X57497Y249381D01*
X57042Y249108D01*
X56852Y249264D01*
X55653Y249905D01*
X54352Y250299D01*
X53974Y250337D01*
X53861Y250850D01*
X54334Y251166D01*
X54743Y251778D01*
X54886Y252500D01*
X54743Y253222D01*
X54334Y253834D01*
X53722Y254243D01*
X53000Y254386D01*
D02*
G37*
G36*
X108500Y252386D02*
X107778Y252243D01*
X107166Y251834D01*
X106757Y251222D01*
X106614Y250500D01*
X106757Y249778D01*
X107166Y249166D01*
X107778Y248757D01*
X108500Y248614D01*
X109222Y248757D01*
X109834Y249166D01*
X110243Y249778D01*
X110386Y250500D01*
X110243Y251222D01*
X109834Y251834D01*
X109222Y252243D01*
X108500Y252386D01*
D02*
G37*
G36*
X98500D02*
X97778Y252243D01*
X97166Y251834D01*
X96757Y251222D01*
X96614Y250500D01*
X96757Y249778D01*
X97166Y249166D01*
X97778Y248757D01*
X98500Y248614D01*
X99222Y248757D01*
X99834Y249166D01*
X100243Y249778D01*
X100386Y250500D01*
X100243Y251222D01*
X99834Y251834D01*
X99222Y252243D01*
X98500Y252386D01*
D02*
G37*
G36*
X209500Y249630D02*
X208819Y249541D01*
X208185Y249278D01*
X207640Y248860D01*
X207222Y248315D01*
X206959Y247681D01*
X206870Y247000D01*
X206959Y246319D01*
X207222Y245685D01*
X207640Y245140D01*
X208185Y244722D01*
X208819Y244459D01*
X209500Y244370D01*
X210181Y244459D01*
X210815Y244722D01*
X211360Y245140D01*
X211778Y245685D01*
X212041Y246319D01*
X212130Y247000D01*
X212041Y247681D01*
X211778Y248315D01*
X211360Y248860D01*
X210815Y249278D01*
X210181Y249541D01*
X209500Y249630D01*
D02*
G37*
G36*
X199500D02*
X198819Y249541D01*
X198185Y249278D01*
X197640Y248860D01*
X197222Y248315D01*
X196959Y247681D01*
X196870Y247000D01*
X196959Y246319D01*
X197222Y245685D01*
X197640Y245140D01*
X198185Y244722D01*
X198819Y244459D01*
X199500Y244370D01*
X200181Y244459D01*
X200815Y244722D01*
X201360Y245140D01*
X201778Y245685D01*
X202041Y246319D01*
X202130Y247000D01*
X202041Y247681D01*
X201778Y248315D01*
X201360Y248860D01*
X200815Y249278D01*
X200181Y249541D01*
X199500Y249630D01*
D02*
G37*
G36*
X231500Y242386D02*
X230778Y242243D01*
X230166Y241834D01*
X229757Y241222D01*
X229614Y240500D01*
X229757Y239778D01*
X230166Y239166D01*
X230778Y238757D01*
X231500Y238614D01*
X232222Y238757D01*
X232834Y239166D01*
X233243Y239778D01*
X233386Y240500D01*
X233243Y241222D01*
X232834Y241834D01*
X232222Y242243D01*
X231500Y242386D01*
D02*
G37*
G36*
X209500Y239630D02*
X208819Y239541D01*
X208185Y239278D01*
X207640Y238860D01*
X207222Y238315D01*
X206959Y237681D01*
X206870Y237000D01*
X206959Y236319D01*
X207222Y235685D01*
X207640Y235140D01*
X208185Y234722D01*
X208819Y234459D01*
X209500Y234370D01*
X210181Y234459D01*
X210815Y234722D01*
X211360Y235140D01*
X211778Y235685D01*
X212041Y236319D01*
X212130Y237000D01*
X212041Y237681D01*
X211778Y238315D01*
X211360Y238860D01*
X210815Y239278D01*
X210181Y239541D01*
X209500Y239630D01*
D02*
G37*
G36*
X199500D02*
X198819Y239541D01*
X198185Y239278D01*
X197640Y238860D01*
X197222Y238315D01*
X196959Y237681D01*
X196870Y237000D01*
X196959Y236319D01*
X197222Y235685D01*
X197640Y235140D01*
X198185Y234722D01*
X198819Y234459D01*
X199500Y234370D01*
X200181Y234459D01*
X200815Y234722D01*
X201360Y235140D01*
X201778Y235685D01*
X202041Y236319D01*
X202130Y237000D01*
X202041Y237681D01*
X201778Y238315D01*
X201360Y238860D01*
X200815Y239278D01*
X200181Y239541D01*
X199500Y239630D01*
D02*
G37*
G36*
X98500Y237386D02*
X97778Y237243D01*
X97166Y236834D01*
X96757Y236222D01*
X96614Y235500D01*
X96757Y234778D01*
X97166Y234166D01*
X97778Y233757D01*
X98500Y233614D01*
X99222Y233757D01*
X99834Y234166D01*
X100243Y234778D01*
X100386Y235500D01*
X100243Y236222D01*
X99834Y236834D01*
X99222Y237243D01*
X98500Y237386D01*
D02*
G37*
G36*
X108500Y230386D02*
X107778Y230243D01*
X107166Y229834D01*
X106757Y229222D01*
X106614Y228500D01*
X106757Y227778D01*
X107166Y227166D01*
X107778Y226757D01*
X108500Y226614D01*
X109222Y226757D01*
X109834Y227166D01*
X110243Y227778D01*
X110386Y228500D01*
X110243Y229222D01*
X109834Y229834D01*
X109222Y230243D01*
X108500Y230386D01*
D02*
G37*
G36*
X209500Y229630D02*
X208819Y229541D01*
X208185Y229278D01*
X207640Y228860D01*
X207222Y228315D01*
X206959Y227681D01*
X206870Y227000D01*
X206959Y226319D01*
X207222Y225685D01*
X207640Y225140D01*
X208185Y224722D01*
X208819Y224459D01*
X209500Y224370D01*
X210181Y224459D01*
X210815Y224722D01*
X211360Y225140D01*
X211778Y225685D01*
X212041Y226319D01*
X212130Y227000D01*
X212041Y227681D01*
X211778Y228315D01*
X211360Y228860D01*
X210815Y229278D01*
X210181Y229541D01*
X209500Y229630D01*
D02*
G37*
G36*
X199500D02*
X198819Y229541D01*
X198185Y229278D01*
X197640Y228860D01*
X197222Y228315D01*
X196959Y227681D01*
X196870Y227000D01*
X196959Y226319D01*
X197222Y225685D01*
X197640Y225140D01*
X198185Y224722D01*
X198819Y224459D01*
X199500Y224370D01*
X200181Y224459D01*
X200815Y224722D01*
X201360Y225140D01*
X201778Y225685D01*
X202041Y226319D01*
X202130Y227000D01*
X202041Y227681D01*
X201778Y228315D01*
X201360Y228860D01*
X200815Y229278D01*
X200181Y229541D01*
X199500Y229630D01*
D02*
G37*
G36*
X98500Y227386D02*
X97778Y227243D01*
X97166Y226834D01*
X96757Y226222D01*
X96614Y225500D01*
X96757Y224778D01*
X97166Y224166D01*
X97778Y223757D01*
X98500Y223614D01*
X99222Y223757D01*
X99834Y224166D01*
X100243Y224778D01*
X100386Y225500D01*
X100243Y226222D01*
X99834Y226834D01*
X99222Y227243D01*
X98500Y227386D01*
D02*
G37*
G36*
X108500Y220386D02*
X107778Y220243D01*
X107166Y219834D01*
X106757Y219222D01*
X106614Y218500D01*
X106757Y217778D01*
X107166Y217166D01*
X107778Y216757D01*
X108500Y216614D01*
X109222Y216757D01*
X109834Y217166D01*
X110243Y217778D01*
X110386Y218500D01*
X110243Y219222D01*
X109834Y219834D01*
X109222Y220243D01*
X108500Y220386D01*
D02*
G37*
G36*
X180700Y219086D02*
X179978Y218943D01*
X179366Y218534D01*
X178957Y217922D01*
X178814Y217200D01*
X178957Y216478D01*
X179366Y215866D01*
X179978Y215457D01*
X180700Y215314D01*
X181422Y215457D01*
X182034Y215866D01*
X182443Y216478D01*
X182586Y217200D01*
X182443Y217922D01*
X182034Y218534D01*
X181422Y218943D01*
X180700Y219086D01*
D02*
G37*
G36*
X209500Y219630D02*
X208819Y219541D01*
X208185Y219278D01*
X207640Y218860D01*
X207222Y218315D01*
X206959Y217681D01*
X206870Y217000D01*
X206959Y216319D01*
X207222Y215685D01*
X207640Y215140D01*
X208185Y214722D01*
X208819Y214459D01*
X209500Y214370D01*
X210181Y214459D01*
X210815Y214722D01*
X211360Y215140D01*
X211778Y215685D01*
X212041Y216319D01*
X212130Y217000D01*
X212041Y217681D01*
X211778Y218315D01*
X211360Y218860D01*
X210815Y219278D01*
X210181Y219541D01*
X209500Y219630D01*
D02*
G37*
G36*
X199500D02*
X198819Y219541D01*
X198185Y219278D01*
X197640Y218860D01*
X197222Y218315D01*
X196959Y217681D01*
X196870Y217000D01*
X196959Y216319D01*
X197222Y215685D01*
X197640Y215140D01*
X198185Y214722D01*
X198819Y214459D01*
X199500Y214370D01*
X200181Y214459D01*
X200815Y214722D01*
X201360Y215140D01*
X201778Y215685D01*
X202041Y216319D01*
X202130Y217000D01*
X202041Y217681D01*
X201778Y218315D01*
X201360Y218860D01*
X200815Y219278D01*
X200181Y219541D01*
X199500Y219630D01*
D02*
G37*
G36*
X210000Y209968D02*
Y207500D01*
X212468D01*
X212431Y207785D01*
X212127Y208517D01*
X211645Y209145D01*
X211017Y209627D01*
X210285Y209930D01*
X210000Y209968D01*
D02*
G37*
G36*
X209000D02*
X208715Y209930D01*
X207983Y209627D01*
X207355Y209145D01*
X206873Y208517D01*
X206570Y207785D01*
X206532Y207500D01*
X209000D01*
Y209968D01*
D02*
G37*
G36*
X121000Y208895D02*
Y207200D01*
X122695D01*
X122619Y207578D01*
X122122Y208322D01*
X121378Y208820D01*
X121000Y208895D01*
D02*
G37*
G36*
X120000D02*
X119622Y208820D01*
X118878Y208322D01*
X118380Y207578D01*
X118305Y207200D01*
X120000D01*
Y208895D01*
D02*
G37*
G36*
X87300Y208195D02*
Y206500D01*
X88995D01*
X88919Y206878D01*
X88422Y207622D01*
X87678Y208120D01*
X87300Y208195D01*
D02*
G37*
G36*
X86300D02*
X85922Y208120D01*
X85178Y207622D01*
X84681Y206878D01*
X84605Y206500D01*
X86300D01*
Y208195D01*
D02*
G37*
G36*
X169200Y208886D02*
X168478Y208743D01*
X167866Y208334D01*
X167457Y207722D01*
X167314Y207000D01*
X167457Y206278D01*
X167866Y205666D01*
X168478Y205257D01*
X169200Y205114D01*
X169922Y205257D01*
X170534Y205666D01*
X170943Y206278D01*
X171086Y207000D01*
X170943Y207722D01*
X170534Y208334D01*
X169922Y208743D01*
X169200Y208886D01*
D02*
G37*
G36*
X122695Y206200D02*
X121000D01*
Y204505D01*
X121378Y204580D01*
X122122Y205078D01*
X122619Y205822D01*
X122695Y206200D01*
D02*
G37*
G36*
X120000D02*
X118305D01*
X118380Y205822D01*
X118878Y205078D01*
X119622Y204580D01*
X120000Y204505D01*
Y206200D01*
D02*
G37*
G36*
X199500Y209630D02*
X198819Y209541D01*
X198185Y209278D01*
X197640Y208860D01*
X197222Y208315D01*
X196959Y207681D01*
X196870Y207000D01*
X196959Y206319D01*
X197222Y205685D01*
X197640Y205140D01*
X198185Y204722D01*
X198819Y204459D01*
X199500Y204370D01*
X200181Y204459D01*
X200815Y204722D01*
X201360Y205140D01*
X201778Y205685D01*
X202041Y206319D01*
X202130Y207000D01*
X202041Y207681D01*
X201778Y208315D01*
X201360Y208860D01*
X200815Y209278D01*
X200181Y209541D01*
X199500Y209630D01*
D02*
G37*
G36*
X212468Y206500D02*
X210000D01*
Y204032D01*
X210285Y204070D01*
X211017Y204373D01*
X211645Y204855D01*
X212127Y205483D01*
X212431Y206215D01*
X212468Y206500D01*
D02*
G37*
G36*
X209000D02*
X206532D01*
X206570Y206215D01*
X206873Y205483D01*
X207355Y204855D01*
X207983Y204373D01*
X208715Y204070D01*
X209000Y204032D01*
Y206500D01*
D02*
G37*
G36*
X88995Y205500D02*
X87300D01*
Y203805D01*
X87678Y203881D01*
X88422Y204378D01*
X88919Y205122D01*
X88995Y205500D01*
D02*
G37*
G36*
X86300D02*
X84605D01*
X84681Y205122D01*
X85178Y204378D01*
X85922Y203881D01*
X86300Y203805D01*
Y205500D01*
D02*
G37*
G36*
X231500Y204886D02*
X230778Y204743D01*
X230166Y204334D01*
X229757Y203722D01*
X229614Y203000D01*
X229757Y202278D01*
X230166Y201666D01*
X230778Y201257D01*
X231500Y201114D01*
X232222Y201257D01*
X232834Y201666D01*
X233243Y202278D01*
X233386Y203000D01*
X233243Y203722D01*
X232834Y204334D01*
X232222Y204743D01*
X231500Y204886D01*
D02*
G37*
G36*
X107800Y203172D02*
X107060Y203025D01*
X106431Y202605D01*
X106011Y201976D01*
X105864Y201235D01*
X106011Y200494D01*
X106431Y199866D01*
X107060Y199446D01*
X107800Y199299D01*
X108542Y199446D01*
X109170Y199866D01*
X109590Y200494D01*
X109737Y201235D01*
X109590Y201976D01*
X109170Y202605D01*
X108542Y203025D01*
X107800Y203172D01*
D02*
G37*
G36*
X103076D02*
X102335Y203025D01*
X101707Y202605D01*
X101287Y201976D01*
X101140Y201235D01*
X101287Y200494D01*
X101707Y199866D01*
X102335Y199446D01*
X103076Y199299D01*
X103817Y199446D01*
X104445Y199866D01*
X104865Y200494D01*
X105013Y201235D01*
X104865Y201976D01*
X104445Y202605D01*
X103817Y203025D01*
X103076Y203172D01*
D02*
G37*
G36*
X98352D02*
X97611Y203025D01*
X96982Y202605D01*
X96563Y201976D01*
X96415Y201235D01*
X96563Y200494D01*
X96982Y199866D01*
X97611Y199446D01*
X98352Y199299D01*
X99093Y199446D01*
X99721Y199866D01*
X100141Y200494D01*
X100288Y201235D01*
X100141Y201976D01*
X99721Y202605D01*
X99093Y203025D01*
X98352Y203172D01*
D02*
G37*
G36*
X93627D02*
X92886Y203025D01*
X92258Y202605D01*
X91838Y201976D01*
X91691Y201235D01*
X91838Y200494D01*
X92258Y199866D01*
X92886Y199446D01*
X93627Y199299D01*
X94368Y199446D01*
X94997Y199866D01*
X95416Y200494D01*
X95564Y201235D01*
X95416Y201976D01*
X94997Y202605D01*
X94368Y203025D01*
X93627Y203172D01*
D02*
G37*
G36*
X78700Y205986D02*
X77978Y205843D01*
X77366Y205434D01*
X76957Y204822D01*
X76814Y204100D01*
X76957Y203378D01*
X77257Y202929D01*
X77265Y202420D01*
X77219Y202263D01*
X76857Y201722D01*
X76714Y201000D01*
X76857Y200278D01*
X77266Y199666D01*
X77878Y199257D01*
X78600Y199114D01*
X79322Y199257D01*
X79522Y199391D01*
X79971Y199090D01*
X79914Y198800D01*
X80057Y198078D01*
X80466Y197466D01*
X81078Y197057D01*
X81800Y196914D01*
X82358Y197025D01*
X82527Y197053D01*
X82893Y196704D01*
X82957Y196378D01*
X83366Y195766D01*
X83978Y195357D01*
X84700Y195214D01*
X85422Y195357D01*
X86034Y195766D01*
X86443Y196378D01*
X86586Y197100D01*
X86443Y197822D01*
X86034Y198434D01*
X85422Y198843D01*
X84700Y198986D01*
X84142Y198875D01*
X83973Y198847D01*
X83607Y199196D01*
X83543Y199522D01*
X83134Y200134D01*
X82522Y200543D01*
X81800Y200686D01*
X81078Y200543D01*
X80879Y200409D01*
X80428Y200710D01*
X80486Y201000D01*
X80343Y201722D01*
X80043Y202171D01*
X80035Y202680D01*
X80081Y202837D01*
X80443Y203378D01*
X80586Y204100D01*
X80443Y204822D01*
X80034Y205434D01*
X79422Y205843D01*
X78700Y205986D01*
D02*
G37*
G36*
X107800Y198448D02*
X107060Y198300D01*
X106431Y197880D01*
X106011Y197252D01*
X105864Y196511D01*
X106011Y195770D01*
X106431Y195142D01*
X107060Y194722D01*
X107800Y194575D01*
X108542Y194722D01*
X109170Y195142D01*
X109590Y195770D01*
X109737Y196511D01*
X109590Y197252D01*
X109170Y197880D01*
X108542Y198300D01*
X107800Y198448D01*
D02*
G37*
G36*
X103076D02*
X102335Y198300D01*
X101707Y197880D01*
X101287Y197252D01*
X101140Y196511D01*
X101287Y195770D01*
X101707Y195142D01*
X102335Y194722D01*
X103076Y194575D01*
X103817Y194722D01*
X104445Y195142D01*
X104865Y195770D01*
X105013Y196511D01*
X104865Y197252D01*
X104445Y197880D01*
X103817Y198300D01*
X103076Y198448D01*
D02*
G37*
G36*
X98352D02*
X97611Y198300D01*
X96982Y197880D01*
X96563Y197252D01*
X96415Y196511D01*
X96563Y195770D01*
X96982Y195142D01*
X97611Y194722D01*
X98352Y194575D01*
X99093Y194722D01*
X99721Y195142D01*
X100141Y195770D01*
X100288Y196511D01*
X100141Y197252D01*
X99721Y197880D01*
X99093Y198300D01*
X98352Y198448D01*
D02*
G37*
G36*
X93627D02*
X92886Y198300D01*
X92258Y197880D01*
X91838Y197252D01*
X91691Y196511D01*
X91838Y195770D01*
X92258Y195142D01*
X92886Y194722D01*
X93627Y194575D01*
X94368Y194722D01*
X94997Y195142D01*
X95416Y195770D01*
X95564Y196511D01*
X95416Y197252D01*
X94997Y197880D01*
X94368Y198300D01*
X93627Y198448D01*
D02*
G37*
G36*
X118500Y197386D02*
X117778Y197243D01*
X117166Y196834D01*
X116757Y196222D01*
X116614Y195500D01*
X116757Y194778D01*
X117166Y194166D01*
X117778Y193757D01*
X118500Y193614D01*
X119222Y193757D01*
X119834Y194166D01*
X120243Y194778D01*
X120386Y195500D01*
X120243Y196222D01*
X119834Y196834D01*
X119222Y197243D01*
X118500Y197386D01*
D02*
G37*
G36*
X107800Y193723D02*
X107060Y193576D01*
X106431Y193156D01*
X106011Y192528D01*
X105864Y191787D01*
X106011Y191046D01*
X106431Y190417D01*
X107060Y189998D01*
X107800Y189850D01*
X108542Y189998D01*
X109170Y190417D01*
X109590Y191046D01*
X109737Y191787D01*
X109590Y192528D01*
X109170Y193156D01*
X108542Y193576D01*
X107800Y193723D01*
D02*
G37*
G36*
X103076D02*
X102335Y193576D01*
X101707Y193156D01*
X101287Y192528D01*
X101140Y191787D01*
X101287Y191046D01*
X101707Y190417D01*
X102335Y189998D01*
X103076Y189850D01*
X103817Y189998D01*
X104445Y190417D01*
X104865Y191046D01*
X105013Y191787D01*
X104865Y192528D01*
X104445Y193156D01*
X103817Y193576D01*
X103076Y193723D01*
D02*
G37*
G36*
X98352D02*
X97611Y193576D01*
X96982Y193156D01*
X96563Y192528D01*
X96415Y191787D01*
X96563Y191046D01*
X96982Y190417D01*
X97611Y189998D01*
X98352Y189850D01*
X99093Y189998D01*
X99721Y190417D01*
X100141Y191046D01*
X100288Y191787D01*
X100141Y192528D01*
X99721Y193156D01*
X99093Y193576D01*
X98352Y193723D01*
D02*
G37*
G36*
X93627D02*
X92886Y193576D01*
X92258Y193156D01*
X91838Y192528D01*
X91691Y191787D01*
X91838Y191046D01*
X92258Y190417D01*
X92886Y189998D01*
X93627Y189850D01*
X94368Y189998D01*
X94997Y190417D01*
X95416Y191046D01*
X95564Y191787D01*
X95416Y192528D01*
X94997Y193156D01*
X94368Y193576D01*
X93627Y193723D01*
D02*
G37*
G36*
X107800Y188999D02*
X107060Y188851D01*
X106431Y188432D01*
X106011Y187803D01*
X105864Y187062D01*
X106011Y186321D01*
X106431Y185693D01*
X107060Y185273D01*
X107800Y185126D01*
X108542Y185273D01*
X109170Y185693D01*
X109590Y186321D01*
X109737Y187062D01*
X109590Y187803D01*
X109170Y188432D01*
X108542Y188851D01*
X107800Y188999D01*
D02*
G37*
G36*
X103076D02*
X102335Y188851D01*
X101707Y188432D01*
X101287Y187803D01*
X101140Y187062D01*
X101287Y186321D01*
X101707Y185693D01*
X102335Y185273D01*
X103076Y185126D01*
X103817Y185273D01*
X104445Y185693D01*
X104865Y186321D01*
X105013Y187062D01*
X104865Y187803D01*
X104445Y188432D01*
X103817Y188851D01*
X103076Y188999D01*
D02*
G37*
G36*
X98352D02*
X97611Y188851D01*
X96982Y188432D01*
X96563Y187803D01*
X96415Y187062D01*
X96563Y186321D01*
X96982Y185693D01*
X97611Y185273D01*
X98352Y185126D01*
X99093Y185273D01*
X99721Y185693D01*
X100141Y186321D01*
X100288Y187062D01*
X100141Y187803D01*
X99721Y188432D01*
X99093Y188851D01*
X98352Y188999D01*
D02*
G37*
G36*
X93627D02*
X92886Y188851D01*
X92258Y188432D01*
X91838Y187803D01*
X91691Y187062D01*
X91838Y186321D01*
X92258Y185693D01*
X92886Y185273D01*
X93627Y185126D01*
X94368Y185273D01*
X94997Y185693D01*
X95416Y186321D01*
X95564Y187062D01*
X95416Y187803D01*
X94997Y188432D01*
X94368Y188851D01*
X93627Y188999D01*
D02*
G37*
G36*
X127500Y183895D02*
Y182200D01*
X129195D01*
X129120Y182578D01*
X128622Y183322D01*
X127878Y183819D01*
X127500Y183895D01*
D02*
G37*
G36*
X126500D02*
X126122Y183819D01*
X125378Y183322D01*
X124881Y182578D01*
X124805Y182200D01*
X126500D01*
Y183895D01*
D02*
G37*
G36*
X129195Y181200D02*
X127500D01*
Y179505D01*
X127878Y179580D01*
X128622Y180078D01*
X129120Y180822D01*
X129195Y181200D01*
D02*
G37*
G36*
X126500D02*
X124805D01*
X124881Y180822D01*
X125378Y180078D01*
X126122Y179580D01*
X126500Y179505D01*
Y181200D01*
D02*
G37*
G36*
X115000Y183086D02*
X114278Y182943D01*
X113666Y182534D01*
X113257Y181922D01*
X113114Y181200D01*
X113257Y180478D01*
X113666Y179866D01*
X114278Y179457D01*
X115000Y179314D01*
X115722Y179457D01*
X116334Y179866D01*
X116743Y180478D01*
X116886Y181200D01*
X116743Y181922D01*
X116334Y182534D01*
X115722Y182943D01*
X115000Y183086D01*
D02*
G37*
G36*
X100000Y180386D02*
X99278Y180243D01*
X98666Y179834D01*
X98257Y179222D01*
X98114Y178500D01*
X98257Y177778D01*
X98666Y177166D01*
X99278Y176757D01*
X100000Y176614D01*
X100722Y176757D01*
X101334Y177166D01*
X101743Y177778D01*
X101886Y178500D01*
X101743Y179222D01*
X101334Y179834D01*
X100722Y180243D01*
X100000Y180386D01*
D02*
G37*
G36*
X81300Y176995D02*
Y175300D01*
X82995D01*
X82919Y175678D01*
X82422Y176422D01*
X81678Y176919D01*
X81300Y176995D01*
D02*
G37*
G36*
X80300D02*
X79922Y176919D01*
X79178Y176422D01*
X78681Y175678D01*
X78605Y175300D01*
X80300D01*
Y176995D01*
D02*
G37*
G36*
X82995Y174300D02*
X81300D01*
Y172605D01*
X81678Y172680D01*
X82422Y173178D01*
X82919Y173922D01*
X82995Y174300D01*
D02*
G37*
G36*
X80300D02*
X78605D01*
X78681Y173922D01*
X79178Y173178D01*
X79922Y172680D01*
X80300Y172605D01*
Y174300D01*
D02*
G37*
G36*
X231500Y174386D02*
X230778Y174243D01*
X230166Y173834D01*
X229757Y173222D01*
X229614Y172500D01*
X229757Y171778D01*
X230166Y171166D01*
X230778Y170757D01*
X231500Y170614D01*
X232222Y170757D01*
X232834Y171166D01*
X233243Y171778D01*
X233386Y172500D01*
X233243Y173222D01*
X232834Y173834D01*
X232222Y174243D01*
X231500Y174386D01*
D02*
G37*
G36*
X155600Y172295D02*
Y170600D01*
X157295D01*
X157220Y170978D01*
X156722Y171722D01*
X155978Y172220D01*
X155600Y172295D01*
D02*
G37*
G36*
X154600D02*
X154222Y172220D01*
X153478Y171722D01*
X152980Y170978D01*
X152905Y170600D01*
X154600D01*
Y172295D01*
D02*
G37*
G36*
X157295Y169600D02*
X155600D01*
Y167905D01*
X155978Y167981D01*
X156722Y168478D01*
X157220Y169222D01*
X157295Y169600D01*
D02*
G37*
G36*
X154600D02*
X152905D01*
X152980Y169222D01*
X153478Y168478D01*
X154222Y167981D01*
X154600Y167905D01*
Y169600D01*
D02*
G37*
G36*
X138000Y167386D02*
X137278Y167243D01*
X136666Y166834D01*
X136257Y166222D01*
X136114Y165500D01*
X136257Y164778D01*
X136666Y164166D01*
X137278Y163757D01*
X138000Y163614D01*
X138722Y163757D01*
X139334Y164166D01*
X139743Y164778D01*
X139886Y165500D01*
X139743Y166222D01*
X139334Y166834D01*
X138722Y167243D01*
X138000Y167386D01*
D02*
G37*
G36*
X134000Y161886D02*
X133278Y161743D01*
X132666Y161334D01*
X132257Y160722D01*
X132114Y160000D01*
X132257Y159278D01*
X132666Y158666D01*
X133278Y158257D01*
X134000Y158114D01*
X134722Y158257D01*
X135334Y158666D01*
X135743Y159278D01*
X135886Y160000D01*
X135743Y160722D01*
X135334Y161334D01*
X134722Y161743D01*
X134000Y161886D01*
D02*
G37*
G36*
X209500Y163130D02*
X208819Y163041D01*
X208185Y162778D01*
X207640Y162360D01*
X207222Y161815D01*
X206959Y161181D01*
X206870Y160500D01*
X206959Y159819D01*
X207222Y159185D01*
X207640Y158640D01*
X208185Y158222D01*
X208819Y157959D01*
X209500Y157870D01*
X210181Y157959D01*
X210815Y158222D01*
X211360Y158640D01*
X211778Y159185D01*
X212041Y159819D01*
X212130Y160500D01*
X212041Y161181D01*
X211778Y161815D01*
X211360Y162360D01*
X210815Y162778D01*
X210181Y163041D01*
X209500Y163130D01*
D02*
G37*
G36*
X199500D02*
X198819Y163041D01*
X198185Y162778D01*
X197640Y162360D01*
X197222Y161815D01*
X196959Y161181D01*
X196870Y160500D01*
X196959Y159819D01*
X197222Y159185D01*
X197640Y158640D01*
X198185Y158222D01*
X198819Y157959D01*
X199500Y157870D01*
X200181Y157959D01*
X200815Y158222D01*
X201360Y158640D01*
X201778Y159185D01*
X202041Y159819D01*
X202130Y160500D01*
X202041Y161181D01*
X201778Y161815D01*
X201360Y162360D01*
X200815Y162778D01*
X200181Y163041D01*
X199500Y163130D01*
D02*
G37*
G36*
X123000Y159886D02*
X122278Y159743D01*
X121666Y159334D01*
X121257Y158722D01*
X121114Y158000D01*
X121257Y157278D01*
X121666Y156666D01*
X122278Y156257D01*
X123000Y156114D01*
X123722Y156257D01*
X124334Y156666D01*
X124612Y157082D01*
X127620D01*
X129351Y155351D01*
X129649Y155152D01*
X130000Y155082D01*
X146388D01*
X146666Y154666D01*
X147278Y154257D01*
X148000Y154114D01*
X148722Y154257D01*
X149334Y154666D01*
X149743Y155278D01*
X149886Y156000D01*
X149743Y156722D01*
X149334Y157334D01*
X148722Y157743D01*
X148000Y157886D01*
X147278Y157743D01*
X146666Y157334D01*
X146388Y156918D01*
X130380D01*
X128649Y158649D01*
X128351Y158848D01*
X128000Y158918D01*
X124612D01*
X124334Y159334D01*
X123722Y159743D01*
X123000Y159886D01*
D02*
G37*
G36*
X85000Y155781D02*
Y154086D01*
X86695D01*
X86619Y154464D01*
X86122Y155208D01*
X85378Y155706D01*
X85000Y155781D01*
D02*
G37*
G36*
X84000D02*
X83622Y155706D01*
X82878Y155208D01*
X82381Y154464D01*
X82305Y154086D01*
X84000D01*
Y155781D01*
D02*
G37*
G36*
X73500Y157386D02*
X72778Y157243D01*
X72166Y156834D01*
X71757Y156222D01*
X71614Y155500D01*
X71757Y154778D01*
X72166Y154166D01*
X72778Y153757D01*
X73500Y153614D01*
X74222Y153757D01*
X74834Y154166D01*
X75243Y154778D01*
X75386Y155500D01*
X75243Y156222D01*
X74834Y156834D01*
X74222Y157243D01*
X73500Y157386D01*
D02*
G37*
G36*
X136000Y153495D02*
Y151800D01*
X137695D01*
X137619Y152178D01*
X137122Y152922D01*
X136378Y153419D01*
X136000Y153495D01*
D02*
G37*
G36*
X135000D02*
X134622Y153419D01*
X133878Y152922D01*
X133380Y152178D01*
X133305Y151800D01*
X135000D01*
Y153495D01*
D02*
G37*
G36*
X86695Y153086D02*
X85000D01*
Y151392D01*
X85378Y151467D01*
X86122Y151964D01*
X86619Y152708D01*
X86695Y153086D01*
D02*
G37*
G36*
X84000D02*
X82305D01*
X82381Y152708D01*
X82878Y151964D01*
X83622Y151467D01*
X84000Y151392D01*
Y153086D01*
D02*
G37*
G36*
X28650Y156021D02*
X27825Y155913D01*
X27057Y155595D01*
X26397Y155088D01*
X25891Y154428D01*
X25572Y153660D01*
X25464Y152835D01*
X25572Y152010D01*
X25891Y151242D01*
X26397Y150582D01*
X27057Y150076D01*
X27825Y149757D01*
X28650Y149649D01*
X29475Y149757D01*
X30243Y150076D01*
X30903Y150582D01*
X31409Y151242D01*
X31728Y152010D01*
X31836Y152835D01*
X31728Y153660D01*
X31409Y154428D01*
X30903Y155088D01*
X30243Y155595D01*
X29475Y155913D01*
X28650Y156021D01*
D02*
G37*
G36*
X137695Y150800D02*
X136000D01*
Y149105D01*
X136378Y149180D01*
X137122Y149678D01*
X137619Y150422D01*
X137695Y150800D01*
D02*
G37*
G36*
X135000D02*
X133305D01*
X133380Y150422D01*
X133878Y149678D01*
X134622Y149180D01*
X135000Y149105D01*
Y150800D01*
D02*
G37*
G36*
X209500Y153130D02*
X208819Y153041D01*
X208185Y152778D01*
X207640Y152360D01*
X207222Y151815D01*
X206959Y151181D01*
X206870Y150500D01*
X206959Y149819D01*
X207222Y149185D01*
X207640Y148640D01*
X208185Y148222D01*
X208819Y147959D01*
X209500Y147870D01*
X210181Y147959D01*
X210815Y148222D01*
X211360Y148640D01*
X211778Y149185D01*
X212041Y149819D01*
X212130Y150500D01*
X212041Y151181D01*
X211778Y151815D01*
X211360Y152360D01*
X210815Y152778D01*
X210181Y153041D01*
X209500Y153130D01*
D02*
G37*
G36*
X199500D02*
X198819Y153041D01*
X198185Y152778D01*
X197640Y152360D01*
X197222Y151815D01*
X196959Y151181D01*
X196870Y150500D01*
X196959Y149819D01*
X197222Y149185D01*
X197640Y148640D01*
X198185Y148222D01*
X198819Y147959D01*
X199500Y147870D01*
X200181Y147959D01*
X200815Y148222D01*
X201360Y148640D01*
X201778Y149185D01*
X202041Y149819D01*
X202130Y150500D01*
X202041Y151181D01*
X201778Y151815D01*
X201360Y152360D01*
X200815Y152778D01*
X200181Y153041D01*
X199500Y153130D01*
D02*
G37*
G36*
X129000Y148386D02*
X128278Y148243D01*
X127666Y147834D01*
X127257Y147222D01*
X127114Y146500D01*
X127257Y145778D01*
X127666Y145166D01*
X128278Y144757D01*
X129000Y144614D01*
X129722Y144757D01*
X130334Y145166D01*
X130743Y145778D01*
X130886Y146500D01*
X130743Y147222D01*
X130334Y147834D01*
X129722Y148243D01*
X129000Y148386D01*
D02*
G37*
G36*
X133400Y145895D02*
Y144200D01*
X135095D01*
X135020Y144578D01*
X134522Y145322D01*
X133778Y145819D01*
X133400Y145895D01*
D02*
G37*
G36*
X132400D02*
X132022Y145819D01*
X131278Y145322D01*
X130780Y144578D01*
X130705Y144200D01*
X132400D01*
Y145895D01*
D02*
G37*
G36*
X231500Y145886D02*
X230778Y145743D01*
X230166Y145334D01*
X229757Y144722D01*
X229614Y144000D01*
X229757Y143278D01*
X230166Y142666D01*
X230778Y142257D01*
X231500Y142114D01*
X232222Y142257D01*
X232834Y142666D01*
X233243Y143278D01*
X233386Y144000D01*
X233243Y144722D01*
X232834Y145334D01*
X232222Y145743D01*
X231500Y145886D01*
D02*
G37*
G36*
X135095Y143200D02*
X133400D01*
Y141505D01*
X133778Y141580D01*
X134522Y142078D01*
X135020Y142822D01*
X135095Y143200D01*
D02*
G37*
G36*
X132400D02*
X130705D01*
X130780Y142822D01*
X131278Y142078D01*
X132022Y141580D01*
X132400Y141505D01*
Y143200D01*
D02*
G37*
G36*
X123400Y145186D02*
X122678Y145043D01*
X122066Y144634D01*
X121657Y144022D01*
X121514Y143300D01*
X121657Y142578D01*
X122066Y141966D01*
X122678Y141557D01*
X123400Y141414D01*
X124122Y141557D01*
X124734Y141966D01*
X125143Y142578D01*
X125286Y143300D01*
X125143Y144022D01*
X124734Y144634D01*
X124122Y145043D01*
X123400Y145186D01*
D02*
G37*
G36*
X100200Y144986D02*
X99478Y144843D01*
X98866Y144434D01*
X98457Y143822D01*
X98314Y143100D01*
X98457Y142378D01*
X98866Y141766D01*
X99478Y141357D01*
X100200Y141214D01*
X100922Y141357D01*
X101534Y141766D01*
X101943Y142378D01*
X102086Y143100D01*
X101943Y143822D01*
X101534Y144434D01*
X100922Y144843D01*
X100200Y144986D01*
D02*
G37*
G36*
X149100Y143086D02*
X148378Y142943D01*
X147766Y142534D01*
X147357Y141922D01*
X147214Y141200D01*
X147357Y140478D01*
X147766Y139866D01*
X148378Y139457D01*
X149100Y139314D01*
X149822Y139457D01*
X150434Y139866D01*
X150843Y140478D01*
X150986Y141200D01*
X150843Y141922D01*
X150434Y142534D01*
X149822Y142943D01*
X149100Y143086D01*
D02*
G37*
G36*
X209500Y143130D02*
X208819Y143041D01*
X208185Y142778D01*
X207640Y142360D01*
X207222Y141815D01*
X206959Y141181D01*
X206870Y140500D01*
X206959Y139819D01*
X207222Y139185D01*
X207640Y138640D01*
X208185Y138222D01*
X208819Y137959D01*
X209500Y137870D01*
X210181Y137959D01*
X210815Y138222D01*
X211360Y138640D01*
X211778Y139185D01*
X212041Y139819D01*
X212130Y140500D01*
X212041Y141181D01*
X211778Y141815D01*
X211360Y142360D01*
X210815Y142778D01*
X210181Y143041D01*
X209500Y143130D01*
D02*
G37*
G36*
X199500D02*
X198819Y143041D01*
X198185Y142778D01*
X197640Y142360D01*
X197222Y141815D01*
X196959Y141181D01*
X196870Y140500D01*
X196959Y139819D01*
X197222Y139185D01*
X197640Y138640D01*
X198185Y138222D01*
X198819Y137959D01*
X199500Y137870D01*
X200181Y137959D01*
X200815Y138222D01*
X201360Y138640D01*
X201778Y139185D01*
X202041Y139819D01*
X202130Y140500D01*
X202041Y141181D01*
X201778Y141815D01*
X201360Y142360D01*
X200815Y142778D01*
X200181Y143041D01*
X199500Y143130D01*
D02*
G37*
G36*
X126800Y132495D02*
Y130800D01*
X128495D01*
X128419Y131178D01*
X127922Y131922D01*
X127178Y132420D01*
X126800Y132495D01*
D02*
G37*
G36*
X125800D02*
X125422Y132420D01*
X124678Y131922D01*
X124180Y131178D01*
X124105Y130800D01*
X125800D01*
Y132495D01*
D02*
G37*
G36*
X28650Y136336D02*
X27825Y136228D01*
X27057Y135909D01*
X26397Y135403D01*
X25891Y134743D01*
X25572Y133975D01*
X25464Y133150D01*
X25572Y132325D01*
X25891Y131557D01*
X26397Y130897D01*
X27057Y130391D01*
X27825Y130072D01*
X28650Y129964D01*
X29475Y130072D01*
X30243Y130391D01*
X30903Y130897D01*
X31409Y131557D01*
X31728Y132325D01*
X31836Y133150D01*
X31728Y133975D01*
X31409Y134743D01*
X30903Y135403D01*
X30243Y135909D01*
X29475Y136228D01*
X28650Y136336D01*
D02*
G37*
G36*
X158700Y132586D02*
X157978Y132443D01*
X157366Y132034D01*
X156957Y131422D01*
X156814Y130700D01*
X156957Y129978D01*
X157366Y129366D01*
X157978Y128957D01*
X158700Y128814D01*
X159422Y128957D01*
X160034Y129366D01*
X160443Y129978D01*
X160586Y130700D01*
X160443Y131422D01*
X160034Y132034D01*
X159422Y132443D01*
X158700Y132586D01*
D02*
G37*
G36*
X128495Y129800D02*
X126800D01*
Y128105D01*
X127178Y128181D01*
X127922Y128678D01*
X128419Y129422D01*
X128495Y129800D01*
D02*
G37*
G36*
X125800D02*
X124105D01*
X124180Y129422D01*
X124678Y128678D01*
X125422Y128181D01*
X125800Y128105D01*
Y129800D01*
D02*
G37*
G36*
X209500Y133130D02*
X208819Y133041D01*
X208185Y132778D01*
X207640Y132360D01*
X207222Y131815D01*
X206959Y131181D01*
X206870Y130500D01*
X206959Y129819D01*
X207222Y129185D01*
X207640Y128640D01*
X208185Y128222D01*
X208819Y127959D01*
X209500Y127870D01*
X210181Y127959D01*
X210815Y128222D01*
X211360Y128640D01*
X211778Y129185D01*
X212041Y129819D01*
X212130Y130500D01*
X212041Y131181D01*
X211778Y131815D01*
X211360Y132360D01*
X210815Y132778D01*
X210181Y133041D01*
X209500Y133130D01*
D02*
G37*
G36*
X199500D02*
X198819Y133041D01*
X198185Y132778D01*
X197640Y132360D01*
X197222Y131815D01*
X196959Y131181D01*
X196870Y130500D01*
X196959Y129819D01*
X197222Y129185D01*
X197640Y128640D01*
X198185Y128222D01*
X198819Y127959D01*
X199500Y127870D01*
X200181Y127959D01*
X200815Y128222D01*
X201360Y128640D01*
X201778Y129185D01*
X202041Y129819D01*
X202130Y130500D01*
X202041Y131181D01*
X201778Y131815D01*
X201360Y132360D01*
X200815Y132778D01*
X200181Y133041D01*
X199500Y133130D01*
D02*
G37*
G36*
X200000Y123468D02*
Y121000D01*
X202468D01*
X202430Y121285D01*
X202127Y122017D01*
X201645Y122645D01*
X201017Y123127D01*
X200285Y123430D01*
X200000Y123468D01*
D02*
G37*
G36*
X199000D02*
X198715Y123430D01*
X197983Y123127D01*
X197355Y122645D01*
X196873Y122017D01*
X196570Y121285D01*
X196532Y121000D01*
X199000D01*
Y123468D01*
D02*
G37*
G36*
X209500Y123130D02*
X208819Y123041D01*
X208185Y122778D01*
X207640Y122360D01*
X207222Y121815D01*
X206959Y121181D01*
X206870Y120500D01*
X206959Y119819D01*
X207222Y119185D01*
X207640Y118640D01*
X208185Y118222D01*
X208819Y117959D01*
X209500Y117870D01*
X210181Y117959D01*
X210815Y118222D01*
X211360Y118640D01*
X211778Y119185D01*
X212041Y119819D01*
X212130Y120500D01*
X212041Y121181D01*
X211778Y121815D01*
X211360Y122360D01*
X210815Y122778D01*
X210181Y123041D01*
X209500Y123130D01*
D02*
G37*
G36*
X202468Y120000D02*
X200000D01*
Y117532D01*
X200285Y117570D01*
X201017Y117873D01*
X201645Y118355D01*
X202127Y118983D01*
X202430Y119715D01*
X202468Y120000D01*
D02*
G37*
G36*
X199000D02*
X196532D01*
X196570Y119715D01*
X196873Y118983D01*
X197355Y118355D01*
X197983Y117873D01*
X198715Y117570D01*
X199000Y117532D01*
Y120000D01*
D02*
G37*
G36*
X69500Y120886D02*
X68778Y120743D01*
X68166Y120334D01*
X67757Y119722D01*
X67614Y119000D01*
X67757Y118278D01*
X68166Y117666D01*
X68778Y117257D01*
X69500Y117114D01*
X70222Y117257D01*
X70834Y117666D01*
X71243Y118278D01*
X71386Y119000D01*
X71243Y119722D01*
X70834Y120334D01*
X70222Y120743D01*
X69500Y120886D01*
D02*
G37*
G36*
X170500Y119386D02*
X169778Y119243D01*
X169166Y118834D01*
X168757Y118222D01*
X168614Y117500D01*
X168757Y116778D01*
X169166Y116166D01*
X169639Y115850D01*
X169526Y115337D01*
X169148Y115299D01*
X167847Y114905D01*
X166648Y114264D01*
X166458Y114108D01*
X166003Y114381D01*
X166086Y114800D01*
X165943Y115522D01*
X165534Y116134D01*
X164922Y116543D01*
X164200Y116686D01*
X163478Y116543D01*
X162866Y116134D01*
X162457Y115522D01*
X162314Y114800D01*
X162457Y114078D01*
X162866Y113466D01*
X163478Y113057D01*
X164200Y112914D01*
X164619Y112997D01*
X164892Y112542D01*
X164736Y112352D01*
X164095Y111153D01*
X163701Y109853D01*
X163643Y109269D01*
X163169Y109224D01*
X163137Y109230D01*
X162734Y109834D01*
X162122Y110243D01*
X161400Y110386D01*
X160678Y110243D01*
X160066Y109834D01*
X159657Y109222D01*
X159514Y108500D01*
X159657Y107778D01*
X160066Y107166D01*
X160678Y106757D01*
X161400Y106614D01*
X162122Y106757D01*
X162734Y107166D01*
X163137Y107770D01*
X163169Y107776D01*
X163643Y107731D01*
X163701Y107148D01*
X164095Y105847D01*
X164736Y104648D01*
X164892Y104458D01*
X164619Y104003D01*
X164200Y104086D01*
X163478Y103943D01*
X162866Y103534D01*
X162457Y102922D01*
X162314Y102200D01*
X162457Y101478D01*
X162866Y100866D01*
X163478Y100457D01*
X164200Y100314D01*
X164922Y100457D01*
X165534Y100866D01*
X165943Y101478D01*
X166086Y102200D01*
X166003Y102619D01*
X166458Y102892D01*
X166648Y102736D01*
X167847Y102095D01*
X169148Y101701D01*
X169731Y101643D01*
X169776Y101169D01*
X169770Y101137D01*
X169166Y100734D01*
X168757Y100122D01*
X168614Y99400D01*
X168757Y98678D01*
X169166Y98066D01*
X169778Y97657D01*
X170500Y97514D01*
X171222Y97657D01*
X171834Y98066D01*
X172243Y98678D01*
X172386Y99400D01*
X172243Y100122D01*
X171834Y100734D01*
X171230Y101137D01*
X171224Y101169D01*
X171269Y101643D01*
X171853Y101701D01*
X173153Y102095D01*
X174352Y102736D01*
X174542Y102892D01*
X174997Y102619D01*
X174914Y102200D01*
X175057Y101478D01*
X175466Y100866D01*
X176078Y100457D01*
X176800Y100314D01*
X177522Y100457D01*
X178134Y100866D01*
X178543Y101478D01*
X178686Y102200D01*
X178543Y102922D01*
X178134Y103534D01*
X177522Y103943D01*
X176800Y104086D01*
X176381Y104003D01*
X176108Y104458D01*
X176264Y104648D01*
X176905Y105847D01*
X177299Y107148D01*
X177357Y107731D01*
X177831Y107776D01*
X177863Y107770D01*
X178266Y107166D01*
X178878Y106757D01*
X179600Y106614D01*
X180322Y106757D01*
X180934Y107166D01*
X181343Y107778D01*
X181486Y108500D01*
X181343Y109222D01*
X180934Y109834D01*
X180322Y110243D01*
X179600Y110386D01*
X178878Y110243D01*
X178266Y109834D01*
X177863Y109230D01*
X177831Y109224D01*
X177357Y109269D01*
X177299Y109853D01*
X176905Y111153D01*
X176264Y112352D01*
X176108Y112542D01*
X176381Y112997D01*
X176800Y112914D01*
X177522Y113057D01*
X178134Y113466D01*
X178543Y114078D01*
X178686Y114800D01*
X178543Y115522D01*
X178134Y116134D01*
X177522Y116543D01*
X176800Y116686D01*
X176078Y116543D01*
X175466Y116134D01*
X175057Y115522D01*
X174914Y114800D01*
X174997Y114381D01*
X174542Y114108D01*
X174352Y114264D01*
X173153Y114905D01*
X171853Y115299D01*
X171475Y115337D01*
X171361Y115850D01*
X171834Y116166D01*
X172243Y116778D01*
X172386Y117500D01*
X172243Y118222D01*
X171834Y118834D01*
X171222Y119243D01*
X170500Y119386D01*
D02*
G37*
G36*
X129100Y113895D02*
Y112200D01*
X130795D01*
X130719Y112578D01*
X130222Y113322D01*
X129478Y113820D01*
X129100Y113895D01*
D02*
G37*
G36*
X128100D02*
X127722Y113820D01*
X126978Y113322D01*
X126480Y112578D01*
X126405Y112200D01*
X128100D01*
Y113895D01*
D02*
G37*
G36*
X53000Y117386D02*
X52278Y117243D01*
X51666Y116834D01*
X51257Y116222D01*
X51114Y115500D01*
X51257Y114778D01*
X51666Y114166D01*
X52139Y113850D01*
X52026Y113337D01*
X51648Y113299D01*
X50347Y112905D01*
X49148Y112264D01*
X48958Y112108D01*
X48503Y112381D01*
X48586Y112800D01*
X48443Y113522D01*
X48034Y114134D01*
X47422Y114543D01*
X46700Y114686D01*
X45978Y114543D01*
X45366Y114134D01*
X44957Y113522D01*
X44814Y112800D01*
X44957Y112078D01*
X45366Y111466D01*
X45978Y111057D01*
X46700Y110914D01*
X47119Y110997D01*
X47392Y110542D01*
X47236Y110352D01*
X46595Y109153D01*
X46201Y107852D01*
X46143Y107269D01*
X45669Y107224D01*
X45637Y107230D01*
X45234Y107834D01*
X44622Y108243D01*
X43900Y108386D01*
X43178Y108243D01*
X42566Y107834D01*
X42157Y107222D01*
X42014Y106500D01*
X42157Y105778D01*
X42566Y105166D01*
X43178Y104757D01*
X43900Y104614D01*
X44622Y104757D01*
X45234Y105166D01*
X45637Y105770D01*
X45669Y105776D01*
X46143Y105731D01*
X46201Y105148D01*
X46595Y103847D01*
X47236Y102648D01*
X47392Y102458D01*
X47119Y102003D01*
X46700Y102086D01*
X45978Y101943D01*
X45366Y101534D01*
X44957Y100922D01*
X44814Y100200D01*
X44957Y99478D01*
X45366Y98866D01*
X45978Y98457D01*
X46700Y98314D01*
X47422Y98457D01*
X48034Y98866D01*
X48443Y99478D01*
X48586Y100200D01*
X48503Y100619D01*
X48958Y100892D01*
X49148Y100736D01*
X50347Y100095D01*
X51648Y99701D01*
X52231Y99643D01*
X52276Y99169D01*
X52270Y99137D01*
X51666Y98734D01*
X51257Y98122D01*
X51114Y97400D01*
X51257Y96678D01*
X51666Y96066D01*
X52278Y95657D01*
X53000Y95514D01*
X53722Y95657D01*
X54334Y96066D01*
X54743Y96678D01*
X54886Y97400D01*
X54743Y98122D01*
X54334Y98734D01*
X53730Y99137D01*
X53724Y99169D01*
X53769Y99643D01*
X54352Y99701D01*
X55653Y100095D01*
X56852Y100736D01*
X57042Y100892D01*
X57497Y100619D01*
X57414Y100200D01*
X57557Y99478D01*
X57966Y98866D01*
X58578Y98457D01*
X59300Y98314D01*
X60022Y98457D01*
X60634Y98866D01*
X61043Y99478D01*
X61186Y100200D01*
X61043Y100922D01*
X60634Y101534D01*
X60022Y101943D01*
X59300Y102086D01*
X58881Y102003D01*
X58608Y102458D01*
X58764Y102648D01*
X59405Y103847D01*
X59799Y105148D01*
X59857Y105731D01*
X60331Y105776D01*
X60363Y105770D01*
X60766Y105166D01*
X61378Y104757D01*
X62100Y104614D01*
X62822Y104757D01*
X63434Y105166D01*
X63843Y105778D01*
X63986Y106500D01*
X63843Y107222D01*
X63434Y107834D01*
X62822Y108243D01*
X62100Y108386D01*
X61378Y108243D01*
X60766Y107834D01*
X60363Y107230D01*
X60331Y107224D01*
X59857Y107269D01*
X59799Y107852D01*
X59405Y109153D01*
X58764Y110352D01*
X58608Y110542D01*
X58881Y110997D01*
X59300Y110914D01*
X60022Y111057D01*
X60634Y111466D01*
X61043Y112078D01*
X61186Y112800D01*
X61043Y113522D01*
X60634Y114134D01*
X60022Y114543D01*
X59300Y114686D01*
X58578Y114543D01*
X57966Y114134D01*
X57557Y113522D01*
X57414Y112800D01*
X57497Y112381D01*
X57042Y112108D01*
X56852Y112264D01*
X55653Y112905D01*
X54352Y113299D01*
X53974Y113337D01*
X53861Y113850D01*
X54334Y114166D01*
X54743Y114778D01*
X54886Y115500D01*
X54743Y116222D01*
X54334Y116834D01*
X53722Y117243D01*
X53000Y117386D01*
D02*
G37*
G36*
X130795Y111200D02*
X129100D01*
Y109505D01*
X129478Y109581D01*
X130222Y110078D01*
X130719Y110822D01*
X130795Y111200D01*
D02*
G37*
G36*
X128100D02*
X126405D01*
X126480Y110822D01*
X126978Y110078D01*
X127722Y109581D01*
X128100Y109505D01*
Y111200D01*
D02*
G37*
G36*
X231500Y112386D02*
X230778Y112243D01*
X230166Y111834D01*
X229757Y111222D01*
X229614Y110500D01*
X229757Y109778D01*
X230166Y109166D01*
X230778Y108757D01*
X231500Y108614D01*
X232222Y108757D01*
X232834Y109166D01*
X233243Y109778D01*
X233386Y110500D01*
X233243Y111222D01*
X232834Y111834D01*
X232222Y112243D01*
X231500Y112386D01*
D02*
G37*
G36*
X184300Y95786D02*
X183578Y95643D01*
X182966Y95234D01*
X182557Y94622D01*
X182414Y93900D01*
X182557Y93178D01*
X182966Y92566D01*
X183578Y92157D01*
X184300Y92014D01*
X185022Y92157D01*
X185634Y92566D01*
X186043Y93178D01*
X186186Y93900D01*
X186043Y94622D01*
X185634Y95234D01*
X185022Y95643D01*
X184300Y95786D01*
D02*
G37*
G36*
X107000Y94386D02*
X106278Y94243D01*
X105666Y93834D01*
X105257Y93222D01*
X105114Y92500D01*
X105257Y91778D01*
X105666Y91166D01*
X106278Y90757D01*
X107000Y90614D01*
X107722Y90757D01*
X108334Y91166D01*
X108743Y91778D01*
X108886Y92500D01*
X108743Y93222D01*
X108334Y93834D01*
X107722Y94243D01*
X107000Y94386D01*
D02*
G37*
G36*
X203300Y88495D02*
Y86800D01*
X204995D01*
X204920Y87178D01*
X204422Y87922D01*
X203678Y88419D01*
X203300Y88495D01*
D02*
G37*
G36*
X202300D02*
X201922Y88419D01*
X201178Y87922D01*
X200680Y87178D01*
X200605Y86800D01*
X202300D01*
Y88495D01*
D02*
G37*
G36*
X204995Y85800D02*
X203300D01*
Y84105D01*
X203678Y84181D01*
X204422Y84678D01*
X204920Y85422D01*
X204995Y85800D01*
D02*
G37*
G36*
X202300D02*
X200605D01*
X200680Y85422D01*
X201178Y84678D01*
X201922Y84181D01*
X202300Y84105D01*
Y85800D01*
D02*
G37*
G36*
X51698Y89159D02*
X45380D01*
Y82841D01*
X51698D01*
Y89159D01*
D02*
G37*
G36*
X28461Y89186D02*
X27636Y89078D01*
X26867Y88759D01*
X26208Y88253D01*
X25701Y87593D01*
X25383Y86825D01*
X25274Y86000D01*
X25383Y85175D01*
X25701Y84407D01*
X26208Y83747D01*
X26867Y83241D01*
X27636Y82922D01*
X28461Y82814D01*
X29285Y82922D01*
X30054Y83241D01*
X30714Y83747D01*
X31220Y84407D01*
X31538Y85175D01*
X31647Y86000D01*
X31538Y86825D01*
X31220Y87593D01*
X30714Y88253D01*
X30054Y88759D01*
X29285Y89078D01*
X28461Y89186D01*
D02*
G37*
G36*
X231500Y79886D02*
X230778Y79743D01*
X230166Y79334D01*
X229757Y78722D01*
X229614Y78000D01*
X229757Y77278D01*
X230166Y76666D01*
X230778Y76257D01*
X231500Y76114D01*
X232222Y76257D01*
X232834Y76666D01*
X233243Y77278D01*
X233386Y78000D01*
X233243Y78722D01*
X232834Y79334D01*
X232222Y79743D01*
X231500Y79886D01*
D02*
G37*
G36*
X137300Y78186D02*
X136578Y78043D01*
X135966Y77634D01*
X135557Y77022D01*
X135414Y76300D01*
X135557Y75578D01*
X135966Y74966D01*
X136578Y74557D01*
X137300Y74414D01*
X138022Y74557D01*
X138634Y74966D01*
X139043Y75578D01*
X139186Y76300D01*
X139043Y77022D01*
X138634Y77634D01*
X138022Y78043D01*
X137300Y78186D01*
D02*
G37*
G36*
X152700Y73086D02*
X151978Y72943D01*
X151366Y72534D01*
X150957Y71922D01*
X150814Y71200D01*
X150957Y70478D01*
X151366Y69866D01*
X151978Y69457D01*
X152700Y69314D01*
X153422Y69457D01*
X154034Y69866D01*
X154443Y70478D01*
X154586Y71200D01*
X154443Y71922D01*
X154034Y72534D01*
X153422Y72943D01*
X152700Y73086D01*
D02*
G37*
G36*
X216500Y76282D02*
X215521Y76153D01*
X214609Y75775D01*
X213826Y75174D01*
X213225Y74391D01*
X212847Y73479D01*
X212718Y72500D01*
X212847Y71521D01*
X213225Y70609D01*
X213826Y69826D01*
X214609Y69225D01*
X215521Y68847D01*
X216500Y68718D01*
X217479Y68847D01*
X218391Y69225D01*
X219174Y69826D01*
X219775Y70609D01*
X220153Y71521D01*
X220282Y72500D01*
X220153Y73479D01*
X219775Y74391D01*
X219174Y75174D01*
X218391Y75775D01*
X217479Y76153D01*
X216500Y76282D01*
D02*
G37*
G36*
X174600Y68186D02*
X173878Y68043D01*
X173266Y67634D01*
X172857Y67022D01*
X172714Y66300D01*
X172857Y65578D01*
X173266Y64966D01*
X173878Y64557D01*
X174600Y64414D01*
X175322Y64557D01*
X175934Y64966D01*
X176343Y65578D01*
X176486Y66300D01*
X176343Y67022D01*
X175934Y67634D01*
X175322Y68043D01*
X174600Y68186D01*
D02*
G37*
G36*
X216500Y66282D02*
X215521Y66153D01*
X214609Y65775D01*
X213826Y65174D01*
X213225Y64391D01*
X212847Y63479D01*
X212718Y62500D01*
X212847Y61521D01*
X213225Y60609D01*
X213826Y59826D01*
X214609Y59225D01*
X215521Y58847D01*
X216500Y58718D01*
X217479Y58847D01*
X218391Y59225D01*
X219174Y59826D01*
X219775Y60609D01*
X220153Y61521D01*
X220282Y62500D01*
X220153Y63479D01*
X219775Y64391D01*
X219174Y65174D01*
X218391Y65775D01*
X217479Y66153D01*
X216500Y66282D01*
D02*
G37*
G36*
X117421Y60745D02*
X116699Y60601D01*
X116087Y60192D01*
X115679Y59580D01*
X115535Y58858D01*
X115679Y58136D01*
X116087Y57525D01*
X116699Y57116D01*
X117421Y56972D01*
X118143Y57116D01*
X118755Y57525D01*
X119164Y58136D01*
X119307Y58858D01*
X119164Y59580D01*
X118755Y60192D01*
X118143Y60601D01*
X117421Y60745D01*
D02*
G37*
G36*
X180300Y55586D02*
X179578Y55443D01*
X178966Y55034D01*
X178557Y54422D01*
X178414Y53700D01*
X178557Y52978D01*
X178966Y52366D01*
X179578Y51957D01*
X180300Y51814D01*
X181022Y51957D01*
X181634Y52366D01*
X182043Y52978D01*
X182186Y53700D01*
X182043Y54422D01*
X181634Y55034D01*
X181022Y55443D01*
X180300Y55586D01*
D02*
G37*
G36*
X216500Y56282D02*
X215521Y56153D01*
X214609Y55775D01*
X213826Y55174D01*
X213225Y54391D01*
X212847Y53479D01*
X212718Y52500D01*
X212847Y51521D01*
X213225Y50609D01*
X213826Y49826D01*
X214609Y49225D01*
X215521Y48847D01*
X216500Y48718D01*
X217479Y48847D01*
X218391Y49225D01*
X219174Y49826D01*
X219775Y50609D01*
X220153Y51521D01*
X220282Y52500D01*
X220153Y53479D01*
X219775Y54391D01*
X219174Y55174D01*
X218391Y55775D01*
X217479Y56153D01*
X216500Y56282D01*
D02*
G37*
G36*
X199100Y49286D02*
X198378Y49143D01*
X197766Y48734D01*
X197357Y48122D01*
X197214Y47400D01*
X197357Y46678D01*
X197766Y46066D01*
X198378Y45657D01*
X199100Y45514D01*
X199822Y45657D01*
X200434Y46066D01*
X200843Y46678D01*
X200986Y47400D01*
X200843Y48122D01*
X200434Y48734D01*
X199822Y49143D01*
X199100Y49286D01*
D02*
G37*
G36*
X216500Y46282D02*
X215521Y46153D01*
X214609Y45775D01*
X213826Y45174D01*
X213225Y44391D01*
X212847Y43479D01*
X212718Y42500D01*
X212847Y41521D01*
X213225Y40609D01*
X213826Y39826D01*
X214609Y39225D01*
X215521Y38847D01*
X216500Y38718D01*
X217479Y38847D01*
X218391Y39225D01*
X219174Y39826D01*
X219775Y40609D01*
X220153Y41521D01*
X220282Y42500D01*
X220153Y43479D01*
X219775Y44391D01*
X219174Y45174D01*
X218391Y45775D01*
X217479Y46153D01*
X216500Y46282D01*
D02*
G37*
G36*
X35447Y45643D02*
X25979D01*
Y38538D01*
X35447D01*
Y45643D01*
D02*
G37*
G36*
X123819Y39977D02*
X123097Y39833D01*
X122485Y39424D01*
X122076Y38812D01*
X121933Y38091D01*
X122076Y37369D01*
X122485Y36757D01*
X123097Y36348D01*
X123819Y36204D01*
X124541Y36348D01*
X125153Y36757D01*
X125562Y37369D01*
X125705Y38091D01*
X125562Y38812D01*
X125153Y39424D01*
X124541Y39833D01*
X123819Y39977D01*
D02*
G37*
G36*
X216500Y36282D02*
X215521Y36153D01*
X214609Y35775D01*
X213826Y35174D01*
X213225Y34391D01*
X212847Y33479D01*
X212718Y32500D01*
X212847Y31521D01*
X213225Y30609D01*
X213826Y29826D01*
X214609Y29225D01*
X215521Y28847D01*
X216500Y28718D01*
X217479Y28847D01*
X218391Y29225D01*
X219174Y29826D01*
X219775Y30609D01*
X220153Y31521D01*
X220282Y32500D01*
X220153Y33479D01*
X219775Y34391D01*
X219174Y35174D01*
X218391Y35775D01*
X217479Y36153D01*
X216500Y36282D01*
D02*
G37*
G36*
X52769Y35013D02*
X45664D01*
Y25546D01*
X52769D01*
Y35013D01*
D02*
G37*
G36*
X220250Y26250D02*
X212750D01*
Y18750D01*
X220250D01*
Y26250D01*
D02*
G37*
G36*
X35447Y22021D02*
X25979D01*
Y14916D01*
X35447D01*
Y22021D01*
D02*
G37*
G36*
X231500Y6386D02*
X230778Y6243D01*
X230166Y5834D01*
X229757Y5222D01*
X229614Y4500D01*
X229757Y3778D01*
X230166Y3166D01*
X230778Y2757D01*
X231500Y2614D01*
X232222Y2757D01*
X232834Y3166D01*
X233243Y3778D01*
X233386Y4500D01*
X233243Y5222D01*
X232834Y5834D01*
X232222Y6243D01*
X231500Y6386D01*
D02*
G37*
G36*
X206500D02*
X205778Y6243D01*
X205166Y5834D01*
X204757Y5222D01*
X204614Y4500D01*
X204757Y3778D01*
X205166Y3166D01*
X205778Y2757D01*
X206500Y2614D01*
X207222Y2757D01*
X207834Y3166D01*
X208243Y3778D01*
X208386Y4500D01*
X208243Y5222D01*
X207834Y5834D01*
X207222Y6243D01*
X206500Y6386D01*
D02*
G37*
G36*
X175000D02*
X174278Y6243D01*
X173666Y5834D01*
X173257Y5222D01*
X173114Y4500D01*
X173257Y3778D01*
X173666Y3166D01*
X174278Y2757D01*
X175000Y2614D01*
X175722Y2757D01*
X176334Y3166D01*
X176743Y3778D01*
X176886Y4500D01*
X176743Y5222D01*
X176334Y5834D01*
X175722Y6243D01*
X175000Y6386D01*
D02*
G37*
G36*
X142500D02*
X141778Y6243D01*
X141166Y5834D01*
X140757Y5222D01*
X140614Y4500D01*
X140757Y3778D01*
X141166Y3166D01*
X141778Y2757D01*
X142500Y2614D01*
X143222Y2757D01*
X143834Y3166D01*
X144243Y3778D01*
X144386Y4500D01*
X144243Y5222D01*
X143834Y5834D01*
X143222Y6243D01*
X142500Y6386D01*
D02*
G37*
G36*
X104000D02*
X103278Y6243D01*
X102666Y5834D01*
X102257Y5222D01*
X102114Y4500D01*
X102257Y3778D01*
X102666Y3166D01*
X103278Y2757D01*
X104000Y2614D01*
X104722Y2757D01*
X105334Y3166D01*
X105743Y3778D01*
X105886Y4500D01*
X105743Y5222D01*
X105334Y5834D01*
X104722Y6243D01*
X104000Y6386D01*
D02*
G37*
G36*
X72500D02*
X71778Y6243D01*
X71166Y5834D01*
X70757Y5222D01*
X70614Y4500D01*
X70757Y3778D01*
X71166Y3166D01*
X71778Y2757D01*
X72500Y2614D01*
X73222Y2757D01*
X73834Y3166D01*
X74243Y3778D01*
X74386Y4500D01*
X74243Y5222D01*
X73834Y5834D01*
X73222Y6243D01*
X72500Y6386D01*
D02*
G37*
G36*
X40000D02*
X39278Y6243D01*
X38666Y5834D01*
X38257Y5222D01*
X38114Y4500D01*
X38257Y3778D01*
X38666Y3166D01*
X39278Y2757D01*
X40000Y2614D01*
X40722Y2757D01*
X41334Y3166D01*
X41743Y3778D01*
X41886Y4500D01*
X41743Y5222D01*
X41334Y5834D01*
X40722Y6243D01*
X40000Y6386D01*
D02*
G37*
%LPD*%
D15*
X130000Y156000D02*
X148000D01*
X128000Y158000D02*
X130000Y156000D01*
X123000Y158000D02*
X128000D01*
D111*
X199500Y120500D02*
D03*
X209500Y207000D02*
D03*
D119*
X148000Y156000D02*
D03*
X123000Y158000D02*
D03*
X86800Y206000D02*
D03*
X132900Y143700D02*
D03*
X120500Y206700D02*
D03*
X155100Y170100D02*
D03*
X135500Y151300D02*
D03*
X126300Y130300D02*
D03*
X128600Y111700D02*
D03*
X84500Y153586D02*
D03*
X80800Y174800D02*
D03*
X127000Y181700D02*
D03*
X202800Y86300D02*
D03*
M02*
