G04*
G04 #@! TF.GenerationSoftware,Altium Limited,Altium Designer,19.1.8 (144)*
G04*
G04 Layer_Color=8421504*
%FSLAX25Y25*%
%MOIN*%
G70*
G01*
G75*
%ADD19R,0.02488X0.02976*%
%ADD20R,0.02953X0.03150*%
%ADD21R,0.01968X0.02284*%
%ADD22R,0.01968X0.02559*%
%ADD23R,0.02362X0.01968*%
G04:AMPARAMS|DCode=24|XSize=9.84mil|YSize=19.68mil|CornerRadius=1.97mil|HoleSize=0mil|Usage=FLASHONLY|Rotation=180.000|XOffset=0mil|YOffset=0mil|HoleType=Round|Shape=RoundedRectangle|*
%AMROUNDEDRECTD24*
21,1,0.00984,0.01575,0,0,180.0*
21,1,0.00591,0.01968,0,0,180.0*
1,1,0.00394,-0.00295,0.00787*
1,1,0.00394,0.00295,0.00787*
1,1,0.00394,0.00295,-0.00787*
1,1,0.00394,-0.00295,-0.00787*
%
%ADD24ROUNDEDRECTD24*%
%ADD25R,0.03347X0.02953*%
%ADD26R,0.02756X0.03347*%
%ADD27R,0.03150X0.02362*%
%ADD28R,0.02756X0.03543*%
%ADD29R,0.03543X0.02756*%
%ADD30R,0.01968X0.02362*%
%ADD31R,0.02953X0.03150*%
%ADD32R,0.03150X0.02953*%
%ADD33R,0.06693X0.03150*%
%ADD34R,0.01968X0.04528*%
%ADD35R,0.02953X0.03347*%
%ADD36R,0.03150X0.03543*%
%ADD37R,0.03150X0.03150*%
%ADD38R,0.03347X0.01772*%
%ADD39R,0.03071X0.03465*%
%ADD40R,0.03937X0.07087*%
%ADD41O,0.00787X0.03740*%
%ADD42O,0.03740X0.00787*%
%ADD43R,0.18110X0.18110*%
%ADD44R,0.05315X0.04134*%
%ADD45R,0.03740X0.10630*%
%ADD46R,0.05512X0.10630*%
%ADD47R,0.02756X0.04724*%
%ADD48R,0.07874X0.20866*%
G04:AMPARAMS|DCode=49|XSize=25.59mil|YSize=47.24mil|CornerRadius=1.92mil|HoleSize=0mil|Usage=FLASHONLY|Rotation=90.000|XOffset=0mil|YOffset=0mil|HoleType=Round|Shape=RoundedRectangle|*
%AMROUNDEDRECTD49*
21,1,0.02559,0.04341,0,0,90.0*
21,1,0.02175,0.04724,0,0,90.0*
1,1,0.00384,0.02170,0.01088*
1,1,0.00384,0.02170,-0.01088*
1,1,0.00384,-0.02170,-0.01088*
1,1,0.00384,-0.02170,0.01088*
%
%ADD49ROUNDEDRECTD49*%
%ADD50R,0.04724X0.04724*%
%ADD51R,0.05906X0.06299*%
%ADD52R,0.04921X0.04803*%
%ADD53R,0.06890X0.02559*%
D19*
X170000Y47240D02*
D03*
X166724Y47240D02*
D03*
X173276D02*
D03*
X97576Y124800D02*
D03*
X91024D02*
D03*
X94300Y124800D02*
D03*
D20*
X99465Y246802D02*
D03*
X107535D02*
D03*
X99465Y239321D02*
D03*
X107535D02*
D03*
D21*
X103500Y247628D02*
D03*
Y238494D02*
D03*
D22*
X103535Y218270D02*
D03*
Y222010D02*
D03*
D23*
X106417Y164500D02*
D03*
X110354D02*
D03*
X102354D02*
D03*
X98417D02*
D03*
X99528Y214124D02*
D03*
X103465D02*
D03*
X107468Y233800D02*
D03*
X103532D02*
D03*
X79408Y212500D02*
D03*
X75471D02*
D03*
X103545Y253796D02*
D03*
X107482D02*
D03*
D24*
X166063Y50980D02*
D03*
X168032D02*
D03*
X170000D02*
D03*
X171968D02*
D03*
X173937D02*
D03*
Y43500D02*
D03*
X171968D02*
D03*
X170000D02*
D03*
X168032D02*
D03*
X166063D02*
D03*
X90363Y121060D02*
D03*
X92331D02*
D03*
X94300D02*
D03*
X96268D02*
D03*
X98237D02*
D03*
Y128540D02*
D03*
X96268D02*
D03*
X94300D02*
D03*
X92331D02*
D03*
X90363D02*
D03*
D25*
X204000Y58039D02*
D03*
Y62961D02*
D03*
X127600Y202741D02*
D03*
Y207859D02*
D03*
D26*
X119161Y87200D02*
D03*
X114239D02*
D03*
X95239Y47200D02*
D03*
X100161D02*
D03*
X144754Y174269D02*
D03*
X149676D02*
D03*
D27*
X181000Y43685D02*
D03*
Y48803D02*
D03*
X187500Y43685D02*
D03*
Y48803D02*
D03*
X106300Y126859D02*
D03*
Y121741D02*
D03*
D28*
X129103Y136300D02*
D03*
X123591D02*
D03*
D29*
X114300Y121544D02*
D03*
Y127056D02*
D03*
D30*
X68200Y223369D02*
D03*
Y219431D02*
D03*
X92100Y172900D02*
D03*
Y168963D02*
D03*
X88900Y214131D02*
D03*
Y218069D02*
D03*
X93235Y214135D02*
D03*
Y218072D02*
D03*
D31*
X75300Y188600D02*
D03*
X69985D02*
D03*
Y183400D02*
D03*
X75300D02*
D03*
X119457Y80900D02*
D03*
X114143D02*
D03*
X100600Y40600D02*
D03*
X95285D02*
D03*
X78742Y33400D02*
D03*
X84057D02*
D03*
D32*
X87400Y169285D02*
D03*
Y174600D02*
D03*
X81300Y188643D02*
D03*
Y193957D02*
D03*
X101500Y72158D02*
D03*
Y66843D02*
D03*
X134800Y65943D02*
D03*
Y71258D02*
D03*
D33*
X144000Y215993D02*
D03*
Y202607D02*
D03*
D34*
X144814Y129706D02*
D03*
X141959D02*
D03*
X139105D02*
D03*
X136251D02*
D03*
X144814Y111989D02*
D03*
X141959D02*
D03*
X139105D02*
D03*
X136251D02*
D03*
D35*
X144918Y148800D02*
D03*
X139800D02*
D03*
X141859Y140800D02*
D03*
X136741D02*
D03*
X104941Y136700D02*
D03*
X110059D02*
D03*
X180500Y58500D02*
D03*
X185618D02*
D03*
D36*
X180400Y77069D02*
D03*
X176660Y85731D02*
D03*
X184140D02*
D03*
D37*
X137022Y174269D02*
D03*
X131116D02*
D03*
D38*
X119700Y183653D02*
D03*
Y177747D02*
D03*
D39*
X75376Y218585D02*
D03*
Y224215D02*
D03*
X79824Y218585D02*
D03*
Y224215D02*
D03*
D40*
X99200Y171200D02*
D03*
X109043D02*
D03*
D41*
X92073Y182490D02*
D03*
X93648D02*
D03*
X95223D02*
D03*
X96798D02*
D03*
X98372D02*
D03*
X99947D02*
D03*
X101522D02*
D03*
X103097D02*
D03*
X104672D02*
D03*
X106246D02*
D03*
X107821D02*
D03*
X109396D02*
D03*
Y205718D02*
D03*
X107821D02*
D03*
X106246D02*
D03*
X104672D02*
D03*
X103097D02*
D03*
X101522D02*
D03*
X99947D02*
D03*
X98372D02*
D03*
X96798D02*
D03*
X95223D02*
D03*
X93648D02*
D03*
X92073D02*
D03*
D42*
X112349Y185442D02*
D03*
Y187017D02*
D03*
Y188592D02*
D03*
Y190167D02*
D03*
Y191742D02*
D03*
Y193316D02*
D03*
Y194891D02*
D03*
Y196466D02*
D03*
Y198041D02*
D03*
Y199616D02*
D03*
Y201191D02*
D03*
Y202765D02*
D03*
X89121D02*
D03*
Y201191D02*
D03*
Y199616D02*
D03*
Y198041D02*
D03*
Y196466D02*
D03*
Y194891D02*
D03*
Y193316D02*
D03*
Y191742D02*
D03*
Y190167D02*
D03*
Y188592D02*
D03*
Y187017D02*
D03*
Y185442D02*
D03*
D43*
X100735Y194104D02*
D03*
D44*
X81700Y128553D02*
D03*
Y122647D02*
D03*
X157600Y51253D02*
D03*
Y45347D02*
D03*
D45*
X91398Y139500D02*
D03*
X78602D02*
D03*
X166898Y62500D02*
D03*
X154102D02*
D03*
D46*
X81473Y110300D02*
D03*
X92300D02*
D03*
X157173Y32000D02*
D03*
X168000D02*
D03*
D47*
X28600Y113284D02*
D03*
Y98716D02*
D03*
D48*
X24917Y63000D02*
D03*
X52083D02*
D03*
D49*
X122607Y71240D02*
D03*
Y63760D02*
D03*
X110993D02*
D03*
Y67500D02*
D03*
Y71240D02*
D03*
D50*
X123787Y46163D02*
D03*
Y54037D02*
D03*
X110713Y31637D02*
D03*
Y23763D02*
D03*
D51*
X110991Y50100D02*
D03*
X123509Y27700D02*
D03*
D52*
X82507Y85800D02*
D03*
X70893D02*
D03*
D53*
X86324Y42200D02*
D03*
Y47200D02*
D03*
Y52200D02*
D03*
Y57200D02*
D03*
X64276Y42200D02*
D03*
Y47200D02*
D03*
Y52200D02*
D03*
Y57200D02*
D03*
M02*
