G04*
G04 #@! TF.GenerationSoftware,Altium Limited,Altium Designer,19.1.8 (144)*
G04*
G04 Layer_Physical_Order=1*
G04 Layer_Color=255*
%FSLAX25Y25*%
%MOIN*%
G70*
G01*
G75*
%ADD15C,0.00600*%
%ADD17C,0.01000*%
%ADD18C,0.00800*%
%ADD20R,0.02953X0.03150*%
%ADD21R,0.01968X0.02284*%
%ADD22R,0.01968X0.02559*%
%ADD23R,0.02362X0.01968*%
G04:AMPARAMS|DCode=24|XSize=9.84mil|YSize=19.68mil|CornerRadius=1.97mil|HoleSize=0mil|Usage=FLASHONLY|Rotation=180.000|XOffset=0mil|YOffset=0mil|HoleType=Round|Shape=RoundedRectangle|*
%AMROUNDEDRECTD24*
21,1,0.00984,0.01575,0,0,180.0*
21,1,0.00591,0.01968,0,0,180.0*
1,1,0.00394,-0.00295,0.00787*
1,1,0.00394,0.00295,0.00787*
1,1,0.00394,0.00295,-0.00787*
1,1,0.00394,-0.00295,-0.00787*
%
%ADD24ROUNDEDRECTD24*%
%ADD25R,0.03347X0.02953*%
%ADD26R,0.02756X0.03347*%
%ADD27R,0.03150X0.02362*%
%ADD28R,0.02756X0.03543*%
%ADD29R,0.03543X0.02756*%
%ADD30R,0.01968X0.02362*%
%ADD31R,0.02953X0.03150*%
%ADD32R,0.03150X0.02953*%
%ADD33R,0.06693X0.03150*%
%ADD34R,0.01968X0.04528*%
%ADD35R,0.02953X0.03347*%
%ADD36R,0.03150X0.03543*%
%ADD37R,0.03150X0.03150*%
%ADD38R,0.03347X0.01772*%
%ADD39R,0.03071X0.03465*%
%ADD40R,0.03937X0.07087*%
%ADD41O,0.00787X0.03740*%
%ADD42O,0.03740X0.00787*%
%ADD43R,0.18110X0.18110*%
%ADD44R,0.05315X0.04134*%
%ADD45R,0.03740X0.10630*%
%ADD46R,0.05512X0.10630*%
%ADD47R,0.02756X0.04724*%
%ADD48R,0.07874X0.20866*%
G04:AMPARAMS|DCode=49|XSize=25.59mil|YSize=47.24mil|CornerRadius=1.92mil|HoleSize=0mil|Usage=FLASHONLY|Rotation=90.000|XOffset=0mil|YOffset=0mil|HoleType=Round|Shape=RoundedRectangle|*
%AMROUNDEDRECTD49*
21,1,0.02559,0.04341,0,0,90.0*
21,1,0.02175,0.04724,0,0,90.0*
1,1,0.00384,0.02170,0.01088*
1,1,0.00384,0.02170,-0.01088*
1,1,0.00384,-0.02170,-0.01088*
1,1,0.00384,-0.02170,0.01088*
%
%ADD49ROUNDEDRECTD49*%
%ADD50R,0.04724X0.04724*%
%ADD51R,0.05906X0.06299*%
%ADD52R,0.04921X0.04803*%
%ADD53R,0.06890X0.02559*%
%ADD101R,0.01811X0.00394*%
%ADD102R,0.04173X0.00394*%
G04:AMPARAMS|DCode=103|XSize=33.07mil|YSize=94.49mil|CornerRadius=1.98mil|HoleSize=0mil|Usage=FLASHONLY|Rotation=90.000|XOffset=0mil|YOffset=0mil|HoleType=Round|Shape=RoundedRectangle|*
%AMROUNDEDRECTD103*
21,1,0.03307,0.09052,0,0,90.0*
21,1,0.02910,0.09449,0,0,90.0*
1,1,0.00397,0.04526,0.01455*
1,1,0.00397,0.04526,-0.01455*
1,1,0.00397,-0.04526,-0.01455*
1,1,0.00397,-0.04526,0.01455*
%
%ADD103ROUNDEDRECTD103*%
%ADD104C,0.03000*%
%ADD105C,0.02000*%
%ADD106C,0.02500*%
%ADD107C,0.01500*%
%ADD108C,0.31496*%
%ADD109C,0.04016*%
%ADD110C,0.12598*%
%ADD111R,0.05906X0.08268*%
%ADD112R,0.08268X0.05906*%
%ADD113C,0.06299*%
%ADD114R,0.06299X0.06299*%
%ADD115C,0.05118*%
%ADD116R,0.05118X0.05118*%
%ADD117C,0.02500*%
%ADD118C,0.01968*%
G36*
X161453Y297441D02*
X96886D01*
Y290354D01*
X100823D01*
Y287756D01*
X104405Y284173D01*
Y275000D01*
X102594D01*
Y283110D01*
X100114Y285591D01*
X88224D01*
Y290354D01*
X92161D01*
Y293504D01*
X69327D01*
Y282992D01*
X100823D01*
Y275000D01*
X100673D01*
X101070Y274500D01*
X100951Y273900D01*
Y255400D01*
X101145Y254425D01*
X101295Y254200D01*
X101206Y253751D01*
Y248376D01*
X100941D01*
X100941Y245227D01*
X106059D01*
X106059Y248376D01*
X105794D01*
Y253751D01*
X105726Y254092D01*
Y254232D01*
X105855Y254425D01*
X106049Y255400D01*
Y273900D01*
X105930Y274500D01*
X106327Y275000D01*
X234000D01*
Y2000D01*
X2000D01*
Y275000D01*
X88224D01*
Y277913D01*
X60744D01*
Y302205D01*
X161453D01*
Y297441D01*
D02*
G37*
%LPC*%
G36*
X96610Y277913D02*
X92437D01*
Y275000D01*
X96610D01*
Y277913D01*
D02*
G37*
G36*
X199500Y250034D02*
X198715Y249931D01*
X197983Y249627D01*
X197355Y249145D01*
X196873Y248517D01*
X196570Y247785D01*
X196466Y247000D01*
X196570Y246215D01*
X196649Y246023D01*
X193363Y242737D01*
X193075Y242307D01*
X192974Y241800D01*
Y226749D01*
X183475Y217249D01*
X182948Y217430D01*
X182819Y218078D01*
X182322Y218822D01*
X181578Y219320D01*
X180700Y219494D01*
X179822Y219320D01*
X179078Y218822D01*
X178580Y218078D01*
X178406Y217200D01*
X178475Y216850D01*
X175551Y213926D01*
X111000D01*
X110493Y213825D01*
X110063Y213537D01*
X106884Y210359D01*
X106597Y209928D01*
X106496Y209421D01*
Y208820D01*
X106246Y208615D01*
X105703Y208507D01*
X105459Y208345D01*
X105215Y208507D01*
X104672Y208615D01*
X104348Y208551D01*
X104169Y208643D01*
X104071Y209253D01*
X104509Y209691D01*
X104509Y209691D01*
X104819Y210154D01*
X104910Y210613D01*
X104977Y210658D01*
X105419Y211320D01*
X105575Y212100D01*
Y212139D01*
X105646D01*
Y216108D01*
X105575D01*
Y218270D01*
X105520Y218546D01*
Y220733D01*
X105855Y221235D01*
X106049Y222210D01*
Y231200D01*
X105855Y232175D01*
X105713Y232388D01*
Y235784D01*
X105539D01*
Y237747D01*
X106059D01*
X106059Y240896D01*
X100941D01*
X100941Y237747D01*
X101461D01*
Y235784D01*
X101350D01*
Y232483D01*
X101145Y232175D01*
X100951Y231200D01*
Y222210D01*
X101145Y221235D01*
X101551Y220627D01*
Y218546D01*
X101496Y218270D01*
Y216108D01*
X101284D01*
Y212139D01*
X101496D01*
Y212100D01*
X101652Y211320D01*
X101831Y211050D01*
X100513Y209731D01*
X100203Y209268D01*
X100162Y209061D01*
X99662Y209110D01*
Y209963D01*
X99561Y210471D01*
X99274Y210901D01*
X95219Y214956D01*
Y216317D01*
X91383D01*
X91250Y216317D01*
Y216317D01*
X90884Y216313D01*
Y216313D01*
X86916D01*
Y212388D01*
X86916Y212166D01*
X86416Y211959D01*
X85725Y212649D01*
Y220500D01*
X85625Y221007D01*
X85337Y221437D01*
X84437Y222337D01*
X84007Y222625D01*
X83500Y222726D01*
X82360D01*
Y226947D01*
X72840D01*
Y225186D01*
X70184D01*
Y225550D01*
X66216D01*
Y221187D01*
X70184D01*
Y222535D01*
X72840D01*
Y221817D01*
X72840Y221483D01*
X72840D01*
Y221317D01*
X72840D01*
Y215853D01*
X78575D01*
Y214484D01*
X77227D01*
Y210516D01*
X81589D01*
X81989Y210273D01*
X82263Y209863D01*
X84463Y207663D01*
X84560Y207598D01*
X84721Y206939D01*
X84681Y206878D01*
X84506Y206000D01*
X84681Y205122D01*
X85036Y204591D01*
X84776Y204091D01*
X81002D01*
X80994Y204100D01*
X80819Y204978D01*
X80322Y205722D01*
X79578Y206220D01*
X78700Y206394D01*
X77822Y206220D01*
X77078Y205722D01*
X76581Y204978D01*
X76406Y204100D01*
X76581Y203222D01*
X76980Y202624D01*
X76978Y202622D01*
X76481Y201878D01*
X76306Y201000D01*
X76481Y200122D01*
X76978Y199378D01*
X77722Y198881D01*
X78600Y198706D01*
X79036Y198793D01*
X79496Y198800D01*
X79580Y198430D01*
X79681Y197922D01*
X80178Y197178D01*
X80922Y196680D01*
X81800Y196506D01*
X82497Y196644D01*
X82581Y196222D01*
X83078Y195478D01*
X83822Y194981D01*
X84700Y194806D01*
X85578Y194981D01*
X85755Y195099D01*
X85989Y194995D01*
X86237Y194820D01*
X86331Y194348D01*
X86494Y194104D01*
X86331Y193860D01*
X86223Y193316D01*
X86331Y192773D01*
X86494Y192529D01*
X86331Y192286D01*
X86223Y191742D01*
X86331Y191198D01*
X86639Y190737D01*
X86721Y190683D01*
X86865Y190005D01*
X86806Y189918D01*
X83875D01*
Y191119D01*
X78725D01*
Y189968D01*
X77776D01*
Y191175D01*
X72961D01*
X72824Y191175D01*
X72461D01*
X72324Y191175D01*
X67509D01*
Y186025D01*
X67509D01*
Y185975D01*
X67509D01*
Y180825D01*
X72324D01*
X72461Y180825D01*
X72824D01*
X72961Y180825D01*
X77776D01*
Y182074D01*
X81800D01*
X82307Y182175D01*
X82737Y182463D01*
X85580Y185305D01*
X86053Y185124D01*
X86075Y185094D01*
X85973Y184578D01*
X85973Y184578D01*
Y177076D01*
X84825D01*
Y176027D01*
X82686D01*
X82422Y176422D01*
X81678Y176919D01*
X80800Y177094D01*
X79922Y176919D01*
X79178Y176422D01*
X78681Y175678D01*
X78506Y174800D01*
X78681Y173922D01*
X79178Y173178D01*
X79922Y172680D01*
X80800Y172506D01*
X81678Y172680D01*
X82414Y173173D01*
X84825D01*
Y172124D01*
X89975D01*
X90116Y171682D01*
Y170719D01*
X94084D01*
Y174434D01*
X94584Y174641D01*
X95820Y173405D01*
X96232Y173130D01*
Y166982D01*
X96232Y166657D01*
X96232D01*
X96236Y166484D01*
X96236D01*
Y162516D01*
X100598D01*
Y166484D01*
X101027Y166657D01*
X102169D01*
Y174250D01*
X102668Y174457D01*
X103974Y173151D01*
Y171451D01*
X104075Y170944D01*
X104363Y170514D01*
X104714Y170163D01*
X105144Y169875D01*
X105651Y169774D01*
X106074D01*
Y166657D01*
X107745D01*
X108173Y166484D01*
Y162516D01*
X112535D01*
Y166484D01*
X112440D01*
X112011Y166657D01*
Y173761D01*
X112473Y173952D01*
X129375Y157051D01*
Y150700D01*
X129475Y150193D01*
X129763Y149763D01*
X133100Y146425D01*
X132837Y145982D01*
X132022Y145819D01*
X131614Y145547D01*
X131164Y145848D01*
X131294Y146500D01*
X131120Y147378D01*
X130622Y148122D01*
X129878Y148619D01*
X129000Y148794D01*
X128122Y148619D01*
X127378Y148122D01*
X126881Y147378D01*
X126706Y146500D01*
X126881Y145622D01*
X127378Y144878D01*
X127778Y144611D01*
Y139072D01*
X126725D01*
Y133528D01*
X131481D01*
Y134975D01*
X136651D01*
X137780Y133846D01*
Y132969D01*
X137121D01*
Y126442D01*
X146798D01*
Y132969D01*
X146139D01*
Y146127D01*
X147395D01*
Y151473D01*
X144601D01*
X142937Y153137D01*
X142507Y153425D01*
X142000Y153525D01*
X138349D01*
X134516Y157359D01*
X134661Y157837D01*
X134878Y157880D01*
X135622Y158378D01*
X136119Y159122D01*
X136294Y160000D01*
X136224Y160350D01*
X138767Y162892D01*
X139054Y163322D01*
X139095Y163525D01*
X139622Y163878D01*
X140120Y164622D01*
X140294Y165500D01*
X140120Y166378D01*
X139622Y167122D01*
X138878Y167620D01*
X138000Y167794D01*
X137122Y167620D01*
X136378Y167122D01*
X135880Y166378D01*
X135706Y165500D01*
X135880Y164622D01*
X136228Y164102D01*
X134350Y162224D01*
X134000Y162294D01*
X133122Y162119D01*
X132378Y161622D01*
X131880Y160878D01*
X131837Y160661D01*
X131359Y160516D01*
X119362Y172513D01*
X119553Y172975D01*
X128542D01*
Y171695D01*
X133691D01*
Y176844D01*
X128542D01*
Y175626D01*
X118749D01*
X115784Y178591D01*
X115952Y179130D01*
X116622Y179578D01*
X117120Y180322D01*
X117294Y181200D01*
X117258Y181380D01*
X117575Y181767D01*
X122373D01*
Y182225D01*
X124394D01*
X124734Y181840D01*
X124706Y181700D01*
X124881Y180822D01*
X125378Y180078D01*
X126122Y179580D01*
X127000Y179406D01*
X127878Y179580D01*
X128622Y180078D01*
X129120Y180822D01*
X129294Y181700D01*
X129120Y182578D01*
X128622Y183322D01*
X127878Y183819D01*
X127000Y183994D01*
X126770Y183948D01*
X126057Y184662D01*
X125593Y184971D01*
X125047Y185080D01*
X125047Y185080D01*
X122577D01*
X122539Y185304D01*
X122967Y185692D01*
X153234D01*
X194463Y144463D01*
X194893Y144175D01*
X195400Y144074D01*
X204051D01*
X206649Y141477D01*
X206570Y141285D01*
X206466Y140500D01*
X206570Y139715D01*
X206873Y138983D01*
X207355Y138355D01*
X207983Y137873D01*
X208715Y137570D01*
X209500Y137466D01*
X210285Y137570D01*
X211017Y137873D01*
X211645Y138355D01*
X212127Y138983D01*
X212431Y139715D01*
X212534Y140500D01*
X212431Y141285D01*
X212127Y142017D01*
X211645Y142645D01*
X211017Y143127D01*
X210285Y143430D01*
X209500Y143534D01*
X208715Y143430D01*
X208523Y143351D01*
X205537Y146337D01*
X205107Y146625D01*
X204600Y146725D01*
X195949D01*
X193962Y148713D01*
X194153Y149174D01*
X196793D01*
X196873Y148983D01*
X197355Y148355D01*
X197983Y147873D01*
X198715Y147570D01*
X199500Y147466D01*
X200285Y147570D01*
X201017Y147873D01*
X201645Y148355D01*
X202127Y148983D01*
X202430Y149715D01*
X202534Y150500D01*
X202430Y151285D01*
X202127Y152017D01*
X201645Y152645D01*
X201017Y153127D01*
X200285Y153430D01*
X199500Y153534D01*
X198715Y153430D01*
X197983Y153127D01*
X197355Y152645D01*
X196873Y152017D01*
X196793Y151825D01*
X193076D01*
X190489Y154413D01*
X190680Y154875D01*
X204451D01*
X207062Y152264D01*
X206873Y152017D01*
X206570Y151285D01*
X206466Y150500D01*
X206570Y149715D01*
X206873Y148983D01*
X207355Y148355D01*
X207983Y147873D01*
X208715Y147570D01*
X209500Y147466D01*
X210285Y147570D01*
X211017Y147873D01*
X211645Y148355D01*
X212127Y148983D01*
X212431Y149715D01*
X212534Y150500D01*
X212431Y151285D01*
X212127Y152017D01*
X211645Y152645D01*
X211017Y153127D01*
X210285Y153430D01*
X209547Y153528D01*
X205937Y157137D01*
X205507Y157425D01*
X205000Y157526D01*
X201386D01*
X201216Y158026D01*
X201645Y158355D01*
X202127Y158983D01*
X202430Y159715D01*
X202534Y160500D01*
X202430Y161285D01*
X202127Y162017D01*
X201645Y162645D01*
X201542Y162724D01*
X201712Y163224D01*
X204901D01*
X206649Y161477D01*
X206570Y161285D01*
X206466Y160500D01*
X206570Y159715D01*
X206873Y158983D01*
X207355Y158355D01*
X207983Y157873D01*
X208715Y157570D01*
X209500Y157466D01*
X210285Y157570D01*
X211017Y157873D01*
X211645Y158355D01*
X212127Y158983D01*
X212431Y159715D01*
X212534Y160500D01*
X212431Y161285D01*
X212127Y162017D01*
X211645Y162645D01*
X211017Y163127D01*
X210285Y163430D01*
X209500Y163534D01*
X208715Y163430D01*
X208523Y163351D01*
X206387Y165487D01*
X205957Y165775D01*
X205450Y165875D01*
X185707D01*
X157329Y194254D01*
X156899Y194541D01*
X156392Y194642D01*
X121018D01*
X120700Y195028D01*
X120794Y195500D01*
X120652Y196215D01*
X120949Y196715D01*
X170541D01*
X171048Y196816D01*
X171478Y197104D01*
X198523Y224149D01*
X198715Y224069D01*
X199500Y223966D01*
X200285Y224069D01*
X201017Y224373D01*
X201645Y224855D01*
X202127Y225483D01*
X202430Y226215D01*
X202534Y227000D01*
X202430Y227785D01*
X202127Y228517D01*
X201645Y229145D01*
X201017Y229627D01*
X200285Y229930D01*
X199500Y230034D01*
X198715Y229930D01*
X197983Y229627D01*
X197355Y229145D01*
X196873Y228517D01*
X196570Y227785D01*
X196466Y227000D01*
X196570Y226215D01*
X196649Y226023D01*
X195739Y225113D01*
X195350Y225432D01*
X195525Y225693D01*
X195625Y226200D01*
Y241251D01*
X198523Y244149D01*
X198715Y244070D01*
X199500Y243966D01*
X200285Y244070D01*
X201017Y244373D01*
X201645Y244855D01*
X202127Y245483D01*
X202430Y246215D01*
X202534Y247000D01*
X202430Y247785D01*
X202127Y248517D01*
X201645Y249145D01*
X201017Y249627D01*
X200285Y249931D01*
X199500Y250034D01*
D02*
G37*
G36*
X209500Y240034D02*
X208715Y239931D01*
X207983Y239627D01*
X207355Y239145D01*
X206873Y238517D01*
X206570Y237785D01*
X206466Y237000D01*
X206570Y236215D01*
X206873Y235483D01*
X207355Y234855D01*
X207983Y234373D01*
X208715Y234069D01*
X209500Y233966D01*
X210285Y234069D01*
X211017Y234373D01*
X211645Y234855D01*
X212127Y235483D01*
X212431Y236215D01*
X212534Y237000D01*
X212431Y237785D01*
X212127Y238517D01*
X211645Y239145D01*
X211017Y239627D01*
X210285Y239931D01*
X209500Y240034D01*
D02*
G37*
G36*
X199500D02*
X198715Y239931D01*
X197983Y239627D01*
X197355Y239145D01*
X196873Y238517D01*
X196570Y237785D01*
X196466Y237000D01*
X196570Y236215D01*
X196873Y235483D01*
X197355Y234855D01*
X197983Y234373D01*
X198715Y234069D01*
X199500Y233966D01*
X200285Y234069D01*
X201017Y234373D01*
X201645Y234855D01*
X202127Y235483D01*
X202430Y236215D01*
X202534Y237000D01*
X202430Y237785D01*
X202127Y238517D01*
X201645Y239145D01*
X201017Y239627D01*
X200285Y239931D01*
X199500Y240034D01*
D02*
G37*
G36*
Y220034D02*
X198715Y219931D01*
X197983Y219627D01*
X197355Y219145D01*
X196873Y218517D01*
X196570Y217785D01*
X196466Y217000D01*
X196570Y216215D01*
X196873Y215483D01*
X197355Y214855D01*
X197983Y214373D01*
X198715Y214070D01*
X199500Y213966D01*
X200285Y214070D01*
X201017Y214373D01*
X201645Y214855D01*
X202127Y215483D01*
X202430Y216215D01*
X202534Y217000D01*
X202430Y217785D01*
X202127Y218517D01*
X201645Y219145D01*
X201017Y219627D01*
X200285Y219931D01*
X199500Y220034D01*
D02*
G37*
G36*
X209500Y210034D02*
X208715Y209930D01*
X207983Y209627D01*
X207355Y209145D01*
X206873Y208517D01*
X206570Y207785D01*
X206466Y207000D01*
X206570Y206215D01*
X206873Y205483D01*
X207355Y204855D01*
X207983Y204373D01*
X208715Y204070D01*
X209500Y203966D01*
X210285Y204070D01*
X211017Y204373D01*
X211645Y204855D01*
X212127Y205483D01*
X212431Y206215D01*
X212534Y207000D01*
X212431Y207785D01*
X212127Y208517D01*
X211645Y209145D01*
X211017Y209627D01*
X210285Y209930D01*
X209500Y210034D01*
D02*
G37*
G36*
X199500D02*
X198715Y209930D01*
X197983Y209627D01*
X197355Y209145D01*
X196873Y208517D01*
X196570Y207785D01*
X196466Y207000D01*
X196570Y206215D01*
X196873Y205483D01*
X197355Y204855D01*
X197983Y204373D01*
X198715Y204070D01*
X199500Y203966D01*
X200285Y204070D01*
X201017Y204373D01*
X201645Y204855D01*
X202127Y205483D01*
X202430Y206215D01*
X202534Y207000D01*
X202430Y207785D01*
X202127Y208517D01*
X201645Y209145D01*
X201017Y209627D01*
X200285Y209930D01*
X199500Y210034D01*
D02*
G37*
G36*
X147298Y176943D02*
X146798Y176943D01*
X142376D01*
Y175595D01*
X139597D01*
Y176844D01*
X134447D01*
Y171695D01*
X139597D01*
Y172944D01*
X142376D01*
Y171596D01*
X146798D01*
X147132Y171596D01*
X147632Y171596D01*
X150330D01*
X152836Y169091D01*
X152836Y169091D01*
X153256Y168810D01*
X153478Y168478D01*
X154222Y167981D01*
X155100Y167806D01*
X155978Y167981D01*
X156722Y168478D01*
X157220Y169222D01*
X157394Y170100D01*
X157220Y170978D01*
X156722Y171722D01*
X155978Y172220D01*
X155100Y172394D01*
X154222Y172220D01*
X153936Y172028D01*
X152053Y173910D01*
Y176943D01*
X147632D01*
X147298Y176943D01*
D02*
G37*
G36*
X73500Y157794D02*
X72622Y157620D01*
X71878Y157122D01*
X71381Y156378D01*
X71206Y155500D01*
X71276Y155150D01*
X68563Y152437D01*
X68275Y152007D01*
X68174Y151500D01*
Y120820D01*
X67878Y120622D01*
X67381Y119878D01*
X67206Y119000D01*
X67381Y118122D01*
X67878Y117378D01*
X68622Y116881D01*
X69500Y116706D01*
X70378Y116881D01*
X71122Y117378D01*
X71619Y118122D01*
X71794Y119000D01*
X71619Y119878D01*
X71122Y120622D01*
X70825Y120820D01*
Y150951D01*
X73150Y153276D01*
X73500Y153206D01*
X74378Y153381D01*
X75122Y153878D01*
X75619Y154622D01*
X75794Y155500D01*
X75619Y156378D01*
X75122Y157122D01*
X74378Y157620D01*
X73500Y157794D01*
D02*
G37*
G36*
X123400Y145594D02*
X122522Y145420D01*
X121778Y144922D01*
X121446Y144425D01*
X102020D01*
X101822Y144722D01*
X101078Y145220D01*
X100200Y145394D01*
X99322Y145220D01*
X98578Y144722D01*
X98081Y143978D01*
X97906Y143100D01*
X98081Y142222D01*
X98578Y141478D01*
X99322Y140981D01*
X100200Y140806D01*
X101078Y140981D01*
X101822Y141478D01*
X102020Y141774D01*
X121713D01*
X121778Y141678D01*
X122522Y141181D01*
X123400Y141006D01*
X124278Y141181D01*
X125022Y141678D01*
X125520Y142422D01*
X125694Y143300D01*
X125520Y144178D01*
X125022Y144922D01*
X124278Y145420D01*
X123400Y145594D01*
D02*
G37*
G36*
X199500Y143534D02*
X198715Y143430D01*
X197983Y143127D01*
X197355Y142645D01*
X197263Y142525D01*
X150920D01*
X150722Y142822D01*
X149978Y143319D01*
X149100Y143494D01*
X148222Y143319D01*
X147478Y142822D01*
X146981Y142078D01*
X146806Y141200D01*
X146981Y140322D01*
X147478Y139578D01*
X148222Y139081D01*
X149100Y138906D01*
X149978Y139081D01*
X150722Y139578D01*
X150920Y139874D01*
X196548D01*
X196570Y139715D01*
X196873Y138983D01*
X197355Y138355D01*
X197983Y137873D01*
X198715Y137570D01*
X199500Y137466D01*
X200285Y137570D01*
X201017Y137873D01*
X201645Y138355D01*
X202127Y138983D01*
X202430Y139715D01*
X202534Y140500D01*
X202430Y141285D01*
X202127Y142017D01*
X201645Y142645D01*
X201017Y143127D01*
X200285Y143430D01*
X199500Y143534D01*
D02*
G37*
G36*
X28650Y156425D02*
X27721Y156302D01*
X26855Y155944D01*
X26112Y155373D01*
X25541Y154630D01*
X25183Y153764D01*
X25060Y152835D01*
X25183Y151906D01*
X25541Y151040D01*
X26112Y150297D01*
X26855Y149726D01*
X27721Y149368D01*
X28650Y149245D01*
X29579Y149368D01*
X30445Y149726D01*
X31188Y150297D01*
X31571Y150796D01*
X53420D01*
X60961Y143255D01*
Y116900D01*
X61116Y116120D01*
X61558Y115458D01*
X68561Y108455D01*
Y99672D01*
X68716Y98891D01*
X69158Y98230D01*
X70330Y97058D01*
X70330Y97058D01*
X70991Y96616D01*
X71772Y96461D01*
X82691D01*
X82879Y96179D01*
X83210Y95958D01*
X83600Y95880D01*
X93436D01*
X93458Y95858D01*
X94120Y95416D01*
X94900Y95261D01*
X106783D01*
X106833Y94761D01*
X106693Y94733D01*
X106122Y94619D01*
X105378Y94122D01*
X104880Y93378D01*
X104706Y92500D01*
X104880Y91622D01*
X105378Y90878D01*
X106122Y90381D01*
X107000Y90206D01*
X107878Y90381D01*
X108622Y90878D01*
X108681Y90884D01*
X111861Y87703D01*
Y84527D01*
X112812D01*
Y83475D01*
X111666D01*
Y80442D01*
X109984Y78760D01*
X109674Y78297D01*
X109565Y77750D01*
X109565Y77750D01*
Y73543D01*
X108823D01*
X108358Y73450D01*
X107963Y73187D01*
X107700Y72793D01*
X107607Y72328D01*
Y70153D01*
X107700Y69687D01*
X107963Y69293D01*
X108358Y69030D01*
X108823Y68937D01*
X113163D01*
X113628Y69030D01*
X114023Y69293D01*
X114286Y69687D01*
X114378Y70153D01*
Y72328D01*
X114286Y72793D01*
X114023Y73187D01*
X113628Y73450D01*
X113163Y73543D01*
X112420D01*
Y77159D01*
X113586Y78325D01*
X116373D01*
X116619Y78325D01*
X116873Y77930D01*
Y68169D01*
X116873Y68169D01*
X116981Y67622D01*
X117291Y67159D01*
X117759Y66691D01*
X117759Y66691D01*
X118222Y66381D01*
X118769Y66273D01*
X119524D01*
X119676Y65773D01*
X119578Y65707D01*
X119314Y65312D01*
X119221Y64847D01*
Y62672D01*
X119314Y62207D01*
X119578Y61813D01*
X119883Y61609D01*
X119998Y61224D01*
X120013Y61032D01*
X117891Y58909D01*
X117581Y58446D01*
X117473Y57900D01*
X117473Y57900D01*
Y38600D01*
X117473Y38600D01*
X117581Y38054D01*
X117891Y37591D01*
X122081Y33400D01*
Y31850D01*
X121378D01*
X120581Y32646D01*
X120118Y32956D01*
X119572Y33064D01*
X119572Y33064D01*
X114076D01*
Y34999D01*
X107351D01*
X107127Y35407D01*
Y45883D01*
X107127Y45900D01*
X107127Y45900D01*
X107169Y45950D01*
X107277Y45950D01*
X114944D01*
Y54250D01*
X112419D01*
Y61457D01*
X113163D01*
X113628Y61550D01*
X114023Y61813D01*
X114286Y62207D01*
X114378Y62672D01*
Y64847D01*
X114286Y65312D01*
X114023Y65707D01*
X113628Y65970D01*
X113163Y66063D01*
X108823D01*
X108358Y65970D01*
X107963Y65707D01*
X107700Y65312D01*
X107663Y65127D01*
X104075D01*
Y69319D01*
X98925D01*
Y64366D01*
X99628D01*
X100073Y64200D01*
X100181Y63654D01*
X100491Y63191D01*
X100991Y62691D01*
X100991Y62691D01*
X101454Y62381D01*
X102000Y62273D01*
X102000Y62273D01*
X107687D01*
X107700Y62207D01*
X107963Y61813D01*
X108358Y61550D01*
X108823Y61457D01*
X109564D01*
Y54250D01*
X107039D01*
Y47287D01*
X106539Y47080D01*
X105409Y48209D01*
X104946Y48519D01*
X104400Y48627D01*
X104400Y48627D01*
X102539D01*
Y49873D01*
X98117D01*
X97783Y49873D01*
X97283Y49873D01*
X92861D01*
Y48627D01*
X90768D01*
Y49420D01*
X90768Y49479D01*
Y49920D01*
X90768Y49979D01*
Y54479D01*
X81879D01*
Y49979D01*
X81879Y49920D01*
Y49479D01*
X81879Y49420D01*
Y44980D01*
X81879Y44921D01*
Y44480D01*
X81879Y44420D01*
Y39920D01*
X84896D01*
Y36257D01*
X84614Y35975D01*
X81581D01*
Y30825D01*
X82528D01*
Y28242D01*
X82644Y27657D01*
X82976Y27161D01*
X100019Y10119D01*
X100515Y9787D01*
X101100Y9671D01*
X128000D01*
X128585Y9787D01*
X129081Y10119D01*
X134281Y15319D01*
X134613Y15815D01*
X134729Y16400D01*
Y49100D01*
X134613Y49685D01*
X134281Y50181D01*
X129344Y55118D01*
X128848Y55450D01*
X128263Y55566D01*
X127988D01*
X127797Y56028D01*
X130009Y58241D01*
X130009Y58241D01*
X130319Y58704D01*
X130427Y59250D01*
X130427Y59250D01*
Y67109D01*
X131842Y68523D01*
X132225Y68781D01*
Y68781D01*
X132225Y68781D01*
X137375D01*
Y73734D01*
X137722Y74090D01*
X138178Y74181D01*
X138922Y74678D01*
X139419Y75422D01*
X139594Y76300D01*
X139419Y77178D01*
X138922Y77922D01*
X138178Y78419D01*
X137300Y78594D01*
X136422Y78419D01*
X135678Y77922D01*
X135180Y77178D01*
X135006Y76300D01*
X135052Y76070D01*
X133791Y74809D01*
X133481Y74346D01*
X133373Y73800D01*
X132888Y73734D01*
X132225D01*
Y72685D01*
X125922D01*
X125900Y72793D01*
X125637Y73187D01*
X125242Y73450D01*
X124777Y73543D01*
X120437D01*
X120227Y73501D01*
X119727Y73843D01*
Y78325D01*
X121934D01*
Y83475D01*
X120885D01*
Y84527D01*
X121539D01*
Y89873D01*
X117117D01*
X116783Y89873D01*
X116283Y89873D01*
X113441D01*
X109877Y93437D01*
X109447Y93725D01*
X108939Y93826D01*
X108820D01*
X108622Y94122D01*
X107878Y94619D01*
X107307Y94733D01*
X107167Y94761D01*
X107217Y95261D01*
X132655D01*
X140161Y87755D01*
Y23900D01*
X140316Y23120D01*
X140758Y22458D01*
X147258Y15958D01*
X147920Y15516D01*
X148700Y15361D01*
X162600D01*
X163380Y15516D01*
X164042Y15958D01*
X165564Y17480D01*
X167700D01*
X168090Y17558D01*
X168421Y17779D01*
X172721Y22079D01*
X172942Y22410D01*
X173020Y22800D01*
Y26100D01*
Y38000D01*
X172942Y38390D01*
X172820Y38573D01*
Y39800D01*
X172742Y40190D01*
X172521Y40521D01*
X171820Y41222D01*
Y44500D01*
X171742Y44890D01*
X171521Y45221D01*
X171190Y45442D01*
X170800Y45520D01*
X167200D01*
X166810Y45442D01*
X166479Y45221D01*
X166258Y44890D01*
X166180Y44500D01*
Y40822D01*
X164223Y38864D01*
X164110Y38842D01*
X163779Y38621D01*
X163558Y38290D01*
X163480Y37900D01*
Y26100D01*
Y21164D01*
X161755Y19439D01*
X149545D01*
X144239Y24745D01*
Y88600D01*
X144140Y89098D01*
X150821Y95779D01*
X151042Y96110D01*
X151120Y96500D01*
Y101161D01*
X152000D01*
X152780Y101316D01*
X153442Y101758D01*
X157042Y105358D01*
X157484Y106020D01*
X157639Y106800D01*
Y116655D01*
X164545Y123561D01*
X197763D01*
X197840Y123409D01*
X197896Y123061D01*
X197355Y122645D01*
X196873Y122017D01*
X196570Y121285D01*
X196466Y120500D01*
X196570Y119715D01*
X196873Y118983D01*
X197355Y118355D01*
X197983Y117873D01*
X198715Y117570D01*
X199500Y117466D01*
X200285Y117570D01*
X201017Y117873D01*
X201645Y118355D01*
X202127Y118983D01*
X202430Y119715D01*
X202534Y120500D01*
X202430Y121285D01*
X202127Y122017D01*
X201645Y122645D01*
X201104Y123061D01*
X201160Y123409D01*
X201237Y123561D01*
X204600D01*
X205380Y123716D01*
X206042Y124158D01*
X209367Y127484D01*
X209500Y127466D01*
X210285Y127570D01*
X211017Y127873D01*
X211645Y128355D01*
X212127Y128983D01*
X212431Y129715D01*
X212534Y130500D01*
X212431Y131285D01*
X212127Y132017D01*
X211645Y132645D01*
X211017Y133127D01*
X210285Y133430D01*
X209500Y133534D01*
X208715Y133430D01*
X207983Y133127D01*
X207355Y132645D01*
X206873Y132017D01*
X206570Y131285D01*
X206466Y130500D01*
X206484Y130368D01*
X203755Y127639D01*
X201534D01*
X201364Y128139D01*
X201645Y128355D01*
X202127Y128983D01*
X202430Y129715D01*
X202534Y130500D01*
X202430Y131285D01*
X202127Y132017D01*
X201645Y132645D01*
X201017Y133127D01*
X200285Y133430D01*
X199500Y133534D01*
X198715Y133430D01*
X197983Y133127D01*
X197355Y132645D01*
X196879Y132026D01*
X160520D01*
X160322Y132322D01*
X159578Y132819D01*
X158700Y132994D01*
X157822Y132819D01*
X157078Y132322D01*
X156580Y131578D01*
X156406Y130700D01*
X156580Y129822D01*
X157078Y129078D01*
X157822Y128580D01*
X158700Y128406D01*
X159578Y128580D01*
X160322Y129078D01*
X160520Y129375D01*
X196711D01*
X196873Y128983D01*
X197355Y128355D01*
X197636Y128139D01*
X197466Y127639D01*
X163700D01*
X162920Y127484D01*
X162258Y127042D01*
X154158Y118942D01*
X153716Y118280D01*
X153561Y117500D01*
Y107645D01*
X151155Y105239D01*
X150494D01*
X150490Y105242D01*
X150100Y105320D01*
X96320D01*
Y115400D01*
X96242Y115790D01*
X96056Y116069D01*
Y116615D01*
X95720D01*
Y119801D01*
X95723Y119805D01*
X95816Y120272D01*
Y121847D01*
X96020Y122097D01*
X96325D01*
X96721Y121682D01*
Y120272D01*
X96814Y119805D01*
X97079Y119410D01*
X97475Y119145D01*
X97942Y119052D01*
X98532D01*
X98999Y119145D01*
X99395Y119410D01*
X99612Y119734D01*
X103725D01*
Y119560D01*
X108875D01*
Y120415D01*
X111528D01*
Y119166D01*
X117072D01*
Y123922D01*
X111528D01*
Y123066D01*
X108875D01*
Y123922D01*
X103725D01*
Y122385D01*
X100227D01*
X99955Y122877D01*
X100048Y123345D01*
Y126255D01*
X99955Y126723D01*
X99690Y127119D01*
X99294Y127384D01*
X98826Y127477D01*
X96042D01*
X95816Y127753D01*
Y129327D01*
X95727Y129771D01*
Y130909D01*
X100091Y135273D01*
X102465D01*
Y134027D01*
X107083D01*
X107417Y134027D01*
X107917Y134027D01*
X108632D01*
Y131297D01*
X108632Y131297D01*
X108740Y130751D01*
X109050Y130288D01*
X111528Y127809D01*
Y124678D01*
X117072D01*
Y129434D01*
X113940D01*
X113938Y129437D01*
X113938Y129437D01*
X111486Y131888D01*
Y134027D01*
X112535D01*
Y135273D01*
X121213D01*
Y133528D01*
X122164D01*
Y133009D01*
X122164Y133009D01*
X122273Y132462D01*
X122582Y131999D01*
X124052Y130530D01*
X124006Y130300D01*
X124180Y129422D01*
X124678Y128678D01*
X125422Y128181D01*
X126300Y128006D01*
X127178Y128181D01*
X127922Y128678D01*
X128419Y129422D01*
X128594Y130300D01*
X128419Y131178D01*
X127922Y131922D01*
X127178Y132420D01*
X126300Y132594D01*
X126070Y132548D01*
X125552Y133066D01*
X125744Y133528D01*
X125969D01*
Y139072D01*
X121213D01*
Y138127D01*
X112535D01*
Y139373D01*
X107917D01*
X107583Y139373D01*
X107083Y139373D01*
X102465D01*
Y138127D01*
X99500D01*
X99500Y138127D01*
X98954Y138019D01*
X98491Y137709D01*
X95020Y134238D01*
X94520Y134445D01*
Y145200D01*
X94442Y145590D01*
X94221Y145921D01*
X93890Y146142D01*
X93500Y146220D01*
X89200D01*
X88810Y146142D01*
X88479Y145921D01*
X88379Y145821D01*
X88158Y145490D01*
X88080Y145100D01*
Y133600D01*
X88158Y133210D01*
X88379Y132879D01*
X90210Y131048D01*
X90109Y130693D01*
X90014Y130537D01*
X89601Y130455D01*
X89205Y130190D01*
X89056Y129968D01*
X85420D01*
Y131400D01*
X85342Y131790D01*
X85121Y132121D01*
X82021Y135221D01*
X81820Y135355D01*
Y145800D01*
X81742Y146190D01*
X81651Y146327D01*
X85762Y150438D01*
X85762Y150438D01*
X86149Y151017D01*
X86284Y151700D01*
X86284Y151700D01*
Y152207D01*
X86619Y152708D01*
X86794Y153586D01*
X86619Y154464D01*
X86122Y155208D01*
X85378Y155706D01*
X84500Y155880D01*
X83622Y155706D01*
X82878Y155208D01*
X82381Y154464D01*
X82206Y153586D01*
X82381Y152708D01*
X82623Y152346D01*
X77596Y147320D01*
X73200D01*
X72810Y147242D01*
X72479Y147021D01*
X72079Y146621D01*
X71858Y146290D01*
X71780Y145900D01*
Y126900D01*
X71858Y126510D01*
X72079Y126179D01*
X72979Y125279D01*
X73310Y125058D01*
X73700Y124980D01*
X84100D01*
X84490Y125058D01*
X84821Y125279D01*
X85028Y125486D01*
X85357D01*
Y125988D01*
X85420Y126300D01*
Y127113D01*
X88350D01*
X88623Y126613D01*
X88552Y126255D01*
Y123345D01*
X88645Y122877D01*
X88910Y122481D01*
X89306Y122216D01*
X89774Y122123D01*
X90680D01*
X90780Y122000D01*
Y119222D01*
X88779Y117221D01*
X88558Y116890D01*
X88480Y116500D01*
Y108522D01*
X87179Y107221D01*
X86958Y106890D01*
X86880Y106500D01*
Y103222D01*
X84578Y100920D01*
X84100D01*
X83710Y100842D01*
X83379Y100621D01*
X83297Y100539D01*
X72639D01*
Y109300D01*
X72484Y110080D01*
X72042Y110742D01*
X65039Y117745D01*
Y144100D01*
X64884Y144880D01*
X64442Y145542D01*
X55707Y154277D01*
X55045Y154719D01*
X54265Y154874D01*
X31571D01*
X31188Y155373D01*
X30445Y155944D01*
X29579Y156302D01*
X28650Y156425D01*
D02*
G37*
G36*
X146798Y115253D02*
X134266D01*
Y113416D01*
X130081D01*
X129478Y113820D01*
X128600Y113994D01*
X127722Y113820D01*
X126978Y113322D01*
X126480Y112578D01*
X126306Y111700D01*
X126480Y110822D01*
X126978Y110078D01*
X127722Y109581D01*
X128600Y109406D01*
X129478Y109581D01*
X130222Y110078D01*
X130545Y110562D01*
X134266D01*
Y108725D01*
X146798D01*
Y115253D01*
D02*
G37*
G36*
X28650Y136740D02*
X27721Y136617D01*
X26855Y136259D01*
X26112Y135688D01*
X25541Y134945D01*
X25183Y134079D01*
X25060Y133150D01*
X25183Y132221D01*
X25541Y131355D01*
X26112Y130612D01*
X26816Y130071D01*
Y116646D01*
X26222D01*
Y109921D01*
X30978D01*
Y116646D01*
X30384D01*
Y130016D01*
X30445Y130041D01*
X31188Y130612D01*
X31759Y131355D01*
X32117Y132221D01*
X32240Y133150D01*
X32117Y134079D01*
X31759Y134945D01*
X31188Y135688D01*
X30445Y136259D01*
X29579Y136617D01*
X28650Y136740D01*
D02*
G37*
G36*
X184300Y96194D02*
X183422Y96019D01*
X182678Y95522D01*
X182181Y94778D01*
X182006Y93900D01*
X182181Y93022D01*
X182678Y92278D01*
X182975Y92080D01*
Y88502D01*
X181565D01*
Y82959D01*
X186715D01*
Y88502D01*
X185626D01*
Y92080D01*
X185922Y92278D01*
X186419Y93022D01*
X186594Y93900D01*
X186419Y94778D01*
X185922Y95522D01*
X185178Y96019D01*
X184300Y96194D01*
D02*
G37*
G36*
X30978Y102079D02*
X26222D01*
Y95354D01*
X26676D01*
Y89113D01*
X26666Y89109D01*
X25922Y88538D01*
X25352Y87795D01*
X24993Y86929D01*
X24871Y86000D01*
X24953Y85376D01*
X23475Y83899D01*
X23033Y83237D01*
X22878Y82457D01*
Y74433D01*
X19980D01*
Y51567D01*
X29854D01*
Y74433D01*
X26956D01*
Y81612D01*
X27837Y82492D01*
X28461Y82410D01*
X29390Y82533D01*
X30255Y82891D01*
X30999Y83462D01*
X31569Y84205D01*
X31928Y85071D01*
X32050Y86000D01*
X31928Y86929D01*
X31569Y87795D01*
X30999Y88538D01*
X30255Y89109D01*
X30245Y89113D01*
Y95354D01*
X30978D01*
Y102079D01*
D02*
G37*
G36*
X52098Y89559D02*
X44980D01*
Y82441D01*
X46500D01*
Y73039D01*
X46655Y72259D01*
X46980Y71773D01*
Y52700D01*
X47058Y52310D01*
X47146Y52179D01*
Y51567D01*
X47691D01*
X49079Y50179D01*
X49318Y50020D01*
X49253Y49565D01*
X49235Y49520D01*
X25000D01*
X24610Y49442D01*
X24279Y49221D01*
X21579Y46521D01*
X21358Y46190D01*
X21280Y45800D01*
Y36600D01*
X21358Y36210D01*
X21579Y35879D01*
X23779Y33679D01*
X24110Y33458D01*
X24500Y33380D01*
X36100D01*
X36490Y33458D01*
X36821Y33679D01*
X43122Y39980D01*
X59832D01*
Y39920D01*
X68721D01*
Y44420D01*
X68721Y44480D01*
X68721D01*
Y44921D01*
X68721D01*
Y49420D01*
X68721Y49479D01*
Y49920D01*
X68721Y49979D01*
Y54421D01*
X68721Y54479D01*
X68721Y54479D01*
X68721Y54921D01*
X68721Y54921D01*
X68721Y54979D01*
Y59479D01*
X67801D01*
X67600Y59520D01*
X57220D01*
Y73500D01*
X57142Y73890D01*
X57020Y74073D01*
Y74433D01*
X56603D01*
X56590Y74442D01*
X56200Y74520D01*
X50579D01*
Y82441D01*
X52098D01*
Y83961D01*
X67432D01*
Y82398D01*
X74353D01*
Y89202D01*
X67432D01*
Y88039D01*
X52098D01*
Y89559D01*
D02*
G37*
G36*
X216500Y66685D02*
X215417Y66543D01*
X214407Y66125D01*
X213541Y65460D01*
X212875Y64593D01*
X212457Y63583D01*
X212315Y62500D01*
X212457Y61417D01*
X212875Y60407D01*
X213541Y59540D01*
X214407Y58875D01*
X215417Y58457D01*
X216500Y58315D01*
X217583Y58457D01*
X218593Y58875D01*
X219460Y59540D01*
X220125Y60407D01*
X220543Y61417D01*
X220685Y62500D01*
X220543Y63583D01*
X220125Y64593D01*
X219460Y65460D01*
X218593Y66125D01*
X217583Y66543D01*
X216500Y66685D01*
D02*
G37*
G36*
X209500Y123534D02*
X208715Y123430D01*
X207983Y123127D01*
X207355Y122645D01*
X206873Y122017D01*
X206570Y121285D01*
X206466Y120500D01*
X206570Y119715D01*
X206873Y118983D01*
X207355Y118355D01*
X207971Y117882D01*
Y104133D01*
X197419Y93581D01*
X197087Y93085D01*
X196971Y92500D01*
Y66133D01*
X190866Y60029D01*
X188094D01*
Y61173D01*
X183476D01*
X183142Y61173D01*
Y61173D01*
X182976D01*
Y61173D01*
X181827D01*
Y74298D01*
X182975D01*
Y79841D01*
X177825D01*
Y74298D01*
X178973D01*
Y61173D01*
X178024D01*
Y59927D01*
X174000D01*
X173454Y59819D01*
X172991Y59509D01*
X172991Y59509D01*
X170720Y57238D01*
X170220Y57445D01*
Y68100D01*
X170142Y68490D01*
X169921Y68821D01*
X169590Y69042D01*
X169200Y69120D01*
X164900D01*
X164510Y69042D01*
X164179Y68821D01*
X164173Y68815D01*
X164028D01*
Y68644D01*
X163858Y68390D01*
X163780Y68000D01*
Y56500D01*
X163858Y56110D01*
X164079Y55779D01*
X166079Y53779D01*
X166410Y53558D01*
X166427Y53555D01*
X166432Y53457D01*
X165981Y52988D01*
X165768D01*
X165301Y52895D01*
X164905Y52631D01*
X164756Y52408D01*
X161258D01*
Y54320D01*
X161016D01*
X160942Y54690D01*
X160721Y55021D01*
X157621Y58121D01*
X157420Y58255D01*
Y68257D01*
X161134Y71971D01*
X170266D01*
X173071Y69166D01*
Y67984D01*
X172978Y67922D01*
X172480Y67178D01*
X172306Y66300D01*
X172480Y65422D01*
X172978Y64678D01*
X173722Y64181D01*
X174600Y64006D01*
X175478Y64181D01*
X176222Y64678D01*
X176719Y65422D01*
X176894Y66300D01*
X176719Y67178D01*
X176222Y67922D01*
X176129Y67984D01*
Y69800D01*
X176013Y70385D01*
X175681Y70881D01*
X171981Y74581D01*
X171485Y74913D01*
X170900Y75029D01*
X160500D01*
X159915Y74913D01*
X159419Y74581D01*
X155371Y70534D01*
X154911Y70781D01*
X154994Y71200D01*
X154820Y72078D01*
X154322Y72822D01*
X153578Y73319D01*
X152700Y73494D01*
X151822Y73319D01*
X151078Y72822D01*
X150581Y72078D01*
X150406Y71200D01*
X150502Y70720D01*
X150093Y70220D01*
X148800D01*
X148410Y70142D01*
X148079Y69921D01*
X147679Y69521D01*
X147458Y69190D01*
X147380Y68800D01*
Y49800D01*
X147458Y49410D01*
X147679Y49079D01*
X148579Y48179D01*
X148910Y47958D01*
X149300Y47880D01*
X159700D01*
X160090Y47958D01*
X160421Y48179D01*
X160428Y48186D01*
X161258D01*
Y49553D01*
X164756D01*
X164905Y49330D01*
X165301Y49066D01*
X165768Y48973D01*
X166358D01*
X166825Y49066D01*
X167047Y49214D01*
X167269Y49066D01*
X167736Y48973D01*
X168327D01*
X168794Y49066D01*
X169016Y49214D01*
X169238Y49066D01*
X169705Y48973D01*
X170295D01*
X170762Y49066D01*
X171158Y49330D01*
X171423Y49726D01*
X171516Y50193D01*
Y51768D01*
X171427Y52211D01*
Y53909D01*
X174591Y57073D01*
X178024D01*
Y55827D01*
X178533D01*
X178685Y55327D01*
X178678Y55322D01*
X178181Y54578D01*
X178006Y53700D01*
X178181Y52822D01*
X178678Y52078D01*
X179422Y51581D01*
X180300Y51406D01*
X181178Y51581D01*
X181922Y52078D01*
X182420Y52822D01*
X182498Y53217D01*
X183609Y54328D01*
X183890Y54211D01*
X184073Y54085D01*
X184187Y53515D01*
X184519Y53019D01*
X185971Y51566D01*
Y50984D01*
X184925D01*
Y46622D01*
X190075D01*
Y50984D01*
X189029D01*
Y52200D01*
X188913Y52785D01*
X188581Y53281D01*
X187129Y54734D01*
Y55827D01*
X188094D01*
Y56971D01*
X191500D01*
X192085Y57087D01*
X192581Y57419D01*
X199581Y64419D01*
X199913Y64915D01*
X200029Y65500D01*
Y86133D01*
X200529Y86182D01*
X200576Y85949D01*
X200680Y85422D01*
X201178Y84678D01*
X201922Y84181D01*
X202573Y84051D01*
Y65437D01*
X201327D01*
Y60484D01*
Y55563D01*
X204458D01*
X208530Y51491D01*
X208530Y51491D01*
X208993Y51181D01*
X209539Y51073D01*
X212600D01*
X212875Y50407D01*
X213541Y49540D01*
X214407Y48875D01*
X215417Y48457D01*
X216500Y48315D01*
X217583Y48457D01*
X218593Y48875D01*
X219460Y49540D01*
X220125Y50407D01*
X220543Y51417D01*
X220685Y52500D01*
X220543Y53583D01*
X220125Y54593D01*
X219460Y55459D01*
X218593Y56125D01*
X217583Y56543D01*
X216500Y56685D01*
X215417Y56543D01*
X214407Y56125D01*
X213541Y55459D01*
X212875Y54593D01*
X212600Y53927D01*
X210131D01*
X206673Y57385D01*
Y60484D01*
Y65437D01*
X205427D01*
Y85100D01*
X205427Y85100D01*
X205319Y85646D01*
X205045Y86055D01*
X205094Y86300D01*
X204920Y87178D01*
X204422Y87922D01*
X203678Y88419D01*
X202800Y88594D01*
X201922Y88419D01*
X201178Y87922D01*
X200680Y87178D01*
X200576Y86651D01*
X200529Y86418D01*
X200029Y86467D01*
Y91866D01*
X210581Y102419D01*
X210913Y102915D01*
X211029Y103500D01*
Y117882D01*
X211645Y118355D01*
X212127Y118983D01*
X212431Y119715D01*
X212504Y120270D01*
X212529Y120400D01*
X212524Y120426D01*
X212534Y120500D01*
X212431Y121285D01*
X212127Y122017D01*
X211645Y122645D01*
X211017Y123127D01*
X210285Y123430D01*
X209500Y123534D01*
D02*
G37*
G36*
X190075Y45866D02*
X184925D01*
Y45112D01*
X183575D01*
Y45866D01*
X178425D01*
Y45112D01*
X175120D01*
X175095Y45150D01*
X174699Y45415D01*
X174232Y45508D01*
X173642D01*
X173175Y45415D01*
X172779Y45150D01*
X172514Y44754D01*
X172421Y44287D01*
Y42713D01*
X172514Y42246D01*
X172779Y41850D01*
X173175Y41585D01*
X173642Y41492D01*
X174232D01*
X174699Y41585D01*
X175095Y41850D01*
X175360Y42246D01*
X175362Y42258D01*
X178425D01*
Y41504D01*
X183575D01*
Y42258D01*
X184925D01*
Y41504D01*
X190075D01*
Y45866D01*
D02*
G37*
G36*
X199100Y49694D02*
X198222Y49520D01*
X197478Y49022D01*
X196981Y48278D01*
X196806Y47400D01*
X196981Y46522D01*
X197478Y45778D01*
X198222Y45281D01*
X199100Y45106D01*
X199450Y45175D01*
X203063Y41563D01*
X203493Y41275D01*
X204000Y41175D01*
X212558D01*
X212875Y40407D01*
X213541Y39540D01*
X214407Y38875D01*
X215417Y38457D01*
X216500Y38315D01*
X217583Y38457D01*
X218593Y38875D01*
X219460Y39540D01*
X220125Y40407D01*
X220543Y41417D01*
X220685Y42500D01*
X220543Y43583D01*
X220125Y44593D01*
X219460Y45459D01*
X218593Y46125D01*
X217583Y46543D01*
X216500Y46685D01*
X215417Y46543D01*
X214407Y46125D01*
X213541Y45459D01*
X212875Y44593D01*
X212558Y43826D01*
X204549D01*
X201325Y47050D01*
X201394Y47400D01*
X201220Y48278D01*
X200722Y49022D01*
X199978Y49520D01*
X199100Y49694D01*
D02*
G37*
G36*
X216500Y36685D02*
X215417Y36543D01*
X214407Y36125D01*
X213541Y35460D01*
X212875Y34593D01*
X212457Y33583D01*
X212315Y32500D01*
X212457Y31417D01*
X212875Y30407D01*
X213541Y29541D01*
X214407Y28875D01*
X215417Y28457D01*
X216500Y28315D01*
X217583Y28457D01*
X218593Y28875D01*
X219460Y29541D01*
X220125Y30407D01*
X220543Y31417D01*
X220685Y32500D01*
X220543Y33583D01*
X220125Y34593D01*
X219460Y35460D01*
X218593Y36125D01*
X217583Y36543D01*
X216500Y36685D01*
D02*
G37*
G36*
X220650Y26650D02*
X212350D01*
Y18350D01*
X220650D01*
Y26650D01*
D02*
G37*
%LPD*%
G36*
X123413Y209178D02*
X122950Y208868D01*
X122950Y208868D01*
X122378Y208297D01*
X122122Y208322D01*
X121378Y208820D01*
X120500Y208994D01*
X119622Y208820D01*
X118878Y208322D01*
X118380Y207578D01*
X118206Y206700D01*
X118380Y205822D01*
X118878Y205078D01*
X119607Y204591D01*
X119616Y204549D01*
X119524Y204091D01*
X114305D01*
X113825Y204186D01*
X111299D01*
X110867Y204236D01*
X110817Y204668D01*
Y207194D01*
X110722Y207675D01*
Y207947D01*
X112449Y209675D01*
X123347D01*
X123413Y209178D01*
D02*
G37*
G36*
X180157Y214638D02*
X180314Y214089D01*
X170158Y203933D01*
X148346D01*
Y205182D01*
X139654D01*
Y203933D01*
X130273D01*
Y205217D01*
X130273D01*
Y205383D01*
X130273D01*
Y209675D01*
X164651D01*
X166975Y207350D01*
X166906Y207000D01*
X167080Y206122D01*
X167578Y205378D01*
X168322Y204880D01*
X169200Y204706D01*
X170078Y204880D01*
X170822Y205378D01*
X171319Y206122D01*
X171494Y207000D01*
X171319Y207878D01*
X170822Y208622D01*
X170078Y209120D01*
X169200Y209294D01*
X168850Y209225D01*
X167262Y210813D01*
X167453Y211275D01*
X176100D01*
X176607Y211375D01*
X177037Y211663D01*
X180040Y214665D01*
X180157Y214638D01*
D02*
G37*
G36*
X100209Y203698D02*
X100517Y203237D01*
X100978Y202929D01*
X101522Y202821D01*
X102066Y202929D01*
X102309Y203092D01*
X102553Y202929D01*
X103097Y202821D01*
X103641Y202929D01*
X103884Y203092D01*
X104128Y202929D01*
X104672Y202821D01*
X105215Y202929D01*
X105459Y203092D01*
X105703Y202929D01*
X106246Y202821D01*
X106790Y202929D01*
X107034Y203092D01*
X107278Y202929D01*
X107821Y202821D01*
X108365Y202929D01*
X108609Y203092D01*
X108852Y202929D01*
X109396Y202821D01*
X109451Y202765D01*
X109560Y202222D01*
X109722Y201978D01*
X109560Y201734D01*
X109451Y201191D01*
X109560Y200647D01*
X109722Y200403D01*
X109560Y200160D01*
X109451Y199616D01*
X109560Y199072D01*
X109722Y198828D01*
X109560Y198585D01*
X109451Y198041D01*
X109560Y197497D01*
X109722Y197254D01*
X109560Y197010D01*
X109451Y196466D01*
X109560Y195922D01*
X109722Y195679D01*
X109560Y195435D01*
X109451Y194891D01*
X109560Y194348D01*
X109722Y194104D01*
X109560Y193860D01*
X109451Y193316D01*
X109560Y192773D01*
X109722Y192529D01*
X109560Y192286D01*
X109451Y191742D01*
X109560Y191198D01*
X109722Y190954D01*
X109560Y190711D01*
X109451Y190167D01*
X109560Y189623D01*
X109722Y189380D01*
X109560Y189136D01*
X109451Y188592D01*
X109560Y188048D01*
X109722Y187805D01*
X109560Y187561D01*
X109451Y187017D01*
X109560Y186474D01*
X109722Y186230D01*
X109560Y185986D01*
X109451Y185442D01*
X109396Y185387D01*
X108852Y185279D01*
X108609Y185116D01*
X108365Y185279D01*
X107821Y185387D01*
X107278Y185279D01*
X107034Y185116D01*
X106790Y185279D01*
X106246Y185387D01*
X105703Y185279D01*
X105459Y185116D01*
X105215Y185279D01*
X104672Y185387D01*
X104128Y185279D01*
X103884Y185116D01*
X103641Y185279D01*
X103097Y185387D01*
X102553Y185279D01*
X102309Y185116D01*
X102066Y185279D01*
X101522Y185387D01*
X100978Y185279D01*
X100735Y185116D01*
X100491Y185279D01*
X99947Y185387D01*
X99403Y185279D01*
X99160Y185116D01*
X98916Y185279D01*
X98372Y185387D01*
X97829Y185279D01*
X97585Y185116D01*
X97341Y185279D01*
X96798Y185387D01*
X96254Y185279D01*
X96010Y185116D01*
X95767Y185279D01*
X95223Y185387D01*
X94679Y185279D01*
X94435Y185116D01*
X94192Y185279D01*
X93648Y185387D01*
X93104Y185279D01*
X92861Y185116D01*
X92617Y185279D01*
X92073Y185387D01*
X92018Y185442D01*
X91910Y185986D01*
X91747Y186230D01*
X91910Y186474D01*
X92018Y187017D01*
X91910Y187561D01*
X91747Y187805D01*
X91910Y188048D01*
X92018Y188592D01*
X91910Y189136D01*
X91602Y189597D01*
X91141Y189905D01*
X91105Y189912D01*
Y190422D01*
X91141Y190429D01*
X91602Y190737D01*
X91910Y191198D01*
X92018Y191742D01*
X91910Y192286D01*
X91747Y192529D01*
X91910Y192773D01*
X92018Y193316D01*
X91910Y193860D01*
X91747Y194104D01*
X91910Y194348D01*
X92018Y194891D01*
X91910Y195435D01*
X91747Y195679D01*
X91910Y195922D01*
X92018Y196466D01*
X91910Y197010D01*
X91747Y197254D01*
X91910Y197497D01*
X92018Y198041D01*
X91910Y198585D01*
X91747Y198828D01*
X91910Y199072D01*
X92018Y199616D01*
X91910Y200160D01*
X91747Y200403D01*
X91910Y200647D01*
X92018Y201191D01*
X91910Y201734D01*
X91747Y201978D01*
X91910Y202222D01*
X92018Y202765D01*
X92073Y202821D01*
X92617Y202929D01*
X92861Y203092D01*
X93104Y202929D01*
X93648Y202821D01*
X94192Y202929D01*
X94435Y203092D01*
X94679Y202929D01*
X95223Y202821D01*
X95767Y202929D01*
X96010Y203092D01*
X96254Y202929D01*
X96798Y202821D01*
X97341Y202929D01*
X97585Y203092D01*
X97829Y202929D01*
X98372Y202821D01*
X98916Y202929D01*
X99377Y203237D01*
X99685Y203698D01*
X99692Y203733D01*
X100202D01*
X100209Y203698D01*
D02*
G37*
G36*
X171794Y201168D02*
X169992Y199366D01*
X115451D01*
X115246Y199616D01*
X115138Y200160D01*
X114975Y200403D01*
X115138Y200647D01*
X115246Y201190D01*
X115451Y201440D01*
X124927D01*
Y200265D01*
X130273D01*
Y201282D01*
X139654D01*
Y200032D01*
X148346D01*
Y201282D01*
X170707D01*
X171214Y201382D01*
X171475Y201557D01*
X171794Y201168D01*
D02*
G37*
G36*
X196196Y161478D02*
X196534Y161015D01*
X196466Y160500D01*
X196570Y159715D01*
X196873Y158983D01*
X197355Y158355D01*
X197784Y158026D01*
X197614Y157526D01*
X189603D01*
X186075Y161053D01*
X186267Y161515D01*
X196124D01*
X196196Y161478D01*
D02*
G37*
G36*
X93500Y133900D02*
X92800Y133200D01*
Y130000D01*
X91800D01*
Y131600D01*
X91100D01*
X89100Y133600D01*
Y145100D01*
X89200Y145200D01*
X93500D01*
Y133900D01*
D02*
G37*
G36*
X80800Y145800D02*
Y134500D01*
X81300D01*
X84400Y131400D01*
Y126300D01*
X84100Y126000D01*
X73700D01*
X72800Y126900D01*
Y145900D01*
X73200Y146300D01*
X80300D01*
X80800Y145800D01*
D02*
G37*
G36*
X94700Y121900D02*
Y116000D01*
X95300Y115400D01*
Y103985D01*
X96056D01*
Y104300D01*
X150100D01*
Y96500D01*
X142200Y88600D01*
X134300Y96500D01*
X95200D01*
X94800Y96900D01*
X83600D01*
Y99400D01*
X84100Y99900D01*
X85000D01*
X87900Y102800D01*
Y106500D01*
X89500Y108100D01*
Y116500D01*
X91800Y118800D01*
Y122000D01*
X94600D01*
X94700Y121900D01*
D02*
G37*
G36*
X128649Y69368D02*
X127991Y68709D01*
X127681Y68246D01*
X127573Y67700D01*
X127573Y67700D01*
Y59842D01*
X125130Y57399D01*
X121125D01*
X120918Y57899D01*
X123609Y60591D01*
X123919Y61054D01*
X123999Y61457D01*
X124777D01*
X125242Y61550D01*
X125637Y61813D01*
X125900Y62207D01*
X125993Y62672D01*
Y64847D01*
X125900Y65312D01*
X125637Y65707D01*
X125242Y65970D01*
X124777Y66063D01*
X124370D01*
X124035Y66393D01*
X123926Y66939D01*
X123616Y67402D01*
X122581Y68437D01*
X122789Y68937D01*
X124777D01*
X125242Y69030D01*
X125637Y69293D01*
X125900Y69687D01*
X125928Y69830D01*
X128458D01*
X128649Y69368D01*
D02*
G37*
G36*
X131671Y48467D02*
Y17033D01*
X127366Y12729D01*
X101734D01*
X85587Y28876D01*
Y30825D01*
X86534D01*
Y33858D01*
X87333Y34657D01*
X87333Y34657D01*
X87642Y35120D01*
X87751Y35666D01*
Y39920D01*
X90768D01*
Y44420D01*
X90768Y44480D01*
Y44921D01*
X90768Y44980D01*
Y45773D01*
X92861D01*
Y44527D01*
X93812D01*
Y43175D01*
X92809D01*
Y38025D01*
X97761D01*
Y43175D01*
X96667D01*
Y44173D01*
X97020Y44527D01*
X97617Y44527D01*
X98117Y44527D01*
X102539D01*
Y45773D01*
X103809D01*
X104273Y45309D01*
Y28776D01*
X104273Y28776D01*
X104381Y28230D01*
X104691Y27767D01*
X107351Y25106D01*
Y20401D01*
X114076D01*
Y27125D01*
X109370D01*
X108682Y27813D01*
X108874Y28275D01*
X114076D01*
Y30210D01*
X118980D01*
X119556Y29634D01*
Y23550D01*
X127461D01*
Y31850D01*
X124936D01*
Y33991D01*
X124936Y33991D01*
X124827Y34538D01*
X124518Y35001D01*
X120327Y39191D01*
Y50215D01*
X120424Y50675D01*
X127149D01*
Y52461D01*
X127649Y52488D01*
X131671Y48467D01*
D02*
G37*
G36*
X170800Y40800D02*
X171800Y39800D01*
Y38000D01*
X172000D01*
Y26100D01*
Y22800D01*
X167700Y18500D01*
X164900D01*
Y18800D01*
X164500Y19200D01*
Y26100D01*
Y37900D01*
X164700D01*
X167200Y40400D01*
Y44500D01*
X170800D01*
Y40800D01*
D02*
G37*
G36*
X56200Y58500D02*
X67600D01*
Y58400D01*
X67700Y58300D01*
Y50900D01*
X49800D01*
X48000Y52700D01*
Y73500D01*
X56200D01*
Y58500D01*
D02*
G37*
G36*
X67600Y41000D02*
X42700D01*
X36100Y34400D01*
X24500D01*
X22300Y36600D01*
Y45800D01*
X25000Y48500D01*
X67600D01*
Y41000D01*
D02*
G37*
%LPC*%
G36*
X35846Y46043D02*
X31213D01*
Y42591D01*
X35846D01*
Y46043D01*
D02*
G37*
G36*
X30213D02*
X25579D01*
Y42591D01*
X30213D01*
Y46043D01*
D02*
G37*
G36*
X35846Y41591D02*
X31213D01*
Y38138D01*
X35846D01*
Y41591D01*
D02*
G37*
G36*
X30213D02*
X25579D01*
Y38138D01*
X30213D01*
Y41591D01*
D02*
G37*
%LPD*%
G36*
X156400Y68700D02*
Y57400D01*
X156900D01*
X160000Y54300D01*
Y49200D01*
X159700Y48900D01*
X149300D01*
X148400Y49800D01*
Y68800D01*
X148800Y69200D01*
X151643D01*
X151822Y69081D01*
X152700Y68906D01*
X153578Y69081D01*
X153757Y69200D01*
X155900D01*
X156400Y68700D01*
D02*
G37*
G36*
X169200Y56800D02*
X168500Y56100D01*
Y52900D01*
X167500D01*
Y54500D01*
X166800D01*
X164800Y56500D01*
Y68000D01*
X164900Y68100D01*
X169200D01*
Y56800D01*
D02*
G37*
D15*
X93235Y214214D02*
X94086D01*
X98337Y205754D02*
Y209963D01*
X94086Y214214D02*
X98337Y209963D01*
X137100Y144300D02*
X140500D01*
X130700Y150700D02*
X137100Y144300D01*
X130700Y150700D02*
Y157600D01*
X112002Y176298D02*
X130700Y157600D01*
X107000Y92500D02*
X108939D01*
X112866Y88573D01*
X113161D01*
X114239Y87495D01*
Y87200D02*
Y87495D01*
X69500Y119000D02*
Y151500D01*
X73500Y155500D01*
X99947Y178553D02*
X100000Y178500D01*
X99947Y178553D02*
Y182490D01*
X129103Y136300D02*
X137200D01*
X139105Y134395D01*
Y129706D02*
Y134395D01*
X129103Y136300D02*
Y146397D01*
X129000Y146500D02*
X129103Y146397D01*
X134000Y160000D02*
X137830Y163830D01*
Y165330D01*
X138000Y165500D01*
X118165Y195500D02*
X118500D01*
X117199Y196466D02*
X118165Y195500D01*
X112349Y196466D02*
X117199D01*
X78790Y201191D02*
X89121D01*
X78600Y201000D02*
X78790Y201191D01*
X78700Y204100D02*
X80035Y202765D01*
X86001Y198041D02*
X89121D01*
X85061Y197100D02*
X86001Y198041D01*
X80035Y202765D02*
X89121D01*
X84700Y197100D02*
X85061D01*
X82286Y198800D02*
X83101Y199616D01*
X81800Y198800D02*
X82286D01*
X109396Y182490D02*
X113710D01*
X115000Y181200D01*
X83101Y199616D02*
X89121D01*
X158700Y130700D02*
X199300D01*
X199500Y130500D01*
X149100Y141200D02*
X197441D01*
X197487Y141154D01*
X198846D01*
X199500Y140500D01*
X123200Y143100D02*
X123400Y143300D01*
X100200Y143100D02*
X123200D01*
X204000Y42500D02*
X216500D01*
X199100Y47400D02*
X204000Y42500D01*
X184140Y85731D02*
X184300Y85891D01*
Y93900D01*
X104619Y128540D02*
X105025Y128134D01*
Y127740D02*
Y128134D01*
Y127740D02*
X105906Y126859D01*
X106300D01*
X98237Y128540D02*
X104619D01*
X98237Y121060D02*
X105619D01*
X106300Y121741D01*
X114103D02*
X114300Y121544D01*
X106300Y121741D02*
X114103D01*
X144814Y148696D02*
X144918Y148800D01*
X144814Y129706D02*
Y148696D01*
X141859Y129806D02*
X141959Y129706D01*
X141859Y129806D02*
Y140800D01*
X140500Y144300D02*
X141778Y143022D01*
Y140881D02*
Y143022D01*
Y140881D02*
X141859Y140800D01*
X142000Y152200D02*
X143742Y150458D01*
Y149976D02*
Y150458D01*
Y149976D02*
X144918Y148800D01*
X137800Y152200D02*
X142000D01*
X112500Y177500D02*
X137800Y152200D01*
X101522Y180078D02*
Y182490D01*
Y180078D02*
X105302Y176298D01*
X103097Y180203D02*
Y182490D01*
Y180203D02*
X105800Y177500D01*
X112500D01*
X105302Y176298D02*
X112002D01*
X108942Y171100D02*
X109921Y170121D01*
X105300Y171451D02*
Y173700D01*
X102900Y176100D02*
X105300Y173700D01*
X97100Y176100D02*
X102900D01*
X137022Y174269D02*
X144754D01*
X118200Y174300D02*
X131086D01*
X131116Y174269D01*
X113500Y179000D02*
X118200Y174300D01*
X107900Y179000D02*
X113500D01*
X106282Y180618D02*
X107900Y179000D01*
X106282Y180618D02*
Y182454D01*
X106246Y182490D02*
X106282Y182454D01*
X118913Y184239D02*
Y185087D01*
Y184239D02*
X119499Y183653D01*
X119700D01*
X118558Y185442D02*
X118913Y185087D01*
X112349Y185442D02*
X118558D01*
X109921Y164500D02*
Y170121D01*
X98850Y170850D02*
X99200Y171200D01*
X98850Y164500D02*
Y170850D01*
X105300Y171451D02*
X105651Y171100D01*
X108942D01*
X95223Y177977D02*
X97100Y176100D01*
X95223Y177977D02*
Y182490D01*
X93648Y177452D02*
X96758Y174342D01*
X97531D01*
X99200Y172674D01*
Y171200D02*
Y172674D01*
X93648Y177452D02*
Y182490D01*
X69985Y183400D02*
Y188600D01*
X85417Y187017D02*
X89121D01*
X81800Y183400D02*
X85417Y187017D01*
X75300Y183400D02*
X81800D01*
X75300Y188600D02*
X75343Y188643D01*
X81300D01*
X81350Y188592D01*
X89121D01*
X92073Y182490D02*
X92100Y182463D01*
Y172900D02*
Y182463D01*
X88900Y212000D02*
Y214131D01*
Y212000D02*
X89800Y211100D01*
X94700D01*
X96798Y209002D01*
Y205718D02*
Y209002D01*
X204600Y145400D02*
X209500Y140500D01*
X195400Y145400D02*
X204600D01*
X192527Y150500D02*
X199500D01*
X205000Y156200D02*
X208644Y152556D01*
Y152280D02*
Y152556D01*
Y152280D02*
X209500Y151424D01*
Y150500D02*
Y151424D01*
X189054Y156200D02*
X205000D01*
X184641Y162841D02*
X197159D01*
X199500Y160500D01*
X205450Y164550D02*
X209500Y160500D01*
X185158Y164550D02*
X205450D01*
X156392Y193316D02*
X185158Y164550D01*
X112349Y193316D02*
X156392D01*
X155740Y191742D02*
X184641Y162841D01*
X112349Y191742D02*
X155740D01*
X155087Y190167D02*
X189054Y156200D01*
X112349Y190167D02*
X155087D01*
X154435Y188592D02*
X192527Y150500D01*
X112349Y188592D02*
X154435D01*
X153783Y187017D02*
X195400Y145400D01*
X112349Y187017D02*
X153783D01*
X75021Y223861D02*
X75376Y224215D01*
X68200Y223861D02*
X75021D01*
X79824Y218585D02*
X79900Y218510D01*
Y212500D02*
Y218510D01*
X82215Y218585D02*
X83200Y217600D01*
X79824Y218585D02*
X82215D01*
X83200Y210800D02*
Y217600D01*
Y210800D02*
X85400Y208600D01*
X93000D01*
X93648Y207952D01*
Y205718D02*
Y207952D01*
X93800Y209800D02*
X95223Y208377D01*
X86700Y209800D02*
X93800D01*
X84400Y212100D02*
X86700Y209800D01*
X83500Y221400D02*
X84400Y220500D01*
X77600Y221400D02*
X83500D01*
X76611Y222389D02*
X77600Y221400D01*
X76611Y222389D02*
Y222979D01*
X75376Y224215D02*
X76611Y222979D01*
X84400Y212100D02*
Y220500D01*
X95223Y205718D02*
Y208377D01*
X98337Y205754D02*
X98372Y205718D01*
X111900Y211000D02*
X165200D01*
X169200Y207000D01*
X109396Y208496D02*
X111900Y211000D01*
X109396Y205718D02*
Y208496D01*
X176100Y212600D02*
X180700Y217200D01*
X111000Y212600D02*
X176100D01*
X107821Y209421D02*
X111000Y212600D01*
X107821Y205718D02*
Y209421D01*
X194300Y226200D02*
Y241800D01*
X199500Y247000D01*
X170707Y202607D02*
X194300Y226200D01*
X144000Y202607D02*
X170707D01*
X127734D02*
X144000D01*
X127600Y202741D02*
X127734Y202607D01*
X127576Y202765D02*
X127600Y202741D01*
X112349Y202765D02*
X127576D01*
X170541Y198041D02*
X199500Y227000D01*
X112349Y198041D02*
X170541D01*
D17*
X209500Y118900D02*
X211000Y120400D01*
X185600Y54100D02*
Y58285D01*
X185618Y58303D01*
X184642Y57327D02*
X185600Y58285D01*
X185618Y58303D02*
Y58500D01*
X184445Y57327D02*
X184642D01*
X181105Y53987D02*
X184445Y57327D01*
X180587Y53987D02*
X181105D01*
X180300Y53700D02*
X180587Y53987D01*
X174600Y66300D02*
Y69800D01*
X160500Y73500D02*
X170900D01*
X174600Y69800D01*
X154102Y62500D02*
X155454Y63852D01*
Y68454D01*
X160500Y73500D01*
X123787Y54037D02*
X128263D01*
X133200Y49100D01*
X128000Y11200D02*
X133200Y16400D01*
Y49100D01*
X84057Y28242D02*
X101100Y11200D01*
X128000D01*
X84057Y28242D02*
Y33400D01*
X209500Y103500D02*
Y118900D01*
X198500Y92500D02*
X209500Y103500D01*
X198500Y65500D02*
Y92500D01*
X191500Y58500D02*
X198500Y65500D01*
X185618Y58500D02*
X191500D01*
X185600Y54100D02*
X187500Y52200D01*
Y48803D02*
Y52200D01*
X166898Y62500D02*
X168032Y61366D01*
Y50980D02*
Y61366D01*
X92100Y134000D02*
X92331Y133768D01*
Y128540D02*
Y133768D01*
D18*
X79500Y21700D02*
Y22160D01*
X78742Y22918D02*
X79500Y22160D01*
X78742Y22918D02*
Y33400D01*
X100600Y29269D02*
Y40600D01*
X99500Y28800D02*
X99960D01*
X100429Y29269D01*
X100600D01*
X91500Y29700D02*
Y30100D01*
X133100Y143700D02*
X134747Y142053D01*
X132900Y143700D02*
X133100D01*
X136741Y140800D02*
Y140977D01*
X135665Y142053D02*
X136741Y140977D01*
X134747Y142053D02*
X135665D01*
X120500Y206700D02*
X122800D01*
X123959Y207859D01*
X127600D01*
X153845Y170100D02*
X155100D01*
X149676Y174269D02*
X153845Y170100D01*
X173937Y47937D02*
Y50980D01*
X173400Y47400D02*
X173937Y47937D01*
X171968Y48831D02*
Y50980D01*
Y48831D02*
X173400Y47400D01*
X137592Y149208D02*
X139392D01*
X139800Y148800D01*
X135500Y151300D02*
X137592Y149208D01*
X166063Y46463D02*
X166800Y47200D01*
X166063Y43500D02*
Y46463D01*
X171968Y45968D02*
X173400Y47400D01*
X171968Y43500D02*
Y45968D01*
X85232Y34575D02*
X86324Y35666D01*
X85134Y34575D02*
X85232D01*
X84057Y33498D02*
X85134Y34575D01*
X84057Y33400D02*
Y33498D01*
X86324Y35666D02*
Y42200D01*
X123591Y133009D02*
X126300Y130300D01*
X123591Y133009D02*
Y136300D01*
X125440Y130300D02*
X126300D01*
X128600Y111700D02*
X128889Y111989D01*
X136251D01*
X139105D01*
X141959D01*
X144814D01*
X80800Y174800D02*
X81000Y174600D01*
X87400D01*
X99947Y194891D02*
Y205718D01*
X98569Y191939D02*
X100735Y194104D01*
X96798Y190167D02*
X98569Y191939D01*
X89121Y190167D02*
X96798D01*
X86800Y206000D02*
X87082Y205718D01*
X92073D01*
X125047Y183653D02*
X127000Y181700D01*
X119700Y183653D02*
X125047D01*
X149500Y55000D02*
X150000Y55500D01*
X99947Y194891D02*
X100735Y194104D01*
X202800Y86300D02*
X204000Y85100D01*
Y62961D02*
Y85100D01*
X209539Y52500D02*
X216500D01*
X205273Y56766D02*
X209539Y52500D01*
X205273Y56766D02*
Y56963D01*
X204197Y58039D02*
X205273Y56963D01*
X204000Y58039D02*
X204197D01*
X152700Y63902D02*
X154102Y62500D01*
X152700Y63902D02*
Y71200D01*
X134800Y71258D02*
Y73800D01*
X137300Y76300D01*
X86324Y47200D02*
X95239D01*
Y40646D02*
X95285Y40600D01*
X95239Y40646D02*
Y47200D01*
X100161D02*
X104400D01*
X105700Y45900D01*
Y28776D02*
Y45900D01*
Y28776D02*
X110713Y23763D01*
X129000Y67700D02*
X132494Y71194D01*
X134736D01*
X134800Y71258D01*
X129000Y59250D02*
Y67700D01*
X123787Y54037D02*
X129000Y59250D01*
X110933Y63700D02*
X110991Y63642D01*
Y50100D02*
Y63642D01*
X123509Y27897D02*
Y33991D01*
X110713Y31637D02*
X119572D01*
X120759Y30450D01*
X120956D01*
X123509Y27897D01*
Y27700D02*
Y27897D01*
X122607Y71240D02*
X122624Y71258D01*
X134800D01*
X102000Y63700D02*
X110933D01*
X101500Y64200D02*
X102000Y63700D01*
X101500Y64200D02*
Y66843D01*
X110993Y71240D02*
Y77750D01*
X112968Y79725D01*
X113066D01*
X114143Y80802D01*
Y80900D01*
X114239Y80997D01*
Y87200D01*
X119161D02*
X119457Y86903D01*
Y80900D02*
Y86903D01*
X118300Y68169D02*
X118769Y67700D01*
X118300Y68169D02*
Y79257D01*
X118381Y79338D01*
Y79824D01*
X119457Y80900D01*
X118769Y67700D02*
X121300D01*
X122607Y66393D01*
Y63760D02*
Y66393D01*
X122600Y61600D02*
Y63753D01*
X122607Y63760D01*
X118900Y57900D02*
X122600Y61600D01*
X118900Y38600D02*
Y57900D01*
Y38600D02*
X123509Y33991D01*
X170000Y50980D02*
Y54500D01*
X174000Y58500D01*
X180500D01*
X180400Y58600D02*
X180500Y58500D01*
X180400Y58600D02*
Y77069D01*
X94300Y131500D02*
X99500Y136700D01*
X104941D01*
X94300Y128540D02*
Y131500D01*
X81700Y128553D02*
X81713Y128540D01*
X90363D01*
X157600Y51253D02*
X157872Y50980D01*
X166063D01*
X173937Y43500D02*
Y43593D01*
X174029Y43685D01*
X181000D01*
X187500D01*
X110059Y131297D02*
X112928Y128428D01*
Y128034D02*
Y128428D01*
Y128034D02*
X113906Y127056D01*
X114300D01*
X110059Y131297D02*
Y136700D01*
X123191D02*
X123591Y136300D01*
X110059Y136700D02*
X123191D01*
X87400Y184578D02*
X88265Y185442D01*
X87400Y174600D02*
Y184578D01*
X88265Y185442D02*
X89121D01*
X99947Y211583D02*
X100465Y212100D01*
X99947Y205718D02*
Y211583D01*
X103500Y210700D02*
Y212065D01*
X103535Y212100D01*
X101522Y208722D02*
X103500Y210700D01*
X101522Y205718D02*
Y208722D01*
X96268Y128540D02*
X98237D01*
D20*
X99465Y246802D02*
D03*
X107535D02*
D03*
X99465Y239321D02*
D03*
X107535D02*
D03*
D21*
X103500Y247628D02*
D03*
Y238494D02*
D03*
D22*
X103535Y218270D02*
D03*
Y222010D02*
D03*
D23*
X106417Y164500D02*
D03*
X110354D02*
D03*
X102354D02*
D03*
X98417D02*
D03*
X99528Y214124D02*
D03*
X103465D02*
D03*
X107468Y233800D02*
D03*
X103532D02*
D03*
X79408Y212500D02*
D03*
X75471D02*
D03*
X103545Y253796D02*
D03*
X107482D02*
D03*
D24*
X166063Y50980D02*
D03*
X168032D02*
D03*
X170000D02*
D03*
X171968D02*
D03*
X173937D02*
D03*
Y43500D02*
D03*
X171968D02*
D03*
X170000D02*
D03*
X168032D02*
D03*
X166063D02*
D03*
X90363Y121060D02*
D03*
X92331D02*
D03*
X94300D02*
D03*
X96268D02*
D03*
X98237D02*
D03*
Y128540D02*
D03*
X96268D02*
D03*
X94300D02*
D03*
X92331D02*
D03*
X90363D02*
D03*
D25*
X204000Y58039D02*
D03*
Y62961D02*
D03*
X127600Y202741D02*
D03*
Y207859D02*
D03*
D26*
X119161Y87200D02*
D03*
X114239D02*
D03*
X95239Y47200D02*
D03*
X100161D02*
D03*
X144754Y174269D02*
D03*
X149676D02*
D03*
D27*
X181000Y43685D02*
D03*
Y48803D02*
D03*
X187500Y43685D02*
D03*
Y48803D02*
D03*
X106300Y126859D02*
D03*
Y121741D02*
D03*
D28*
X129103Y136300D02*
D03*
X123591D02*
D03*
D29*
X114300Y121544D02*
D03*
Y127056D02*
D03*
D30*
X68200Y223369D02*
D03*
Y219431D02*
D03*
X92100Y172900D02*
D03*
Y168963D02*
D03*
X88900Y214131D02*
D03*
Y218069D02*
D03*
X93235Y214135D02*
D03*
Y218072D02*
D03*
D31*
X75300Y188600D02*
D03*
X69985D02*
D03*
Y183400D02*
D03*
X75300D02*
D03*
X119457Y80900D02*
D03*
X114143D02*
D03*
X100600Y40600D02*
D03*
X95285D02*
D03*
X78742Y33400D02*
D03*
X84057D02*
D03*
D32*
X87400Y169285D02*
D03*
Y174600D02*
D03*
X81300Y188643D02*
D03*
Y193957D02*
D03*
X101500Y72158D02*
D03*
Y66843D02*
D03*
X134800Y65943D02*
D03*
Y71258D02*
D03*
D33*
X144000Y215993D02*
D03*
Y202607D02*
D03*
D34*
X144814Y129706D02*
D03*
X141959D02*
D03*
X139105D02*
D03*
X136251D02*
D03*
X144814Y111989D02*
D03*
X141959D02*
D03*
X139105D02*
D03*
X136251D02*
D03*
D35*
X144918Y148800D02*
D03*
X139800D02*
D03*
X141859Y140800D02*
D03*
X136741D02*
D03*
X104941Y136700D02*
D03*
X110059D02*
D03*
X180500Y58500D02*
D03*
X185618D02*
D03*
D36*
X180400Y77069D02*
D03*
X176660Y85731D02*
D03*
X184140D02*
D03*
D37*
X137022Y174269D02*
D03*
X131116D02*
D03*
D38*
X119700Y183653D02*
D03*
Y177747D02*
D03*
D39*
X75376Y218585D02*
D03*
Y224215D02*
D03*
X79824Y218585D02*
D03*
Y224215D02*
D03*
D40*
X99200Y171200D02*
D03*
X109043D02*
D03*
D41*
X92073Y182490D02*
D03*
X93648D02*
D03*
X95223D02*
D03*
X96798D02*
D03*
X98372D02*
D03*
X99947D02*
D03*
X101522D02*
D03*
X103097D02*
D03*
X104672D02*
D03*
X106246D02*
D03*
X107821D02*
D03*
X109396D02*
D03*
Y205718D02*
D03*
X107821D02*
D03*
X106246D02*
D03*
X104672D02*
D03*
X103097D02*
D03*
X101522D02*
D03*
X99947D02*
D03*
X98372D02*
D03*
X96798D02*
D03*
X95223D02*
D03*
X93648D02*
D03*
X92073D02*
D03*
D42*
X112349Y185442D02*
D03*
Y187017D02*
D03*
Y188592D02*
D03*
Y190167D02*
D03*
Y191742D02*
D03*
Y193316D02*
D03*
Y194891D02*
D03*
Y196466D02*
D03*
Y198041D02*
D03*
Y199616D02*
D03*
Y201191D02*
D03*
Y202765D02*
D03*
X89121D02*
D03*
Y201191D02*
D03*
Y199616D02*
D03*
Y198041D02*
D03*
Y196466D02*
D03*
Y194891D02*
D03*
Y193316D02*
D03*
Y191742D02*
D03*
Y190167D02*
D03*
Y188592D02*
D03*
Y187017D02*
D03*
Y185442D02*
D03*
D43*
X100735Y194104D02*
D03*
D44*
X81700Y128553D02*
D03*
Y122647D02*
D03*
X157600Y51253D02*
D03*
Y45347D02*
D03*
D45*
X91398Y139500D02*
D03*
X78602D02*
D03*
X166898Y62500D02*
D03*
X154102D02*
D03*
D46*
X81473Y110300D02*
D03*
X92300D02*
D03*
X157173Y32000D02*
D03*
X168000D02*
D03*
D47*
X28600Y113284D02*
D03*
Y98716D02*
D03*
D48*
X24917Y63000D02*
D03*
X52083D02*
D03*
D49*
X122607Y71240D02*
D03*
Y63760D02*
D03*
X110993D02*
D03*
Y67500D02*
D03*
Y71240D02*
D03*
D50*
X123787Y46163D02*
D03*
Y54037D02*
D03*
X110713Y31637D02*
D03*
Y23763D02*
D03*
D51*
X110991Y50100D02*
D03*
X123509Y27700D02*
D03*
D52*
X82507Y85800D02*
D03*
X70893D02*
D03*
D53*
X86324Y42200D02*
D03*
Y47200D02*
D03*
Y52200D02*
D03*
Y57200D02*
D03*
X64276Y42200D02*
D03*
Y47200D02*
D03*
Y52200D02*
D03*
Y57200D02*
D03*
D101*
X103500Y275000D02*
D03*
D102*
X90331D02*
D03*
X98716D02*
D03*
D103*
X170000Y47240D02*
D03*
X94300Y124800D02*
D03*
D104*
X103500Y255400D02*
Y273900D01*
Y222210D02*
Y231200D01*
D105*
Y253812D02*
Y255400D01*
Y253812D02*
X103516Y253796D01*
X103545D01*
X103500Y236287D02*
Y238494D01*
Y234100D02*
Y236287D01*
X155600Y106800D02*
Y117500D01*
X152000Y103200D02*
X155600Y106800D01*
X139400Y103200D02*
X152000D01*
X155600Y117500D02*
X163700Y125600D01*
X204600D01*
X52083Y63000D02*
Y69496D01*
X48539Y73039D02*
X52083Y69496D01*
X48539Y73039D02*
Y86000D01*
X91000Y101700D02*
X91800Y100900D01*
Y100400D02*
Y100900D01*
Y100400D02*
X94900Y97300D01*
X70693Y86000D02*
X70893Y85800D01*
X48539Y86000D02*
X70693D01*
X24917Y82457D02*
X28461Y86000D01*
X24917Y63000D02*
Y82457D01*
X64267Y42191D02*
X64276Y42200D01*
X94900Y97300D02*
X133500D01*
X204600Y125600D02*
X209500Y130500D01*
X133500Y97300D02*
X139400Y103200D01*
X133500Y97300D02*
X142200Y88600D01*
Y23900D02*
Y88600D01*
Y23900D02*
X148700Y17400D01*
X162600D01*
X168000Y22800D01*
Y32000D01*
X89200Y102300D02*
Y104814D01*
X90372Y105985D01*
X90544D01*
X92300Y107741D01*
Y110300D01*
X85400Y98500D02*
X89200Y102300D01*
X71772Y98500D02*
X85400D01*
X70600Y99672D02*
X71772Y98500D01*
X70600Y99672D02*
Y109300D01*
X63000Y116900D02*
X70600Y109300D01*
X63000Y116900D02*
Y144100D01*
X54265Y152835D02*
X63000Y144100D01*
X28650Y152835D02*
X54265D01*
X103535Y212100D02*
Y218270D01*
D106*
X103500Y247628D02*
Y253751D01*
D107*
X84500Y151700D02*
Y153586D01*
X76700Y143900D02*
X84500Y151700D01*
X76700Y142700D02*
Y143900D01*
X28600Y133100D02*
X28650Y133150D01*
X28600Y113284D02*
Y133100D01*
X28461Y98577D02*
X28600Y98716D01*
X28461Y86000D02*
Y98577D01*
X103500Y231200D02*
Y233800D01*
D108*
X11866504Y903618D02*
Y1060232D01*
D109*
X199500Y160500D02*
D03*
X209500D02*
D03*
X199500Y150500D02*
D03*
X209500D02*
D03*
X199500Y140500D02*
D03*
X209500D02*
D03*
X199500Y130500D02*
D03*
X209500D02*
D03*
X199500Y120500D02*
D03*
X209500D02*
D03*
X199500Y247000D02*
D03*
X209500D02*
D03*
X199500Y237000D02*
D03*
X209500D02*
D03*
X199500Y227000D02*
D03*
X209500D02*
D03*
X199500Y217000D02*
D03*
X209500D02*
D03*
X199500Y207000D02*
D03*
X209500D02*
D03*
D110*
X170500Y108500D02*
D03*
X53000Y243500D02*
D03*
X170500D02*
D03*
X53000Y106500D02*
D03*
D111*
X49216Y30279D02*
D03*
D112*
X30713Y18469D02*
D03*
Y42091D02*
D03*
D113*
X216500Y52500D02*
D03*
Y32500D02*
D03*
Y42500D02*
D03*
Y62500D02*
D03*
Y72500D02*
D03*
D114*
Y22500D02*
D03*
D115*
X28650Y152835D02*
D03*
Y133150D02*
D03*
X28461Y86000D02*
D03*
D116*
X48539D02*
D03*
D117*
X104000Y4500D02*
D03*
X72500D02*
D03*
X40000D02*
D03*
X206500D02*
D03*
X175000D02*
D03*
X142500D02*
D03*
X200000Y272500D02*
D03*
X168500D02*
D03*
X136000D02*
D03*
X231500D02*
D03*
Y240500D02*
D03*
Y203000D02*
D03*
Y172500D02*
D03*
Y144000D02*
D03*
Y110500D02*
D03*
Y78000D02*
D03*
X232000Y41500D02*
D03*
X231500Y4500D02*
D03*
X4000D02*
D03*
Y45000D02*
D03*
Y77500D02*
D03*
Y110000D02*
D03*
Y143500D02*
D03*
Y172000D02*
D03*
Y202500D02*
D03*
Y234500D02*
D03*
Y273000D02*
D03*
X36500D02*
D03*
X68000D02*
D03*
X98500Y250500D02*
D03*
X108500Y218500D02*
D03*
Y250500D02*
D03*
X98500Y235500D02*
D03*
X108500Y228500D02*
D03*
X98500Y225500D02*
D03*
Y256000D02*
D03*
X108500Y258500D02*
D03*
X98500Y263500D02*
D03*
X108500Y265500D02*
D03*
Y273000D02*
D03*
X98500D02*
D03*
X90500D02*
D03*
X170500Y234400D02*
D03*
X176800Y237200D02*
D03*
X179600Y243500D02*
D03*
X176800Y249800D02*
D03*
X170500Y252500D02*
D03*
X164200Y249800D02*
D03*
X161400Y243500D02*
D03*
X164200Y237200D02*
D03*
X53000Y115500D02*
D03*
X59300Y112800D02*
D03*
X62100Y106500D02*
D03*
X59300Y100200D02*
D03*
X53000Y97400D02*
D03*
X46700Y100200D02*
D03*
X43900Y106500D02*
D03*
X46700Y112800D02*
D03*
X170500Y117500D02*
D03*
X176800Y114800D02*
D03*
X179600Y108500D02*
D03*
X176800Y102200D02*
D03*
X170500Y99400D02*
D03*
X164200Y102200D02*
D03*
X161400Y108500D02*
D03*
X164200Y114800D02*
D03*
X46700Y249800D02*
D03*
X43900Y243500D02*
D03*
X46700Y237200D02*
D03*
X53000Y234400D02*
D03*
X59300Y237200D02*
D03*
X62100Y243500D02*
D03*
X59300Y249800D02*
D03*
X53000Y252500D02*
D03*
X79500Y21700D02*
D03*
X99500Y28800D02*
D03*
X180300Y53700D02*
D03*
X174600Y66300D02*
D03*
X132900Y143700D02*
D03*
X120500Y206700D02*
D03*
X155100Y170100D02*
D03*
X135500Y151300D02*
D03*
X126300Y130300D02*
D03*
X128600Y111700D02*
D03*
X84500Y153586D02*
D03*
X80800Y174800D02*
D03*
X86800Y206000D02*
D03*
X127000Y181700D02*
D03*
X107000Y92500D02*
D03*
X69500Y119000D02*
D03*
X73500Y155500D02*
D03*
X100000Y178500D02*
D03*
X129000Y146500D02*
D03*
X134000Y160000D02*
D03*
X138000Y165500D02*
D03*
X118500Y195500D02*
D03*
X81800Y198800D02*
D03*
X78700Y204100D02*
D03*
X78600Y201000D02*
D03*
X115000Y181200D02*
D03*
X84700Y197100D02*
D03*
X158700Y130700D02*
D03*
X149100Y141200D02*
D03*
X123400Y143300D02*
D03*
X100200Y143100D02*
D03*
X199100Y47400D02*
D03*
X202800Y86300D02*
D03*
X152700Y71200D02*
D03*
X137300Y76300D02*
D03*
X184300Y93900D02*
D03*
X169200Y207000D02*
D03*
X180700Y217200D02*
D03*
D118*
X94239Y187608D02*
D03*
Y191939D02*
D03*
Y196269D02*
D03*
Y200600D02*
D03*
X98569Y187608D02*
D03*
Y191939D02*
D03*
Y196269D02*
D03*
Y200600D02*
D03*
X102900Y187608D02*
D03*
Y191939D02*
D03*
Y196269D02*
D03*
Y200600D02*
D03*
X107231Y187608D02*
D03*
Y191939D02*
D03*
Y196269D02*
D03*
Y200600D02*
D03*
M02*
