G04*
G04 #@! TF.GenerationSoftware,Altium Limited,Altium Designer,19.1.8 (144)*
G04*
G04 Layer_Color=16711935*
%FSLAX25Y25*%
%MOIN*%
G70*
G01*
G75*
%ADD13C,0.00787*%
%ADD119C,0.00300*%
%ADD120C,0.00236*%
D13*
X161209Y304400D02*
X236221D01*
X236221D02*
X236221Y0D01*
X70866D02*
X90551D01*
X59055D02*
X70866D01*
X90551D02*
X94488D01*
X141732D02*
X177165D01*
X236221D01*
X0D02*
X59055D01*
X0Y304400D02*
X50972D01*
X-0D02*
X0Y0D01*
X50972Y304400D02*
X161209D01*
X94488Y0D02*
X141732D01*
D119*
X171001Y43740D02*
X172667D01*
X173000Y44073D01*
Y44740D01*
X172667Y45073D01*
X171001D01*
X171334Y45739D02*
X171001Y46073D01*
Y46739D01*
X171334Y47072D01*
X171667D01*
X172000Y46739D01*
Y46406D01*
Y46739D01*
X172334Y47072D01*
X172667D01*
X173000Y46739D01*
Y46073D01*
X172667Y45739D01*
X95301Y121300D02*
X96967D01*
X97300Y121633D01*
Y122300D01*
X96967Y122633D01*
X95301D01*
X97300Y124299D02*
X95301D01*
X96300Y123299D01*
Y124632D01*
D120*
X114300Y68574D02*
Y67262D01*
X114562Y67000D01*
X115087D01*
X115349Y67262D01*
Y68574D01*
X115874Y67000D02*
X116399D01*
X116137D01*
Y68574D01*
X115874Y68312D01*
X117186D02*
X117449Y68574D01*
X117973D01*
X118236Y68312D01*
Y68050D01*
X117973Y67787D01*
X117711D01*
X117973D01*
X118236Y67525D01*
Y67262D01*
X117973Y67000D01*
X117449D01*
X117186Y67262D01*
M02*
