G04*
G04 #@! TF.GenerationSoftware,Altium Limited,Altium Designer,19.1.8 (144)*
G04*
G04 Layer_Color=16711935*
%FSLAX25Y25*%
%MOIN*%
G70*
G01*
G75*
%ADD90C,0.04816*%
%ADD91C,0.23622*%
%ADD92C,0.23622*%
%ADD93R,0.06706X0.09068*%
%ADD94R,0.09068X0.06706*%
%ADD95C,0.07099*%
%ADD96R,0.07099X0.07099*%
%ADD97C,0.05918*%
%ADD98R,0.05918X0.05918*%
%ADD99C,0.01700*%
%ADD100C,0.02769*%
D90*
X199500Y160500D02*
D03*
X209500D02*
D03*
X199500Y150500D02*
D03*
X209500D02*
D03*
X199500Y140500D02*
D03*
X209500D02*
D03*
X199500Y130500D02*
D03*
X209500D02*
D03*
X199500Y120500D02*
D03*
X209500D02*
D03*
X199500Y247000D02*
D03*
X209500D02*
D03*
X199500Y237000D02*
D03*
X209500D02*
D03*
X199500Y227000D02*
D03*
X209500D02*
D03*
X199500Y217000D02*
D03*
X209500D02*
D03*
X199500Y207000D02*
D03*
X209500D02*
D03*
D91*
X170500Y108500D02*
D03*
Y243500D02*
D03*
X53000Y106500D02*
D03*
D92*
Y243500D02*
D03*
D93*
X49216Y30279D02*
D03*
D94*
X30713Y18469D02*
D03*
Y42091D02*
D03*
D95*
X216500Y52500D02*
D03*
Y32500D02*
D03*
Y42500D02*
D03*
Y62500D02*
D03*
Y72500D02*
D03*
D96*
Y22500D02*
D03*
D97*
X28650Y152835D02*
D03*
Y133150D02*
D03*
X28461Y86000D02*
D03*
D98*
X48539D02*
D03*
D99*
X104000Y4500D02*
D03*
X72500D02*
D03*
X40000D02*
D03*
X206500D02*
D03*
X175000D02*
D03*
X142500D02*
D03*
X200000Y272500D02*
D03*
X168500D02*
D03*
X136000D02*
D03*
X231500D02*
D03*
Y240500D02*
D03*
Y203000D02*
D03*
Y172500D02*
D03*
Y144000D02*
D03*
Y110500D02*
D03*
Y78000D02*
D03*
X232000Y41500D02*
D03*
X231500Y4500D02*
D03*
X4000D02*
D03*
Y45000D02*
D03*
Y77500D02*
D03*
Y110000D02*
D03*
Y143500D02*
D03*
Y172000D02*
D03*
Y202500D02*
D03*
Y234500D02*
D03*
Y273000D02*
D03*
X36500D02*
D03*
X68000D02*
D03*
X98500Y250500D02*
D03*
X108500Y218500D02*
D03*
Y250500D02*
D03*
X98500Y235500D02*
D03*
X108500Y228500D02*
D03*
X98500Y225500D02*
D03*
Y256000D02*
D03*
X108500Y258500D02*
D03*
X98500Y263500D02*
D03*
X108500Y265500D02*
D03*
Y273000D02*
D03*
X98500D02*
D03*
X90500D02*
D03*
D100*
X94239Y187608D02*
D03*
Y191939D02*
D03*
Y196269D02*
D03*
Y200600D02*
D03*
X98569Y187608D02*
D03*
Y191939D02*
D03*
Y196269D02*
D03*
Y200600D02*
D03*
X102900Y187608D02*
D03*
Y191939D02*
D03*
Y196269D02*
D03*
Y200600D02*
D03*
X107231Y187608D02*
D03*
Y191939D02*
D03*
Y196269D02*
D03*
Y200600D02*
D03*
M02*
