G04*
G04 #@! TF.GenerationSoftware,Altium Limited,Altium Designer,19.1.8 (144)*
G04*
G04 Layer_Color=16711935*
%FSLAX25Y25*%
%MOIN*%
G70*
G01*
G75*
%ADD14R,0.07887X0.14186*%
%ADD15R,0.14186X0.07887*%
%ADD18R,0.06902X0.05721*%
%ADD19R,0.04147X0.03753*%
%ADD21O,0.50000X0.25000*%
G04:AMPARAMS|DCode=22|XSize=90.68mil|YSize=63.12mil|CornerRadius=10.89mil|HoleSize=0mil|Usage=FLASHONLY|Rotation=90.000|XOffset=0mil|YOffset=0mil|HoleType=Round|Shape=RoundedRectangle|*
%AMROUNDEDRECTD22*
21,1,0.09068,0.04134,0,0,90.0*
21,1,0.06890,0.06312,0,0,90.0*
1,1,0.02178,0.02067,0.03445*
1,1,0.02178,0.02067,-0.03445*
1,1,0.02178,-0.02067,-0.03445*
1,1,0.02178,-0.02067,0.03445*
%
%ADD22ROUNDEDRECTD22*%
%ADD23C,0.05524*%
G04:AMPARAMS|DCode=24|XSize=102.49mil|YSize=118.24mil|CornerRadius=27.62mil|HoleSize=0mil|Usage=FLASHONLY|Rotation=225.000|XOffset=0mil|YOffset=0mil|HoleType=Round|Shape=RoundedRectangle|*
%AMROUNDEDRECTD24*
21,1,0.10249,0.06299,0,0,225.0*
21,1,0.04724,0.11824,0,0,225.0*
1,1,0.05524,-0.03897,0.00557*
1,1,0.05524,-0.00557,0.03897*
1,1,0.05524,0.03897,-0.00557*
1,1,0.05524,0.00557,-0.03897*
%
%ADD24ROUNDEDRECTD24*%
G04:AMPARAMS|DCode=25|XSize=102.49mil|YSize=118.24mil|CornerRadius=27.62mil|HoleSize=0mil|Usage=FLASHONLY|Rotation=180.000|XOffset=0mil|YOffset=0mil|HoleType=Round|Shape=RoundedRectangle|*
%AMROUNDEDRECTD25*
21,1,0.10249,0.06299,0,0,180.0*
21,1,0.04724,0.11824,0,0,180.0*
1,1,0.05524,-0.02362,0.03150*
1,1,0.05524,0.02362,0.03150*
1,1,0.05524,0.02362,-0.03150*
1,1,0.05524,-0.02362,-0.03150*
%
%ADD25ROUNDEDRECTD25*%
G04:AMPARAMS|DCode=26|XSize=102.49mil|YSize=118.24mil|CornerRadius=27.62mil|HoleSize=0mil|Usage=FLASHONLY|Rotation=135.000|XOffset=0mil|YOffset=0mil|HoleType=Round|Shape=RoundedRectangle|*
%AMROUNDEDRECTD26*
21,1,0.10249,0.06299,0,0,135.0*
21,1,0.04724,0.11824,0,0,135.0*
1,1,0.05524,0.00557,0.03897*
1,1,0.05524,0.03897,0.00557*
1,1,0.05524,-0.00557,-0.03897*
1,1,0.05524,-0.03897,-0.00557*
%
%ADD26ROUNDEDRECTD26*%
G04:AMPARAMS|DCode=27|XSize=102.49mil|YSize=118.24mil|CornerRadius=27.62mil|HoleSize=0mil|Usage=FLASHONLY|Rotation=90.000|XOffset=0mil|YOffset=0mil|HoleType=Round|Shape=RoundedRectangle|*
%AMROUNDEDRECTD27*
21,1,0.10249,0.06299,0,0,90.0*
21,1,0.04724,0.11824,0,0,90.0*
1,1,0.05524,0.03150,0.02362*
1,1,0.05524,0.03150,-0.02362*
1,1,0.05524,-0.03150,-0.02362*
1,1,0.05524,-0.03150,0.02362*
%
%ADD27ROUNDEDRECTD27*%
%ADD28C,0.00800*%
%ADD29C,0.04816*%
%ADD30C,0.23622*%
%ADD74R,0.04934X0.04934*%
%ADD75R,0.04737X0.11824*%
%ADD76R,0.16194X0.15564*%
%ADD77R,0.03202X0.05800*%
%ADD78R,0.11430X0.04540*%
G04:AMPARAMS|DCode=79|XSize=19.75mil|YSize=45.34mil|CornerRadius=3.97mil|HoleSize=0mil|Usage=FLASHONLY|Rotation=270.000|XOffset=0mil|YOffset=0mil|HoleType=Round|Shape=RoundedRectangle|*
%AMROUNDEDRECTD79*
21,1,0.01975,0.03740,0,0,270.0*
21,1,0.01181,0.04534,0,0,270.0*
1,1,0.00794,-0.01870,-0.00591*
1,1,0.00794,-0.01870,0.00591*
1,1,0.00794,0.01870,0.00591*
1,1,0.00794,0.01870,-0.00591*
%
%ADD79ROUNDEDRECTD79*%
%ADD80R,0.04734X0.04734*%
%ADD81R,0.03753X0.04147*%
%ADD82R,0.03162X0.03950*%
%ADD83R,0.06706X0.09658*%
%ADD84R,0.06509X0.05328*%
%ADD85R,0.06115X0.04737*%
%ADD86R,0.06902X0.06115*%
%ADD87R,0.12217X0.07690*%
%ADD88R,0.11036X0.04934*%
%ADD89R,0.03950X0.03753*%
%ADD90R,0.06312X0.05524*%
G04:AMPARAMS|DCode=91|XSize=31.62mil|YSize=65.09mil|CornerRadius=6.01mil|HoleSize=0mil|Usage=FLASHONLY|Rotation=0.000|XOffset=0mil|YOffset=0mil|HoleType=Round|Shape=RoundedRectangle|*
%AMROUNDEDRECTD91*
21,1,0.03162,0.05307,0,0,0.0*
21,1,0.01961,0.06509,0,0,0.0*
1,1,0.01202,0.00980,-0.02653*
1,1,0.01202,-0.00980,-0.02653*
1,1,0.01202,-0.00980,0.02653*
1,1,0.01202,0.00980,0.02653*
%
%ADD91ROUNDEDRECTD91*%
%ADD92R,0.03753X0.03950*%
D14*
X396000Y34000D02*
D03*
X386000D02*
D03*
D15*
X126000Y60000D02*
D03*
D18*
X444000Y70735D02*
D03*
Y62665D02*
D03*
X357100Y68235D02*
D03*
Y60165D02*
D03*
X268500Y68135D02*
D03*
Y60065D02*
D03*
X174900Y68135D02*
D03*
Y60065D02*
D03*
D19*
X492000Y60618D02*
D03*
Y55500D02*
D03*
X472500Y60500D02*
D03*
Y55382D02*
D03*
D21*
X38000Y147000D02*
D03*
D22*
X504882Y106000D02*
D03*
X460000D02*
D03*
D23*
X492283Y133559D02*
D03*
X472598D02*
D03*
X482441Y76472D02*
D03*
X492283D02*
D03*
X472598D02*
D03*
D24*
X251846Y86984D02*
D03*
X244956Y73204D02*
D03*
X206570Y122416D02*
D03*
X213460Y136196D02*
D03*
X163000Y86984D02*
D03*
X156110Y73204D02*
D03*
X117724Y122416D02*
D03*
X124614Y136196D02*
D03*
X391152D02*
D03*
X384262Y122416D02*
D03*
X422648Y73204D02*
D03*
X429538Y86984D02*
D03*
X340692D02*
D03*
X333802Y73204D02*
D03*
X295416Y122416D02*
D03*
X302306Y136196D02*
D03*
D25*
X229208Y69267D02*
D03*
Y140133D02*
D03*
X140362Y69267D02*
D03*
Y140133D02*
D03*
X406900D02*
D03*
Y69267D02*
D03*
X318054D02*
D03*
Y140133D02*
D03*
D26*
X213460Y73204D02*
D03*
X206570Y86984D02*
D03*
X244956Y136196D02*
D03*
X251846Y122416D02*
D03*
X124614Y73204D02*
D03*
X117724Y86984D02*
D03*
X156110Y136196D02*
D03*
X163000Y122416D02*
D03*
X429538D02*
D03*
X422648Y136196D02*
D03*
X384262Y86984D02*
D03*
X391152Y73204D02*
D03*
X302306D02*
D03*
X295416Y86984D02*
D03*
X333802Y136196D02*
D03*
X340692Y122416D02*
D03*
D27*
X206570Y104700D02*
D03*
X251846D02*
D03*
X117724D02*
D03*
X163000D02*
D03*
X429538D02*
D03*
X384262D02*
D03*
X295416D02*
D03*
X340692D02*
D03*
D28*
X229208D02*
D03*
X140362D02*
D03*
X406900D02*
D03*
X318054D02*
D03*
D29*
X288000Y24000D02*
D03*
X288000Y34000D02*
D03*
X278000Y24000D02*
D03*
X278000Y34000D02*
D03*
X268000Y24000D02*
D03*
Y34000D02*
D03*
X258000Y24000D02*
D03*
X258000Y34000D02*
D03*
X248000Y24000D02*
D03*
X248000Y34000D02*
D03*
D30*
X526000Y16000D02*
D03*
X16000D02*
D03*
X526000Y204000D02*
D03*
X16000D02*
D03*
D74*
X497657Y68500D02*
D03*
X492343D02*
D03*
X467343Y68000D02*
D03*
X472657D02*
D03*
D75*
X78350Y90500D02*
D03*
X59650D02*
D03*
D76*
X43500Y104110D02*
D03*
D77*
X51000Y112024D02*
D03*
X46000D02*
D03*
X41000D02*
D03*
X36000D02*
D03*
Y91000D02*
D03*
X41000D02*
D03*
X46000D02*
D03*
X51000D02*
D03*
D78*
X78000Y102102D02*
D03*
Y114898D02*
D03*
D79*
X436224Y34161D02*
D03*
Y36720D02*
D03*
Y39279D02*
D03*
Y41839D02*
D03*
X451776Y34161D02*
D03*
Y36720D02*
D03*
Y39279D02*
D03*
Y41839D02*
D03*
D80*
X483500Y147000D02*
D03*
Y141685D02*
D03*
D81*
X467441Y50000D02*
D03*
X472559D02*
D03*
X496059Y147000D02*
D03*
X490941D02*
D03*
X497059Y50000D02*
D03*
X491941D02*
D03*
D82*
X91941Y39000D02*
D03*
X97059D02*
D03*
D83*
X18315Y171024D02*
D03*
X26189D02*
D03*
X34063D02*
D03*
X41937Y171024D02*
D03*
X49811Y171024D02*
D03*
X57685Y171024D02*
D03*
X18315Y123976D02*
D03*
X26189Y123976D02*
D03*
X34063Y123976D02*
D03*
X41937Y123976D02*
D03*
X49811Y123976D02*
D03*
X57685Y123976D02*
D03*
D84*
X79480Y63610D02*
D03*
X79480Y56721D02*
D03*
D85*
X92000Y97043D02*
D03*
Y89957D02*
D03*
D86*
X92000Y114339D02*
D03*
X92000Y106661D02*
D03*
D87*
X34000Y59610D02*
D03*
X34000Y48390D02*
D03*
D88*
X24000Y110716D02*
D03*
Y100284D02*
D03*
D89*
X23500Y93657D02*
D03*
Y88342D02*
D03*
X71480Y64823D02*
D03*
Y59508D02*
D03*
D90*
X77000Y123398D02*
D03*
Y135602D02*
D03*
D91*
X63480Y48937D02*
D03*
X58480Y48937D02*
D03*
X53480D02*
D03*
X48480Y48937D02*
D03*
X63480Y70394D02*
D03*
X58480Y70394D02*
D03*
X53480D02*
D03*
X48480Y70394D02*
D03*
D92*
X71342Y78000D02*
D03*
X76657D02*
D03*
M02*
