G04*
G04 #@! TF.GenerationSoftware,Altium Limited,Altium Designer,19.1.8 (144)*
G04*
G04 Layer_Color=65535*
%FSLAX25Y25*%
%MOIN*%
G70*
G01*
G75*
%ADD10C,0.02362*%
%ADD11C,0.00984*%
%ADD12C,0.00787*%
%ADD13C,0.01000*%
G36*
X258916Y60824D02*
X259172Y60751D01*
X259408Y60660D01*
X259609Y60569D01*
X259773Y60460D01*
X259900Y60369D01*
X259973Y60296D01*
X259991Y60277D01*
X260174Y60059D01*
X260319Y59822D01*
X260410Y59603D01*
X260483Y59385D01*
X260520Y59202D01*
X260556Y59057D01*
Y58965D01*
Y58947D01*
Y58929D01*
X260538Y58656D01*
X260465Y58382D01*
X260374Y58164D01*
X260283Y57964D01*
X260174Y57800D01*
X260083Y57690D01*
X260010Y57599D01*
X259991Y57581D01*
X259773Y57399D01*
X259536Y57271D01*
X259317Y57162D01*
X259099Y57107D01*
X258916Y57071D01*
X258752Y57052D01*
X258661Y57034D01*
X258625D01*
X258352Y57052D01*
X258078Y57125D01*
X257860Y57216D01*
X257659Y57307D01*
X257495Y57417D01*
X257386Y57490D01*
X257295Y57563D01*
X257277Y57581D01*
X257094Y57800D01*
X256949Y58036D01*
X256857Y58255D01*
X256785Y58474D01*
X256748Y58656D01*
X256730Y58802D01*
X256712Y58893D01*
Y58929D01*
X256730Y59221D01*
X256803Y59476D01*
X256894Y59694D01*
X257003Y59895D01*
X257094Y60059D01*
X257186Y60186D01*
X257258Y60259D01*
X257277Y60277D01*
X257495Y60460D01*
X257732Y60605D01*
X257951Y60697D01*
X258169Y60769D01*
X258352Y60806D01*
X258497Y60842D01*
X258625D01*
X258916Y60824D01*
D02*
G37*
G36*
X258370Y62172D02*
X258115Y62154D01*
X257641Y62045D01*
X257222Y61881D01*
X256857Y61717D01*
X256694Y61626D01*
X256548Y61535D01*
X256438Y61444D01*
X256329Y61371D01*
X256256Y61316D01*
X256202Y61261D01*
X256165Y61243D01*
X256147Y61225D01*
X255965Y61043D01*
X255801Y60842D01*
X255673Y60660D01*
X255546Y60460D01*
X255455Y60277D01*
X255363Y60095D01*
X255236Y59731D01*
X255163Y59421D01*
X255145Y59294D01*
X255127Y59184D01*
X255108Y59093D01*
Y59020D01*
Y58984D01*
Y58965D01*
X255127Y58674D01*
X255163Y58401D01*
X255200Y58164D01*
X255272Y57964D01*
X255327Y57800D01*
X255363Y57672D01*
X255400Y57599D01*
X255418Y57563D01*
X255546Y57344D01*
X255710Y57125D01*
X255874Y56925D01*
X256038Y56761D01*
X256202Y56597D01*
X256329Y56488D01*
X256402Y56415D01*
X256438Y56378D01*
X256147Y56160D01*
X255892Y55941D01*
X255673Y55722D01*
X255491Y55485D01*
X255327Y55249D01*
X255200Y55012D01*
X255090Y54793D01*
X254999Y54575D01*
X254944Y54374D01*
X254890Y54192D01*
X254853Y54010D01*
X254817Y53882D01*
Y53755D01*
X254799Y53663D01*
Y62191D01*
X258625D01*
X258370Y62172D01*
D02*
G37*
G36*
X262542Y53591D02*
X262524Y53882D01*
X262469Y54155D01*
X262396Y54429D01*
X262323Y54647D01*
X262251Y54848D01*
X262178Y54994D01*
X262123Y55085D01*
X262105Y55121D01*
X261923Y55394D01*
X261722Y55650D01*
X261504Y55850D01*
X261303Y56032D01*
X261103Y56178D01*
X260957Y56287D01*
X260848Y56360D01*
X260829Y56378D01*
X260811D01*
X261048Y56597D01*
X261267Y56816D01*
X261449Y57034D01*
X261595Y57271D01*
X261740Y57490D01*
X261850Y57708D01*
X261941Y57909D01*
X262014Y58109D01*
X262069Y58291D01*
X262105Y58474D01*
X262141Y58619D01*
X262160Y58747D01*
X262178Y58856D01*
Y58929D01*
Y58984D01*
Y59002D01*
X262160Y59239D01*
X262141Y59457D01*
X262087Y59676D01*
X262014Y59895D01*
X261850Y60259D01*
X261649Y60587D01*
X261449Y60860D01*
X261358Y60970D01*
X261285Y61061D01*
X261212Y61134D01*
X261176Y61188D01*
X261139Y61207D01*
X261121Y61225D01*
X260921Y61389D01*
X260702Y61553D01*
X260502Y61680D01*
X260283Y61790D01*
X259864Y61954D01*
X259481Y62063D01*
X259135Y62136D01*
X258989Y62154D01*
X258862Y62172D01*
X258771Y62191D01*
X262542D01*
Y53591D01*
D02*
G37*
G36*
X258935Y55668D02*
X259244Y55595D01*
X259536Y55485D01*
X259773Y55376D01*
X259973Y55267D01*
X260101Y55158D01*
X260192Y55085D01*
X260228Y55067D01*
X260465Y54830D01*
X260629Y54593D01*
X260757Y54356D01*
X260829Y54119D01*
X260884Y53919D01*
X260902Y53773D01*
X260921Y53663D01*
Y53645D01*
Y53627D01*
X260902Y53317D01*
X260829Y53026D01*
X260720Y52771D01*
X260611Y52570D01*
X260483Y52388D01*
X260392Y52261D01*
X260319Y52188D01*
X260283Y52151D01*
X260028Y51951D01*
X259773Y51823D01*
X259499Y51714D01*
X259263Y51641D01*
X259044Y51605D01*
X258880Y51587D01*
X258752Y51568D01*
X258716D01*
X258352Y51587D01*
X258042Y51659D01*
X257750Y51750D01*
X257513Y51860D01*
X257313Y51951D01*
X257186Y52042D01*
X257094Y52115D01*
X257058Y52133D01*
X256839Y52370D01*
X256675Y52607D01*
X256566Y52844D01*
X256493Y53080D01*
X256438Y53281D01*
X256420Y53445D01*
X256402Y53554D01*
Y53572D01*
Y53591D01*
X256420Y53900D01*
X256493Y54192D01*
X256603Y54447D01*
X256712Y54666D01*
X256821Y54830D01*
X256930Y54957D01*
X257003Y55048D01*
X257021Y55067D01*
X257277Y55267D01*
X257532Y55431D01*
X257805Y55540D01*
X258042Y55613D01*
X258260Y55650D01*
X258443Y55686D01*
X258589D01*
X258935Y55668D01*
D02*
G37*
G36*
X262542Y50220D02*
X258661D01*
X258953Y50238D01*
X259244Y50256D01*
X259773Y50366D01*
X260246Y50530D01*
X260447Y50621D01*
X260647Y50712D01*
X260811Y50803D01*
X260975Y50894D01*
X261103Y50985D01*
X261212Y51058D01*
X261303Y51113D01*
X261358Y51167D01*
X261394Y51186D01*
X261413Y51204D01*
X261613Y51386D01*
X261777Y51587D01*
X261941Y51787D01*
X262069Y51987D01*
X262178Y52188D01*
X262269Y52388D01*
X262396Y52771D01*
X262488Y53099D01*
X262506Y53245D01*
X262524Y53354D01*
X262542Y53463D01*
Y50220D01*
D02*
G37*
G36*
X254817Y53336D02*
X254853Y53080D01*
X254908Y52844D01*
X254981Y52625D01*
X255145Y52206D01*
X255363Y51860D01*
X255455Y51714D01*
X255564Y51568D01*
X255655Y51459D01*
X255746Y51368D01*
X255801Y51295D01*
X255855Y51240D01*
X255892Y51204D01*
X255910Y51186D01*
X256129Y51022D01*
X256347Y50876D01*
X256584Y50730D01*
X256821Y50621D01*
X257277Y50457D01*
X257714Y50348D01*
X257914Y50293D01*
X258097Y50275D01*
X258242Y50256D01*
X258388Y50238D01*
X258497Y50220D01*
X254799D01*
Y53591D01*
X254817Y53336D01*
D02*
G37*
G36*
X170071Y60824D02*
X170326Y60751D01*
X170562Y60660D01*
X170763Y60569D01*
X170927Y60460D01*
X171054Y60369D01*
X171127Y60296D01*
X171145Y60277D01*
X171328Y60059D01*
X171473Y59822D01*
X171564Y59603D01*
X171637Y59385D01*
X171674Y59202D01*
X171710Y59057D01*
Y58965D01*
Y58947D01*
Y58929D01*
X171692Y58656D01*
X171619Y58382D01*
X171528Y58164D01*
X171437Y57964D01*
X171328Y57800D01*
X171237Y57690D01*
X171164Y57599D01*
X171145Y57581D01*
X170927Y57399D01*
X170690Y57271D01*
X170471Y57162D01*
X170253Y57107D01*
X170071Y57071D01*
X169906Y57052D01*
X169815Y57034D01*
X169779D01*
X169506Y57052D01*
X169232Y57125D01*
X169014Y57216D01*
X168813Y57307D01*
X168649Y57417D01*
X168540Y57490D01*
X168449Y57563D01*
X168431Y57581D01*
X168248Y57800D01*
X168103Y58036D01*
X168012Y58255D01*
X167939Y58474D01*
X167902Y58656D01*
X167884Y58802D01*
X167866Y58893D01*
Y58929D01*
X167884Y59221D01*
X167957Y59476D01*
X168048Y59694D01*
X168157Y59895D01*
X168248Y60059D01*
X168340Y60186D01*
X168412Y60259D01*
X168431Y60277D01*
X168649Y60460D01*
X168886Y60605D01*
X169105Y60697D01*
X169324Y60769D01*
X169506Y60806D01*
X169651Y60842D01*
X169779D01*
X170071Y60824D01*
D02*
G37*
G36*
X169524Y62172D02*
X169269Y62154D01*
X168795Y62045D01*
X168376Y61881D01*
X168012Y61717D01*
X167848Y61626D01*
X167702Y61535D01*
X167593Y61444D01*
X167483Y61371D01*
X167410Y61316D01*
X167356Y61261D01*
X167319Y61243D01*
X167301Y61225D01*
X167119Y61043D01*
X166955Y60842D01*
X166827Y60660D01*
X166700Y60460D01*
X166609Y60277D01*
X166518Y60095D01*
X166390Y59731D01*
X166317Y59421D01*
X166299Y59294D01*
X166281Y59184D01*
X166262Y59093D01*
Y59020D01*
Y58984D01*
Y58965D01*
X166281Y58674D01*
X166317Y58401D01*
X166354Y58164D01*
X166427Y57964D01*
X166481Y57800D01*
X166518Y57672D01*
X166554Y57599D01*
X166572Y57563D01*
X166700Y57344D01*
X166864Y57125D01*
X167028Y56925D01*
X167192Y56761D01*
X167356Y56597D01*
X167483Y56488D01*
X167556Y56415D01*
X167593Y56378D01*
X167301Y56160D01*
X167046Y55941D01*
X166827Y55722D01*
X166645Y55485D01*
X166481Y55249D01*
X166354Y55012D01*
X166244Y54793D01*
X166153Y54575D01*
X166098Y54374D01*
X166044Y54192D01*
X166007Y54010D01*
X165971Y53882D01*
Y53755D01*
X165953Y53663D01*
Y62191D01*
X169779D01*
X169524Y62172D01*
D02*
G37*
G36*
X173696Y53591D02*
X173678Y53882D01*
X173623Y54155D01*
X173550Y54429D01*
X173478Y54647D01*
X173405Y54848D01*
X173332Y54994D01*
X173277Y55085D01*
X173259Y55121D01*
X173077Y55394D01*
X172876Y55650D01*
X172658Y55850D01*
X172457Y56032D01*
X172257Y56178D01*
X172111Y56287D01*
X172002Y56360D01*
X171984Y56378D01*
X171965D01*
X172202Y56597D01*
X172421Y56816D01*
X172603Y57034D01*
X172749Y57271D01*
X172895Y57490D01*
X173004Y57708D01*
X173095Y57909D01*
X173168Y58109D01*
X173222Y58291D01*
X173259Y58474D01*
X173295Y58619D01*
X173314Y58747D01*
X173332Y58856D01*
Y58929D01*
Y58984D01*
Y59002D01*
X173314Y59239D01*
X173295Y59457D01*
X173241Y59676D01*
X173168Y59895D01*
X173004Y60259D01*
X172803Y60587D01*
X172603Y60860D01*
X172512Y60970D01*
X172439Y61061D01*
X172366Y61134D01*
X172330Y61188D01*
X172293Y61207D01*
X172275Y61225D01*
X172075Y61389D01*
X171856Y61553D01*
X171656Y61680D01*
X171437Y61790D01*
X171018Y61954D01*
X170635Y62063D01*
X170289Y62136D01*
X170143Y62154D01*
X170016Y62172D01*
X169925Y62191D01*
X173696D01*
Y53591D01*
D02*
G37*
G36*
X170089Y55668D02*
X170398Y55595D01*
X170690Y55485D01*
X170927Y55376D01*
X171127Y55267D01*
X171255Y55158D01*
X171346Y55085D01*
X171382Y55067D01*
X171619Y54830D01*
X171783Y54593D01*
X171911Y54356D01*
X171984Y54119D01*
X172038Y53919D01*
X172056Y53773D01*
X172075Y53663D01*
Y53645D01*
Y53627D01*
X172056Y53317D01*
X171984Y53026D01*
X171874Y52771D01*
X171765Y52570D01*
X171637Y52388D01*
X171546Y52261D01*
X171473Y52188D01*
X171437Y52151D01*
X171182Y51951D01*
X170927Y51823D01*
X170653Y51714D01*
X170417Y51641D01*
X170198Y51605D01*
X170034Y51587D01*
X169906Y51568D01*
X169870D01*
X169506Y51587D01*
X169196Y51659D01*
X168904Y51750D01*
X168667Y51860D01*
X168467Y51951D01*
X168340Y52042D01*
X168248Y52115D01*
X168212Y52133D01*
X167993Y52370D01*
X167829Y52607D01*
X167720Y52844D01*
X167647Y53080D01*
X167593Y53281D01*
X167574Y53445D01*
X167556Y53554D01*
Y53572D01*
Y53591D01*
X167574Y53900D01*
X167647Y54192D01*
X167756Y54447D01*
X167866Y54666D01*
X167975Y54830D01*
X168085Y54957D01*
X168157Y55048D01*
X168176Y55067D01*
X168431Y55267D01*
X168686Y55431D01*
X168959Y55540D01*
X169196Y55613D01*
X169415Y55650D01*
X169597Y55686D01*
X169743D01*
X170089Y55668D01*
D02*
G37*
G36*
X173696Y50220D02*
X169815D01*
X170107Y50238D01*
X170398Y50256D01*
X170927Y50366D01*
X171400Y50530D01*
X171601Y50621D01*
X171801Y50712D01*
X171965Y50803D01*
X172129Y50894D01*
X172257Y50985D01*
X172366Y51058D01*
X172457Y51113D01*
X172512Y51167D01*
X172548Y51186D01*
X172567Y51204D01*
X172767Y51386D01*
X172931Y51587D01*
X173095Y51787D01*
X173222Y51987D01*
X173332Y52188D01*
X173423Y52388D01*
X173550Y52771D01*
X173642Y53099D01*
X173660Y53245D01*
X173678Y53354D01*
X173696Y53463D01*
Y50220D01*
D02*
G37*
G36*
X165971Y53336D02*
X166007Y53080D01*
X166062Y52844D01*
X166135Y52625D01*
X166299Y52206D01*
X166518Y51860D01*
X166609Y51714D01*
X166718Y51568D01*
X166809Y51459D01*
X166900Y51368D01*
X166955Y51295D01*
X167009Y51240D01*
X167046Y51204D01*
X167064Y51186D01*
X167283Y51022D01*
X167501Y50876D01*
X167738Y50730D01*
X167975Y50621D01*
X168431Y50457D01*
X168868Y50348D01*
X169068Y50293D01*
X169251Y50275D01*
X169396Y50256D01*
X169542Y50238D01*
X169651Y50220D01*
X165953D01*
Y53591D01*
X165971Y53336D01*
D02*
G37*
G36*
X436608Y60824D02*
X436863Y60751D01*
X437100Y60660D01*
X437301Y60569D01*
X437465Y60460D01*
X437592Y60369D01*
X437665Y60296D01*
X437683Y60277D01*
X437865Y60059D01*
X438011Y59822D01*
X438102Y59603D01*
X438175Y59385D01*
X438212Y59202D01*
X438248Y59057D01*
Y58965D01*
Y58947D01*
Y58929D01*
X438230Y58656D01*
X438157Y58382D01*
X438066Y58164D01*
X437975Y57964D01*
X437865Y57800D01*
X437774Y57690D01*
X437702Y57599D01*
X437683Y57581D01*
X437465Y57399D01*
X437228Y57271D01*
X437009Y57162D01*
X436791Y57107D01*
X436608Y57071D01*
X436444Y57052D01*
X436353Y57034D01*
X436317D01*
X436044Y57052D01*
X435770Y57125D01*
X435552Y57216D01*
X435351Y57307D01*
X435187Y57417D01*
X435078Y57490D01*
X434987Y57563D01*
X434969Y57581D01*
X434786Y57800D01*
X434641Y58036D01*
X434549Y58255D01*
X434477Y58474D01*
X434440Y58656D01*
X434422Y58802D01*
X434404Y58893D01*
Y58929D01*
X434422Y59221D01*
X434495Y59476D01*
X434586Y59694D01*
X434695Y59895D01*
X434786Y60059D01*
X434877Y60186D01*
X434950Y60259D01*
X434969Y60277D01*
X435187Y60460D01*
X435424Y60605D01*
X435643Y60697D01*
X435861Y60769D01*
X436044Y60806D01*
X436189Y60842D01*
X436317D01*
X436608Y60824D01*
D02*
G37*
G36*
X436062Y62172D02*
X435807Y62154D01*
X435333Y62045D01*
X434914Y61881D01*
X434549Y61717D01*
X434385Y61626D01*
X434240Y61535D01*
X434130Y61444D01*
X434021Y61371D01*
X433948Y61316D01*
X433893Y61261D01*
X433857Y61243D01*
X433839Y61225D01*
X433657Y61043D01*
X433493Y60842D01*
X433365Y60660D01*
X433238Y60460D01*
X433146Y60277D01*
X433055Y60095D01*
X432928Y59731D01*
X432855Y59421D01*
X432837Y59294D01*
X432819Y59184D01*
X432800Y59093D01*
Y59020D01*
Y58984D01*
Y58965D01*
X432819Y58674D01*
X432855Y58401D01*
X432891Y58164D01*
X432964Y57964D01*
X433019Y57800D01*
X433055Y57672D01*
X433092Y57599D01*
X433110Y57563D01*
X433238Y57344D01*
X433402Y57125D01*
X433566Y56925D01*
X433730Y56761D01*
X433893Y56597D01*
X434021Y56488D01*
X434094Y56415D01*
X434130Y56378D01*
X433839Y56160D01*
X433584Y55941D01*
X433365Y55722D01*
X433183Y55485D01*
X433019Y55249D01*
X432891Y55012D01*
X432782Y54793D01*
X432691Y54575D01*
X432636Y54374D01*
X432582Y54192D01*
X432545Y54010D01*
X432509Y53882D01*
Y53755D01*
X432490Y53663D01*
Y62191D01*
X436317D01*
X436062Y62172D01*
D02*
G37*
G36*
X440234Y53591D02*
X440216Y53882D01*
X440161Y54155D01*
X440088Y54429D01*
X440015Y54647D01*
X439943Y54848D01*
X439870Y54994D01*
X439815Y55085D01*
X439797Y55121D01*
X439615Y55394D01*
X439414Y55650D01*
X439195Y55850D01*
X438995Y56032D01*
X438795Y56178D01*
X438649Y56287D01*
X438540Y56360D01*
X438521Y56378D01*
X438503D01*
X438740Y56597D01*
X438959Y56816D01*
X439141Y57034D01*
X439287Y57271D01*
X439432Y57490D01*
X439542Y57708D01*
X439633Y57909D01*
X439706Y58109D01*
X439760Y58291D01*
X439797Y58474D01*
X439833Y58619D01*
X439851Y58747D01*
X439870Y58856D01*
Y58929D01*
Y58984D01*
Y59002D01*
X439851Y59239D01*
X439833Y59457D01*
X439779Y59676D01*
X439706Y59895D01*
X439542Y60259D01*
X439341Y60587D01*
X439141Y60860D01*
X439050Y60970D01*
X438977Y61061D01*
X438904Y61134D01*
X438868Y61188D01*
X438831Y61207D01*
X438813Y61225D01*
X438613Y61389D01*
X438394Y61553D01*
X438193Y61680D01*
X437975Y61790D01*
X437556Y61954D01*
X437173Y62063D01*
X436827Y62136D01*
X436681Y62154D01*
X436554Y62172D01*
X436462Y62191D01*
X440234D01*
Y53591D01*
D02*
G37*
G36*
X436626Y55668D02*
X436936Y55595D01*
X437228Y55485D01*
X437465Y55376D01*
X437665Y55267D01*
X437793Y55158D01*
X437884Y55085D01*
X437920Y55067D01*
X438157Y54830D01*
X438321Y54593D01*
X438448Y54356D01*
X438521Y54119D01*
X438576Y53919D01*
X438594Y53773D01*
X438613Y53663D01*
Y53645D01*
Y53627D01*
X438594Y53317D01*
X438521Y53026D01*
X438412Y52771D01*
X438303Y52570D01*
X438175Y52388D01*
X438084Y52261D01*
X438011Y52188D01*
X437975Y52151D01*
X437720Y51951D01*
X437465Y51823D01*
X437191Y51714D01*
X436954Y51641D01*
X436736Y51605D01*
X436572Y51587D01*
X436444Y51568D01*
X436408D01*
X436044Y51587D01*
X435734Y51659D01*
X435442Y51750D01*
X435205Y51860D01*
X435005Y51951D01*
X434877Y52042D01*
X434786Y52115D01*
X434750Y52133D01*
X434531Y52370D01*
X434367Y52607D01*
X434258Y52844D01*
X434185Y53080D01*
X434130Y53281D01*
X434112Y53445D01*
X434094Y53554D01*
Y53572D01*
Y53591D01*
X434112Y53900D01*
X434185Y54192D01*
X434294Y54447D01*
X434404Y54666D01*
X434513Y54830D01*
X434622Y54957D01*
X434695Y55048D01*
X434713Y55067D01*
X434969Y55267D01*
X435223Y55431D01*
X435497Y55540D01*
X435734Y55613D01*
X435952Y55650D01*
X436135Y55686D01*
X436280D01*
X436626Y55668D01*
D02*
G37*
G36*
X440234Y50220D02*
X436353D01*
X436645Y50238D01*
X436936Y50256D01*
X437465Y50366D01*
X437938Y50530D01*
X438139Y50621D01*
X438339Y50712D01*
X438503Y50803D01*
X438667Y50894D01*
X438795Y50985D01*
X438904Y51058D01*
X438995Y51113D01*
X439050Y51167D01*
X439086Y51186D01*
X439104Y51204D01*
X439305Y51386D01*
X439469Y51587D01*
X439633Y51787D01*
X439760Y51987D01*
X439870Y52188D01*
X439961Y52388D01*
X440088Y52771D01*
X440179Y53099D01*
X440198Y53245D01*
X440216Y53354D01*
X440234Y53463D01*
Y50220D01*
D02*
G37*
G36*
X432509Y53336D02*
X432545Y53080D01*
X432600Y52844D01*
X432673Y52625D01*
X432837Y52206D01*
X433055Y51860D01*
X433146Y51714D01*
X433256Y51568D01*
X433347Y51459D01*
X433438Y51368D01*
X433493Y51295D01*
X433547Y51240D01*
X433584Y51204D01*
X433602Y51186D01*
X433821Y51022D01*
X434039Y50876D01*
X434276Y50730D01*
X434513Y50621D01*
X434969Y50457D01*
X435406Y50348D01*
X435606Y50293D01*
X435788Y50275D01*
X435934Y50256D01*
X436080Y50238D01*
X436189Y50220D01*
X432490D01*
Y53591D01*
X432509Y53336D01*
D02*
G37*
G36*
X347762Y60824D02*
X348017Y60751D01*
X348254Y60660D01*
X348455Y60569D01*
X348619Y60460D01*
X348746Y60369D01*
X348819Y60296D01*
X348837Y60277D01*
X349020Y60059D01*
X349165Y59822D01*
X349256Y59603D01*
X349329Y59385D01*
X349366Y59202D01*
X349402Y59057D01*
Y58965D01*
Y58947D01*
Y58929D01*
X349384Y58656D01*
X349311Y58382D01*
X349220Y58164D01*
X349129Y57964D01*
X349020Y57800D01*
X348928Y57690D01*
X348855Y57599D01*
X348837Y57581D01*
X348619Y57399D01*
X348382Y57271D01*
X348163Y57162D01*
X347944Y57107D01*
X347762Y57071D01*
X347598Y57052D01*
X347507Y57034D01*
X347471D01*
X347198Y57052D01*
X346924Y57125D01*
X346706Y57216D01*
X346505Y57307D01*
X346341Y57417D01*
X346232Y57490D01*
X346141Y57563D01*
X346123Y57581D01*
X345940Y57800D01*
X345795Y58036D01*
X345704Y58255D01*
X345631Y58474D01*
X345594Y58656D01*
X345576Y58802D01*
X345558Y58893D01*
Y58929D01*
X345576Y59221D01*
X345649Y59476D01*
X345740Y59694D01*
X345849Y59895D01*
X345940Y60059D01*
X346031Y60186D01*
X346104Y60259D01*
X346123Y60277D01*
X346341Y60460D01*
X346578Y60605D01*
X346797Y60697D01*
X347015Y60769D01*
X347198Y60806D01*
X347343Y60842D01*
X347471D01*
X347762Y60824D01*
D02*
G37*
G36*
X347216Y62172D02*
X346961Y62154D01*
X346487Y62045D01*
X346068Y61881D01*
X345704Y61717D01*
X345539Y61626D01*
X345394Y61535D01*
X345284Y61444D01*
X345175Y61371D01*
X345102Y61316D01*
X345048Y61261D01*
X345011Y61243D01*
X344993Y61225D01*
X344811Y61043D01*
X344647Y60842D01*
X344519Y60660D01*
X344392Y60460D01*
X344301Y60277D01*
X344209Y60095D01*
X344082Y59731D01*
X344009Y59421D01*
X343991Y59294D01*
X343973Y59184D01*
X343954Y59093D01*
Y59020D01*
Y58984D01*
Y58965D01*
X343973Y58674D01*
X344009Y58401D01*
X344045Y58164D01*
X344118Y57964D01*
X344173Y57800D01*
X344209Y57672D01*
X344246Y57599D01*
X344264Y57563D01*
X344392Y57344D01*
X344556Y57125D01*
X344720Y56925D01*
X344884Y56761D01*
X345048Y56597D01*
X345175Y56488D01*
X345248Y56415D01*
X345284Y56378D01*
X344993Y56160D01*
X344738Y55941D01*
X344519Y55722D01*
X344337Y55485D01*
X344173Y55249D01*
X344045Y55012D01*
X343936Y54793D01*
X343845Y54575D01*
X343790Y54374D01*
X343736Y54192D01*
X343699Y54010D01*
X343663Y53882D01*
Y53755D01*
X343645Y53663D01*
Y62191D01*
X347471D01*
X347216Y62172D01*
D02*
G37*
G36*
X351388Y53591D02*
X351370Y53882D01*
X351315Y54155D01*
X351242Y54429D01*
X351169Y54647D01*
X351097Y54848D01*
X351024Y54994D01*
X350969Y55085D01*
X350951Y55121D01*
X350769Y55394D01*
X350568Y55650D01*
X350350Y55850D01*
X350149Y56032D01*
X349949Y56178D01*
X349803Y56287D01*
X349694Y56360D01*
X349675Y56378D01*
X349657D01*
X349894Y56597D01*
X350113Y56816D01*
X350295Y57034D01*
X350441Y57271D01*
X350586Y57490D01*
X350696Y57708D01*
X350787Y57909D01*
X350860Y58109D01*
X350914Y58291D01*
X350951Y58474D01*
X350987Y58619D01*
X351006Y58747D01*
X351024Y58856D01*
Y58929D01*
Y58984D01*
Y59002D01*
X351006Y59239D01*
X350987Y59457D01*
X350933Y59676D01*
X350860Y59895D01*
X350696Y60259D01*
X350495Y60587D01*
X350295Y60860D01*
X350204Y60970D01*
X350131Y61061D01*
X350058Y61134D01*
X350022Y61188D01*
X349985Y61207D01*
X349967Y61225D01*
X349766Y61389D01*
X349548Y61553D01*
X349347Y61680D01*
X349129Y61790D01*
X348710Y61954D01*
X348327Y62063D01*
X347981Y62136D01*
X347835Y62154D01*
X347708Y62172D01*
X347617Y62191D01*
X351388D01*
Y53591D01*
D02*
G37*
G36*
X347781Y55668D02*
X348090Y55595D01*
X348382Y55485D01*
X348619Y55376D01*
X348819Y55267D01*
X348947Y55158D01*
X349038Y55085D01*
X349074Y55067D01*
X349311Y54830D01*
X349475Y54593D01*
X349603Y54356D01*
X349675Y54119D01*
X349730Y53919D01*
X349748Y53773D01*
X349766Y53663D01*
Y53645D01*
Y53627D01*
X349748Y53317D01*
X349675Y53026D01*
X349566Y52771D01*
X349457Y52570D01*
X349329Y52388D01*
X349238Y52261D01*
X349165Y52188D01*
X349129Y52151D01*
X348874Y51951D01*
X348619Y51823D01*
X348345Y51714D01*
X348109Y51641D01*
X347890Y51605D01*
X347726Y51587D01*
X347598Y51568D01*
X347562D01*
X347198Y51587D01*
X346888Y51659D01*
X346596Y51750D01*
X346359Y51860D01*
X346159Y51951D01*
X346031Y52042D01*
X345940Y52115D01*
X345904Y52133D01*
X345685Y52370D01*
X345521Y52607D01*
X345412Y52844D01*
X345339Y53080D01*
X345284Y53281D01*
X345266Y53445D01*
X345248Y53554D01*
Y53572D01*
Y53591D01*
X345266Y53900D01*
X345339Y54192D01*
X345448Y54447D01*
X345558Y54666D01*
X345667Y54830D01*
X345776Y54957D01*
X345849Y55048D01*
X345867Y55067D01*
X346123Y55267D01*
X346378Y55431D01*
X346651Y55540D01*
X346888Y55613D01*
X347106Y55650D01*
X347289Y55686D01*
X347434D01*
X347781Y55668D01*
D02*
G37*
G36*
X351388Y50220D02*
X347507D01*
X347799Y50238D01*
X348090Y50256D01*
X348619Y50366D01*
X349092Y50530D01*
X349293Y50621D01*
X349493Y50712D01*
X349657Y50803D01*
X349821Y50894D01*
X349949Y50985D01*
X350058Y51058D01*
X350149Y51113D01*
X350204Y51167D01*
X350240Y51186D01*
X350258Y51204D01*
X350459Y51386D01*
X350623Y51587D01*
X350787Y51787D01*
X350914Y51987D01*
X351024Y52188D01*
X351115Y52388D01*
X351242Y52771D01*
X351333Y53099D01*
X351352Y53245D01*
X351370Y53354D01*
X351388Y53463D01*
Y50220D01*
D02*
G37*
G36*
X343663Y53336D02*
X343699Y53080D01*
X343754Y52844D01*
X343827Y52625D01*
X343991Y52206D01*
X344209Y51860D01*
X344301Y51714D01*
X344410Y51568D01*
X344501Y51459D01*
X344592Y51368D01*
X344647Y51295D01*
X344701Y51240D01*
X344738Y51204D01*
X344756Y51186D01*
X344975Y51022D01*
X345193Y50876D01*
X345430Y50730D01*
X345667Y50621D01*
X346123Y50457D01*
X346560Y50348D01*
X346760Y50293D01*
X346942Y50275D01*
X347088Y50256D01*
X347234Y50238D01*
X347343Y50220D01*
X343645D01*
Y53591D01*
X343663Y53336D01*
D02*
G37*
D10*
X484472Y190449D02*
G03*
X484472Y190449I-1181J0D01*
G01*
X394597D02*
G03*
X394597Y190449I-1181J0D01*
G01*
X304722Y190449D02*
G03*
X304722Y190449I-1181J0D01*
G01*
X214847Y190449D02*
G03*
X214847Y190449I-1181J0D01*
G01*
X124972Y190449D02*
G03*
X124972Y190449I-1181J0D01*
G01*
X120819Y45886D02*
G03*
X120819Y45886I-1181J0D01*
G01*
D11*
X487976Y199701D02*
G03*
X487976Y199701I-492J0D01*
G01*
X398101Y199701D02*
G03*
X398101Y199701I-492J0D01*
G01*
X308226Y199701D02*
G03*
X308226Y199701I-492J0D01*
G01*
X218351Y199701D02*
G03*
X218351Y199701I-492J0D01*
G01*
X128476Y199701D02*
G03*
X128476Y199701I-492J0D01*
G01*
X111370Y50945D02*
G03*
X111370Y50945I-492J0D01*
G01*
X77618Y16185D02*
G03*
X77618Y16185I-492J0D01*
G01*
D12*
X260704Y135212D02*
G03*
X198665Y135212I-31019J-20513D01*
G01*
X198696Y74188D02*
G03*
X260735Y74188I31019J20513D01*
G01*
X171858Y135212D02*
G03*
X109819Y135212I-31019J-20513D01*
G01*
X109850Y74188D02*
G03*
X171889Y74188I31019J20513D01*
G01*
X376388D02*
G03*
X438427Y74188I31019J20513D01*
G01*
X438396Y135212D02*
G03*
X376357Y135212I-31019J-20513D01*
G01*
X349550D02*
G03*
X287511Y135212I-31019J-20513D01*
G01*
X287542Y74188D02*
G03*
X349581Y74188I31019J20513D01*
G01*
X436047Y167614D02*
Y194386D01*
X487228Y194386D02*
X487228Y167614D01*
X436047D02*
X487228D01*
X436047Y194386D02*
X487228Y194386D01*
X346172Y167614D02*
X346172Y194386D01*
X397353Y194386D02*
X397353Y167614D01*
X346172D02*
X397353D01*
X346172Y194386D02*
X397353Y194386D01*
X256297Y167614D02*
Y194386D01*
X307478Y194386D02*
X307478Y167614D01*
X256297D02*
X307478D01*
X256297Y194386D02*
X307478Y194386D01*
X166422Y167614D02*
X166422Y194386D01*
X217603Y167614D02*
X217603Y194386D01*
X166422Y167614D02*
X217603D01*
X166422Y194386D02*
X217603Y194386D01*
X76547Y167614D02*
Y194386D01*
X127728Y167614D02*
Y194386D01*
X76547Y167614D02*
X127728D01*
X76547Y194386D02*
X127728D01*
X260704Y74219D02*
Y135212D01*
X198665Y74219D02*
Y135212D01*
X115701Y15276D02*
Y49724D01*
X128299Y15276D02*
Y49724D01*
X115701D02*
X128299D01*
X115701Y15276D02*
X128299D01*
X171858Y74219D02*
Y135212D01*
X109819Y74219D02*
Y135212D01*
X376357Y74219D02*
Y135212D01*
X438396Y74219D02*
Y135212D01*
X349550Y74219D02*
Y135212D01*
X287511Y74219D02*
Y135212D01*
X44138Y27272D02*
Y28059D01*
X49453Y27272D02*
Y28059D01*
X70039Y17760D02*
X73976D01*
X70039D02*
Y20516D01*
X70039Y29571D02*
X73976D01*
X70039D02*
X70039Y26815D01*
D13*
X146000Y18999D02*
X147999D01*
X147000D01*
Y16000D01*
X148999D02*
Y18999D01*
X150499D01*
X150998Y18499D01*
Y17500D01*
X150499Y17000D01*
X148999D01*
X153997Y18999D02*
X151998D01*
Y17500D01*
X152998Y17999D01*
X153498D01*
X153997Y17500D01*
Y16500D01*
X153498Y16000D01*
X152498D01*
X151998Y16500D01*
X68000Y12999D02*
X69999D01*
X69000D01*
Y10000D01*
X70999D02*
Y12999D01*
X72499D01*
X72998Y12499D01*
Y11500D01*
X72499Y11000D01*
X70999D01*
X75498Y10000D02*
Y12999D01*
X73998Y11500D01*
X75997D01*
X511001Y178000D02*
Y179999D01*
Y179000D01*
X514000D01*
Y180999D02*
X511001D01*
Y182499D01*
X511501Y182998D01*
X512500D01*
X513000Y182499D01*
Y180999D01*
X511001Y185997D02*
X511501Y184998D01*
X512500Y183998D01*
X513500D01*
X514000Y184498D01*
Y185498D01*
X513500Y185997D01*
X513000D01*
X512500Y185498D01*
Y183998D01*
X501001Y178000D02*
Y179999D01*
Y179000D01*
X504000D01*
Y180999D02*
X501001D01*
Y182499D01*
X501501Y182998D01*
X502500D01*
X503000Y182499D01*
Y180999D01*
X501001Y183998D02*
Y185997D01*
X501501D01*
X503500Y183998D01*
X504000D01*
X478666Y145999D02*
X476000D01*
Y142000D01*
X478666D01*
X476000Y143999D02*
X477333D01*
X479999Y142000D02*
Y145999D01*
X482664Y142000D01*
Y145999D01*
X486663Y145332D02*
X485997Y145999D01*
X484664D01*
X483997Y145332D01*
Y142666D01*
X484664Y142000D01*
X485997D01*
X486663Y142666D01*
X487996Y142000D02*
X489329D01*
X488663D01*
Y145999D01*
X487996Y145332D01*
X490000Y193999D02*
Y190666D01*
X490666Y190000D01*
X491999D01*
X492666Y190666D01*
Y193999D01*
X493999Y190000D02*
X495332D01*
X494665D01*
Y193999D01*
X493999Y193332D01*
X497331D02*
X497997Y193999D01*
X499330D01*
X499997Y193332D01*
Y190666D01*
X499330Y190000D01*
X497997D01*
X497331Y190666D01*
Y193332D01*
X400000Y193999D02*
Y190666D01*
X400666Y190000D01*
X401999D01*
X402666Y190666D01*
Y193999D01*
X403999Y190666D02*
X404665Y190000D01*
X405998D01*
X406665Y190666D01*
Y193332D01*
X405998Y193999D01*
X404665D01*
X403999Y193332D01*
Y192666D01*
X404665Y191999D01*
X406665D01*
X310000Y193999D02*
Y190666D01*
X310666Y190000D01*
X311999D01*
X312666Y190666D01*
Y193999D01*
X313999Y193332D02*
X314665Y193999D01*
X315998D01*
X316665Y193332D01*
Y192666D01*
X315998Y191999D01*
X316665Y191333D01*
Y190666D01*
X315998Y190000D01*
X314665D01*
X313999Y190666D01*
Y191333D01*
X314665Y191999D01*
X313999Y192666D01*
Y193332D01*
X314665Y191999D02*
X315998D01*
X220000Y193999D02*
Y190666D01*
X220666Y190000D01*
X221999D01*
X222666Y190666D01*
Y193999D01*
X223999D02*
X226664D01*
Y193332D01*
X223999Y190666D01*
Y190000D01*
X130000Y193999D02*
Y190666D01*
X130666Y190000D01*
X131999D01*
X132666Y190666D01*
Y193999D01*
X136664D02*
X135332Y193332D01*
X133999Y191999D01*
Y190666D01*
X134665Y190000D01*
X135998D01*
X136664Y190666D01*
Y191333D01*
X135998Y191999D01*
X133999D01*
X193187Y145094D02*
Y149092D01*
X195852Y145094D01*
Y149092D01*
X197185D02*
X199851D01*
X198518D01*
Y145094D01*
X203850D02*
X201184D01*
X203850Y147759D01*
Y148426D01*
X203184Y149092D01*
X201851D01*
X201184Y148426D01*
X136000Y54999D02*
Y52500D01*
X136500Y52000D01*
X137499D01*
X137999Y52500D01*
Y54999D01*
X138999Y52000D02*
X139999D01*
X139499D01*
Y54999D01*
X138999Y54499D01*
X141498Y52000D02*
X142498D01*
X141998D01*
Y54999D01*
X141498Y54499D01*
X56000Y40000D02*
X58999D01*
Y38500D01*
X58499Y38001D01*
X57499D01*
X57000Y38500D01*
Y40000D01*
Y39000D02*
X56000Y38001D01*
Y35002D02*
Y37001D01*
X57999Y35002D01*
X58499D01*
X58999Y35501D01*
Y36501D01*
X58499Y37001D01*
X58999Y32003D02*
X58499Y33002D01*
X57499Y34002D01*
X56500D01*
X56000Y33502D01*
Y32502D01*
X56500Y32003D01*
X57000D01*
X57499Y32502D01*
Y34002D01*
X40000Y26000D02*
X37001D01*
Y27499D01*
X37501Y27999D01*
X38500D01*
X39000Y27499D01*
Y26000D01*
Y27000D02*
X40000Y27999D01*
X37001Y30998D02*
X37501Y29999D01*
X38500Y28999D01*
X39500D01*
X40000Y29499D01*
Y30499D01*
X39500Y30998D01*
X39000D01*
X38500Y30499D01*
Y28999D01*
X72795Y33165D02*
Y35164D01*
X72295Y35664D01*
X71295D01*
X70795Y35164D01*
Y33165D01*
X71295Y32665D01*
X72295D01*
X71795Y33665D02*
X72795Y32665D01*
X72295D02*
X72795Y33165D01*
X75794Y32665D02*
X73794D01*
X75794Y34665D01*
Y35164D01*
X75294Y35664D01*
X74294D01*
X73794Y35164D01*
X371458Y145094D02*
Y149092D01*
X374124Y145094D01*
Y149092D01*
X375457D02*
X378122D01*
X376789D01*
Y145094D01*
X381455D02*
Y149092D01*
X379455Y147093D01*
X382121D01*
X282322Y145094D02*
Y149092D01*
X284988Y145094D01*
Y149092D01*
X286321D02*
X288987D01*
X287654D01*
Y145094D01*
X290320Y148426D02*
X290986Y149092D01*
X292319D01*
X292986Y148426D01*
Y147759D01*
X292319Y147093D01*
X291653D01*
X292319D01*
X292986Y146427D01*
Y145760D01*
X292319Y145094D01*
X290986D01*
X290320Y145760D01*
X104051Y145094D02*
Y149092D01*
X106717Y145094D01*
Y149092D01*
X108050D02*
X110716D01*
X109383D01*
Y145094D01*
X112049D02*
X113382D01*
X112715D01*
Y149092D01*
X112049Y148426D01*
M02*
