M48
;Layer_Color=9474304
;FILE_FORMAT=2:5
INCH,LZ
;TYPE=PLATED
T1F00S00C0.01500
T2F00S00C0.02500
T3F00S00C0.03937
T4F00S00C0.04016
T5F00S00C0.06299
T6F00S00C0.12598
;TYPE=NON_PLATED
T8F00S00C0.15748
%
T01
X00097Y00097
X00069Y0016
X00097Y00223
X0016Y0025
X00223Y00223
X00251Y0016
X00223Y00097
X0016Y00069
X0122Y0038
X0142Y0036
X0113Y00525
X01075Y01185
X0098Y0123
X02625Y0116
X0336Y01145
X0341Y0135
X03879Y00241
X04209Y00242
X043Y00395
X0436Y0044
X0444Y0056
X04569Y00348
X04539Y00245
X04875Y0013
X05169Y0016
X05197Y00223
X0526Y0025
X05323Y00223
X05351Y0016
X05323Y00097
X0526Y00069
X05197Y00097
X05195Y0051
X0492Y00415
X0519Y01515
X05197Y01977
X05169Y0204
X05197Y02103
X0526Y0213
X05323Y02103
X05351Y0204
X05323Y01977
X0526Y01949
X047Y01895
X045
X0448Y017
X0442Y0174
X0418Y0147
X03815Y01885
X03655
X0358Y017
X0354Y0174
X03395Y015
X0292Y0188
X02755
X0268Y017
X0264Y0174
X0236Y0178
Y0165
X022Y0177
X0204Y0188
X019Y01925
X02045Y021
X0178Y017
X0174Y0174
X0158Y0159254
X012Y0142
X011Y0146
X012Y0178
X0092Y017
X0086Y0174
X00895Y0207
X00955Y02135
X00223Y02103
X0016Y0213
X00097Y02103
X00069Y0204
X00097Y01977
X0016Y01949
X00223Y01977
X00251Y0204
T02
X0058Y0078
T03
X0472598Y0076472
X0482441
X0492283
Y0133559
X0472598
T04
X0248Y0024
X0258
X0268
Y0034
X0278
X0288
X0288Y0024
X0278
X0258Y0034
X0248
T05
X0138563Y007411
X0154311Y0070173
X0170059Y007411
X0176949Y008789
Y0105606
Y0123323
X0170059Y0137102
X0138563
X0131673Y0123323
Y0105606
Y008789
X0209384
Y0105606
Y0123323
X0216273Y0137102
Y007411
X0232021Y0070173
X0247769Y007411
X0254659Y008789
Y0105606
Y0123323
X0247769Y0137102
X0293984
X0287094Y0123323
Y0105606
Y008789
X0293984Y007411
X0309732Y0070173
X032548Y007411
X033237Y008789
Y0105606
Y0123323
X032548Y0137102
X0371694
X0364804Y0123323
Y0105606
Y008789
X0371694Y007411
X0387442Y0070173
X040319Y007411
X041008Y008789
Y0105606
Y0123323
X040319Y0137102
X0387442Y0141039
X0309732
X0232021
X0154311
T06
X0016Y0016
X0526
Y0204
X0016
T08
X0154311Y0105606
X0232021
X0309732
X0387442
M30
