G04*
G04 #@! TF.GenerationSoftware,Altium Limited,Altium Designer,19.1.8 (144)*
G04*
G04 Layer_Color=65535*
%FSLAX25Y25*%
%MOIN*%
G70*
G01*
G75*
%ADD10C,0.00984*%
%ADD11C,0.02362*%
%ADD12C,0.00394*%
%ADD13C,0.00787*%
%ADD14C,0.00591*%
%ADD15C,0.00600*%
%ADD16C,0.01575*%
%ADD17C,0.01000*%
%ADD18C,0.00800*%
D10*
X92545Y178795D02*
G03*
X92545Y178795I-492J0D01*
G01*
X144492Y219733D02*
G03*
X144492Y219733I-492J0D01*
G01*
X148456Y129706D02*
G03*
X148456Y129706I-492J0D01*
G01*
X31205Y47209D02*
G03*
X31205Y47209I-492J0D01*
G01*
X188373Y85731D02*
G03*
X188373Y85731I-492J0D01*
G01*
X25549Y113284D02*
G03*
X25549Y113284I-492J0D01*
G01*
X49031Y77732D02*
G03*
X49031Y77732I-492J0D01*
G01*
X111485Y74685D02*
G03*
X111485Y74685I-492J0D01*
G01*
X128806Y46163D02*
G03*
X128806Y46163I-492J0D01*
G01*
X106678Y31637D02*
G03*
X106678Y31637I-492J0D01*
G01*
X71385Y90367D02*
G03*
X71385Y90367I-492J0D01*
G01*
X64768Y60645D02*
G03*
X64768Y60645I-492J0D01*
G01*
D11*
X143879Y121438D02*
G03*
X143879Y121438I-1181J0D01*
G01*
X74119Y55606D02*
G03*
X74119Y55606I-1181J0D01*
G01*
D12*
X72567Y224202D02*
G03*
X72567Y224202I-433J0D01*
G01*
D13*
X20475Y161103D02*
G03*
X20475Y161103I-880J0D01*
G01*
X87705Y120174D02*
X88394D01*
X87705D02*
Y122339D01*
X100206Y120174D02*
X100894D01*
Y120863D01*
X100206Y129426D02*
X100894D01*
Y128737D02*
Y129426D01*
X87705Y128737D02*
Y129426D01*
X88394D01*
X88903Y184306D02*
X90871Y182338D01*
X88903Y203991D02*
Y205960D01*
X90871D01*
X110556D02*
X112525D01*
Y203991D02*
Y205960D01*
Y182338D02*
Y184306D01*
X110556Y182338D02*
X112525D01*
X225248Y97272D02*
Y106720D01*
X213831Y97272D02*
X225248D01*
X194776Y126012D02*
Y165382D01*
X214461D01*
Y126091D02*
Y165382D01*
X204539Y126091D02*
X214461D01*
X204539Y116563D02*
Y126091D01*
X194776Y116563D02*
X204539D01*
X194776D02*
Y126012D01*
X209500Y116012D02*
X214618D01*
Y120343D01*
X225248Y183772D02*
Y193220D01*
X213831Y183772D02*
X225248D01*
X194776Y212512D02*
Y251882D01*
X214461D01*
Y212591D02*
Y251882D01*
X204539Y212591D02*
X214461D01*
X204539Y203063D02*
Y212591D01*
X194776Y203063D02*
X204539D01*
X194776D02*
Y212512D01*
X209500Y202512D02*
X214618D01*
Y206842D01*
X163406Y51866D02*
X164094D01*
X163406Y51177D02*
Y51866D01*
X176594Y51177D02*
Y51866D01*
X175906D02*
X176594D01*
Y42614D02*
Y43303D01*
X175906Y42614D02*
X176594D01*
X163406D02*
Y44780D01*
Y42614D02*
X164094D01*
X115678Y124103D02*
Y124497D01*
X112922Y124103D02*
Y124497D01*
X72249Y187419D02*
X73036D01*
X72249Y189781D02*
X73036D01*
X72249Y184581D02*
X73036D01*
X72249Y182219D02*
X73036D01*
X88581Y171549D02*
Y172336D01*
X86219Y171549D02*
Y172336D01*
X82481Y190906D02*
Y191694D01*
X80119Y190906D02*
Y191694D01*
X148921Y203395D02*
Y215206D01*
X139079Y203395D02*
Y215206D01*
X134430Y125375D02*
X146635D01*
X134430Y116320D02*
X146635D01*
Y125375D01*
X134430Y116320D02*
Y125375D01*
X116406Y82081D02*
X117194D01*
X116406Y79719D02*
X117194D01*
X97549Y41781D02*
X98336D01*
X97549Y39419D02*
X98336D01*
X100319Y69106D02*
Y69894D01*
X102681Y69106D02*
Y69894D01*
X135981Y68206D02*
Y68994D01*
X133619Y68206D02*
Y68994D01*
X81006Y32219D02*
X81794D01*
X81006Y34581D02*
X81794D01*
X49216Y35988D02*
Y44846D01*
X36421D02*
X49216D01*
Y-11846D02*
Y24571D01*
X13783Y44846D02*
X25004D01*
X13783Y-11846D02*
Y44846D01*
Y-11846D02*
X49216D01*
X174495Y78644D02*
X177250D01*
X174495D02*
Y82581D01*
X183550Y78644D02*
X186305D01*
Y82581D01*
X221795Y16909D02*
Y78091D01*
X211205Y16909D02*
X221795D01*
X211205D02*
Y78091D01*
X221795D01*
X120979Y180109D02*
Y181291D01*
X118421Y180109D02*
Y181291D01*
X102743Y174153D02*
X105499D01*
X102743Y168247D02*
X105499D01*
X82047Y134579D02*
X87953D01*
X82047Y144421D02*
X87953D01*
X85706Y115221D02*
X88068D01*
X85706Y105379D02*
X88068D01*
X161406Y36921D02*
X163768D01*
X161406Y27079D02*
X163768D01*
X157547Y57579D02*
X163453D01*
X157547Y67421D02*
X163453D01*
X28650Y165040D02*
X45185D01*
Y120945D02*
Y165040D01*
X15658Y120945D02*
X45185D01*
X15658D02*
Y165040D01*
X28650D01*
X31553Y100390D02*
X31947D01*
X31553Y111610D02*
X31947D01*
X25253Y100390D02*
X25647D01*
X25253Y111610D02*
X25647D01*
X31947Y100390D02*
Y111610D01*
X25253Y100390D02*
Y111610D01*
X14878Y80094D02*
Y91905D01*
X62122D01*
Y80094D02*
Y91905D01*
X14878Y80094D02*
X62122D01*
X36531Y73039D02*
X40468D01*
X36531Y52961D02*
X40468D01*
X118769Y61398D02*
Y73602D01*
X114831Y61398D02*
Y73602D01*
Y61398D02*
X118769D01*
X114831Y73602D02*
X118769D01*
X110794Y57187D02*
X119850D01*
X109613Y56006D02*
X110794Y57187D01*
X109613Y54824D02*
Y56006D01*
X109613Y44194D02*
Y45376D01*
Y44194D02*
X110794Y43013D01*
X119850D01*
X114650Y20613D02*
X123705D01*
X124887Y21794D01*
Y22976D01*
X124887Y32424D02*
Y33606D01*
X123705Y34787D02*
X124887Y33606D01*
X114650Y34787D02*
X123705D01*
X78472Y82552D02*
Y89048D01*
X74928Y82552D02*
Y89048D01*
X78472D01*
X74928Y82552D02*
X78472D01*
X69001Y39858D02*
X81599D01*
X69001Y59543D02*
X81599D01*
Y39858D02*
Y59543D01*
X69001Y39858D02*
Y59543D01*
D14*
X101335Y245305D02*
Y247983D01*
X102083D01*
X101335Y245305D02*
X105665D01*
X104917Y247983D02*
X105665D01*
Y245305D02*
Y247983D01*
X98579Y241369D02*
Y244754D01*
X101335Y238140D02*
X102024Y238829D01*
X108421Y241369D02*
Y244754D01*
X104976Y238829D02*
X105665Y238140D01*
D15*
X102158Y223683D02*
X104914Y223683D01*
X102158Y216597D02*
X104914D01*
X102158D02*
Y219156D01*
Y221124D02*
Y223683D01*
X104914Y216597D02*
Y219156D01*
Y221124D02*
Y223683D01*
X111929Y163122D02*
Y165878D01*
X104842Y163122D02*
Y165878D01*
X107401D01*
X109370D02*
X111929D01*
X104842Y163122D02*
X107401D01*
X109370D02*
X111929D01*
X96843Y163122D02*
Y165878D01*
X103929Y163122D02*
Y165878D01*
X101370Y163122D02*
X103929D01*
X96843D02*
X99402D01*
X101370Y165878D02*
X103929D01*
X96843D02*
X99402D01*
X105039Y212745D02*
Y215501D01*
X97953Y212745D02*
Y215501D01*
X100512D01*
X102480D02*
X105039D01*
X97953Y212745D02*
X100512D01*
X102480D02*
X105039D01*
X101957Y232422D02*
Y235178D01*
X109044Y232422D02*
Y235178D01*
X106485Y232422D02*
X109044D01*
X101957D02*
X104516D01*
X106485Y235178D02*
X109044D01*
X101957D02*
X104516D01*
X66822Y217857D02*
X69578D01*
X66822Y224944D02*
X69578D01*
Y222385D02*
Y224944D01*
Y217857D02*
Y220416D01*
X66822Y222385D02*
Y224944D01*
Y217857D02*
Y220416D01*
X73896Y211122D02*
Y213878D01*
X80983Y211122D02*
Y213878D01*
X78424Y211122D02*
X80983D01*
X73896D02*
X76455D01*
X78424Y213878D02*
X80983D01*
X73896D02*
X76455D01*
X77268Y186632D02*
Y190568D01*
X68016Y186632D02*
Y190568D01*
X73627Y186632D02*
X77268D01*
X68016D02*
X71658D01*
X73627Y190568D02*
X77268D01*
X68016D02*
X71658D01*
X68016Y181431D02*
Y185369D01*
X77268Y181431D02*
Y185369D01*
X68016D02*
X71658D01*
X73627D02*
X77268D01*
X68016Y181431D02*
X71658D01*
X73627D02*
X77268D01*
X89368Y172927D02*
Y176568D01*
Y167316D02*
Y170958D01*
X85431Y172927D02*
Y176568D01*
Y167317D02*
Y170958D01*
Y167317D02*
X89368Y167316D01*
X85431Y176568D02*
X89368D01*
X90722Y167388D02*
X93478D01*
X90722Y174475D02*
X93478D01*
Y171916D02*
Y174475D01*
Y167388D02*
Y169948D01*
X90722Y171916D02*
Y174475D01*
Y167388D02*
Y169948D01*
X87522Y219643D02*
X90278D01*
X87522Y212556D02*
X90278D01*
X87522D02*
Y215115D01*
Y217084D02*
Y219643D01*
X90278Y212556D02*
Y215115D01*
Y217084D02*
Y219643D01*
X83268Y192284D02*
Y195926D01*
Y186674D02*
Y190316D01*
X79331Y192284D02*
Y195926D01*
Y186674D02*
Y190316D01*
Y186674D02*
X83268Y186674D01*
X79331Y195926D02*
X83268D01*
X91857Y219647D02*
X94613D01*
X91857Y212560D02*
X94613D01*
X91857D02*
Y215119D01*
Y217088D02*
Y219647D01*
X94613Y212560D02*
Y215119D01*
Y217088D02*
Y219647D01*
X112174Y82868D02*
X115816D01*
X117784D02*
X121426D01*
X112174Y78931D02*
X115816D01*
X117784D02*
X121426D01*
X121426Y82868D01*
X112174Y78931D02*
Y82868D01*
X93317Y42568D02*
X96958D01*
X98927D02*
X102568D01*
X93317Y38631D02*
X96958D01*
X98927D02*
X102568D01*
X102568Y42568D01*
X93317Y38631D02*
Y42568D01*
X99532Y64874D02*
Y68516D01*
Y70484D02*
Y74126D01*
X103469Y64874D02*
Y68516D01*
Y70484D02*
Y74126D01*
X99532Y74126D02*
X103469Y74126D01*
X99532Y64874D02*
X103469D01*
X136768Y69584D02*
Y73226D01*
Y63974D02*
Y67616D01*
X132832Y69584D02*
Y73226D01*
Y63974D02*
Y67616D01*
Y63974D02*
X136768Y63974D01*
X132832Y73226D02*
X136768D01*
X82384Y31431D02*
X86026D01*
X76774D02*
X80416D01*
X82384Y35368D02*
X86026D01*
X76774D02*
X80416D01*
X76774Y31431D02*
X76774Y35368D01*
X86026Y31431D02*
Y35368D01*
X101971Y255174D02*
X104530D01*
X106498D02*
X109057D01*
X101971Y252419D02*
X104530D01*
X106498D02*
X109057D01*
Y255174D01*
X101971Y252419D02*
Y255174D01*
D16*
X127573Y172695D02*
Y175844D01*
D17*
X119700Y224298D02*
Y219300D01*
X120700Y218300D01*
X122699D01*
X123699Y219300D01*
Y224298D01*
X129697Y218300D02*
X125698D01*
X129697Y222299D01*
Y223298D01*
X128697Y224298D01*
X126698D01*
X125698Y223298D01*
X220999Y160501D02*
Y161500D01*
Y161001D01*
X218500D01*
X218000Y161500D01*
Y162000D01*
X218500Y162500D01*
X220499Y159501D02*
X220999Y159001D01*
Y158001D01*
X220499Y157502D01*
X219999D01*
X219499Y158001D01*
Y158501D01*
Y158001D01*
X219000Y157502D01*
X218500D01*
X218000Y158001D01*
Y159001D01*
X218500Y159501D01*
X220499Y247501D02*
Y248500D01*
Y248001D01*
X218000D01*
X217500Y248500D01*
Y249000D01*
X218000Y249500D01*
X217500Y245002D02*
X220499D01*
X219000Y246501D01*
Y244502D01*
X115899Y246298D02*
X113899D01*
X114899D01*
Y241300D01*
X113899Y240300D01*
X112900D01*
X111900Y241300D01*
X121897Y240300D02*
X117898D01*
X121897Y244299D01*
Y245298D01*
X120897Y246298D01*
X118898D01*
X117898Y245298D01*
X64199Y223201D02*
X64699Y223700D01*
Y224700D01*
X64199Y225200D01*
X62200D01*
X61700Y224700D01*
Y223700D01*
X62200Y223201D01*
X61700Y222201D02*
Y221201D01*
Y221701D01*
X64699D01*
X64199Y222201D01*
X64699Y217702D02*
Y219702D01*
X63200D01*
X63699Y218702D01*
Y218202D01*
X63200Y217702D01*
X62200D01*
X61700Y218202D01*
Y219202D01*
X62200Y219702D01*
X60742Y190199D02*
Y187200D01*
X62742D01*
X65241D02*
Y190199D01*
X63741Y188699D01*
X65741D01*
X154699Y211501D02*
X155199Y212000D01*
Y213000D01*
X154699Y213500D01*
X154199D01*
X153700Y213000D01*
Y212000D01*
X153200Y211501D01*
X152700D01*
X152200Y212000D01*
Y213000D01*
X152700Y213500D01*
X155199Y210501D02*
X152200D01*
X153200Y209501D01*
X152200Y208502D01*
X155199D01*
X152200Y205503D02*
Y207502D01*
X154199Y205503D01*
X154699D01*
X155199Y206002D01*
Y207002D01*
X154699Y207502D01*
X151799Y122800D02*
X149300D01*
X148800Y122300D01*
Y121300D01*
X149300Y120801D01*
X151799D01*
X148800Y119801D02*
Y118801D01*
Y119301D01*
X151799D01*
X151299Y119801D01*
X106699Y81899D02*
X106200Y82399D01*
X105200D01*
X104700Y81899D01*
Y79900D01*
X105200Y79400D01*
X106200D01*
X106699Y79900D01*
X109698Y82399D02*
X108699Y81899D01*
X107699Y80900D01*
Y79900D01*
X108199Y79400D01*
X109199D01*
X109698Y79900D01*
Y80400D01*
X109199Y80900D01*
X107699D01*
X97499Y35799D02*
X97000Y36299D01*
X96000D01*
X95500Y35799D01*
Y33800D01*
X96000Y33300D01*
X97000D01*
X97499Y33800D01*
X98499Y36299D02*
X100498D01*
Y35799D01*
X98499Y33800D01*
Y33300D01*
X102499Y61001D02*
X102999Y61501D01*
Y62500D01*
X102499Y63000D01*
X100500D01*
X100000Y62500D01*
Y61501D01*
X100500Y61001D01*
X102499Y60001D02*
X102999Y59501D01*
Y58501D01*
X102499Y58002D01*
X101999D01*
X101499Y58501D01*
X101000Y58002D01*
X100500D01*
X100000Y58501D01*
Y59501D01*
X100500Y60001D01*
X101000D01*
X101499Y59501D01*
X101999Y60001D01*
X102499D01*
X101499Y59501D02*
Y58501D01*
X135799Y59943D02*
X136299Y60443D01*
Y61443D01*
X135799Y61942D01*
X133800D01*
X133300Y61443D01*
Y60443D01*
X133800Y59943D01*
X133300Y58943D02*
Y57944D01*
Y58444D01*
X136299D01*
X135799Y58943D01*
X133800Y56444D02*
X133300Y55945D01*
Y54945D01*
X133800Y54445D01*
X135799D01*
X136299Y54945D01*
Y55945D01*
X135799Y56444D01*
X135299D01*
X134800Y55945D01*
Y54445D01*
X69299Y34499D02*
X68800Y34999D01*
X67800D01*
X67300Y34499D01*
Y32500D01*
X67800Y32000D01*
X68800D01*
X69299Y32500D01*
X70299Y32000D02*
X71299D01*
X70799D01*
Y34999D01*
X70299Y34499D01*
X72798D02*
X73298Y34999D01*
X74298D01*
X74798Y34499D01*
Y33999D01*
X74298Y33500D01*
X74798Y33000D01*
Y32500D01*
X74298Y32000D01*
X73298D01*
X72798Y32500D01*
Y33000D01*
X73298Y33500D01*
X72798Y33999D01*
Y34499D01*
X73298Y33500D02*
X74298D01*
X113045Y254795D02*
X112545Y255295D01*
X111545D01*
X111045Y254795D01*
Y252796D01*
X111545Y252296D01*
X112545D01*
X113045Y252796D01*
X116043Y255295D02*
X114044D01*
Y253796D01*
X115044Y254296D01*
X115544D01*
X116043Y253796D01*
Y252796D01*
X115544Y252296D01*
X114544D01*
X114044Y252796D01*
X14499Y50999D02*
X13500D01*
X13999D01*
Y48500D01*
X13500Y48000D01*
X13000D01*
X12500Y48500D01*
X15499Y48000D02*
X16499D01*
X15999D01*
Y50999D01*
X15499Y50499D01*
X153600Y172600D02*
Y175599D01*
X155099D01*
X155599Y175099D01*
Y174100D01*
X155099Y173600D01*
X153600D01*
X154600D02*
X155599Y172600D01*
X156599D02*
X157599D01*
X157099D01*
Y175599D01*
X156599Y175099D01*
X159098D02*
X159598Y175599D01*
X160598D01*
X161098Y175099D01*
Y174599D01*
X160598Y174100D01*
X161098Y173600D01*
Y173100D01*
X160598Y172600D01*
X159598D01*
X159098Y173100D01*
Y173600D01*
X159598Y174100D01*
X159098Y174599D01*
Y175099D01*
X159598Y174100D02*
X160598D01*
X118000Y140800D02*
Y143799D01*
X119500D01*
X119999Y143299D01*
Y142299D01*
X119500Y141800D01*
X118000D01*
X119000D02*
X119999Y140800D01*
X122998D02*
X120999D01*
X122998Y142799D01*
Y143299D01*
X122499Y143799D01*
X121499D01*
X120999Y143299D01*
X123998D02*
X124498Y143799D01*
X125498D01*
X125997Y143299D01*
Y142799D01*
X125498Y142299D01*
X125997Y141800D01*
Y141300D01*
X125498Y140800D01*
X124498D01*
X123998Y141300D01*
Y141800D01*
X124498Y142299D01*
X123998Y142799D01*
Y143299D01*
X124498Y142299D02*
X125498D01*
X148800Y147300D02*
Y150299D01*
X150300D01*
X150799Y149799D01*
Y148800D01*
X150300Y148300D01*
X148800D01*
X149800D02*
X150799Y147300D01*
X153798D02*
X151799D01*
X153798Y149299D01*
Y149799D01*
X153299Y150299D01*
X152299D01*
X151799Y149799D01*
X154798Y147800D02*
X155298Y147300D01*
X156298D01*
X156797Y147800D01*
Y149799D01*
X156298Y150299D01*
X155298D01*
X154798Y149799D01*
Y149299D01*
X155298Y148800D01*
X156797D01*
X147800Y134600D02*
Y137599D01*
X149300D01*
X149799Y137099D01*
Y136100D01*
X149300Y135600D01*
X147800D01*
X148800D02*
X149799Y134600D01*
X150799Y137099D02*
X151299Y137599D01*
X152299D01*
X152798Y137099D01*
Y136599D01*
X152299Y136100D01*
X151799D01*
X152299D01*
X152798Y135600D01*
Y135100D01*
X152299Y134600D01*
X151299D01*
X150799Y135100D01*
X153798Y137099D02*
X154298Y137599D01*
X155298D01*
X155797Y137099D01*
Y135100D01*
X155298Y134600D01*
X154298D01*
X153798Y135100D01*
Y137099D01*
X169900Y81901D02*
X171899D01*
X172399Y82401D01*
Y83400D01*
X171899Y83900D01*
X169900D01*
X169400Y83400D01*
Y82401D01*
X170400Y82900D02*
X169400Y81901D01*
Y82401D02*
X169900Y81901D01*
X171899Y80901D02*
X172399Y80401D01*
Y79401D01*
X171899Y78902D01*
X171399D01*
X170899Y79401D01*
Y79901D01*
Y79401D01*
X170400Y78902D01*
X169900D01*
X169400Y79401D01*
Y80401D01*
X169900Y80901D01*
X202500Y51000D02*
X205499D01*
Y49501D01*
X204999Y49001D01*
X203999D01*
X203500Y49501D01*
Y51000D01*
Y50000D02*
X202500Y49001D01*
Y48001D02*
Y47001D01*
Y47501D01*
X205499D01*
X204999Y48001D01*
X205499Y45502D02*
Y43502D01*
X204999D01*
X203000Y45502D01*
X202500D01*
X217999Y84501D02*
Y85500D01*
Y85000D01*
X215500D01*
X215000Y85500D01*
Y86000D01*
X215500Y86500D01*
X217999Y81502D02*
Y83501D01*
X216499D01*
X216999Y82501D01*
Y82001D01*
X216499Y81502D01*
X215500D01*
X215000Y82001D01*
Y83001D01*
X215500Y83501D01*
X131200Y208100D02*
X134199D01*
Y206600D01*
X133699Y206101D01*
X132700D01*
X132200Y206600D01*
Y208100D01*
Y207100D02*
X131200Y206101D01*
Y203102D02*
Y205101D01*
X133199Y203102D01*
X133699D01*
X134199Y203601D01*
Y204601D01*
X133699Y205101D01*
X131900Y170899D02*
Y167900D01*
X133399D01*
X133899Y168400D01*
Y170399D01*
X133399Y170899D01*
X131900D01*
X136399Y167900D02*
Y170899D01*
X134899Y169399D01*
X136898D01*
X60500Y185099D02*
Y182100D01*
X62499D01*
X65498Y185099D02*
X63499D01*
Y183599D01*
X64499Y184099D01*
X64999D01*
X65498Y183599D01*
Y182600D01*
X64999Y182100D01*
X63999D01*
X63499Y182600D01*
X113099Y234799D02*
X112600Y235299D01*
X111600D01*
X111100Y234799D01*
Y232800D01*
X111600Y232300D01*
X112600D01*
X113099Y232800D01*
X114099Y232300D02*
X115099D01*
X114599D01*
Y235299D01*
X114099Y234799D01*
X116598D02*
X117098Y235299D01*
X118098D01*
X118598Y234799D01*
Y234299D01*
X118098Y233800D01*
X117598D01*
X118098D01*
X118598Y233300D01*
Y232800D01*
X118098Y232300D01*
X117098D01*
X116598Y232800D01*
X108000Y224999D02*
Y222000D01*
X109999D01*
X110999Y224499D02*
X111499Y224999D01*
X112499D01*
X112998Y224499D01*
Y223999D01*
X112499Y223499D01*
X111999D01*
X112499D01*
X112998Y223000D01*
Y222500D01*
X112499Y222000D01*
X111499D01*
X110999Y222500D01*
X94799Y224801D02*
X95299Y225301D01*
Y226300D01*
X94799Y226800D01*
X92800D01*
X92300Y226300D01*
Y225301D01*
X92800Y224801D01*
X92300Y222302D02*
X95299D01*
X93800Y223801D01*
Y221802D01*
X93799Y163164D02*
X94299Y163663D01*
Y164663D01*
X93799Y165163D01*
X91800D01*
X91300Y164663D01*
Y163663D01*
X91800Y163164D01*
X93799Y162164D02*
X94299Y161664D01*
Y160664D01*
X93799Y160165D01*
X93299D01*
X92800Y160664D01*
Y161164D01*
Y160664D01*
X92300Y160165D01*
X91800D01*
X91300Y160664D01*
Y161664D01*
X91800Y162164D01*
X75499Y208799D02*
X74999Y209299D01*
X74000D01*
X73500Y208799D01*
Y206800D01*
X74000Y206300D01*
X74999D01*
X75499Y206800D01*
X76499Y206300D02*
X77499D01*
X76999D01*
Y209299D01*
X76499Y208799D01*
X80998Y209299D02*
X79998Y208799D01*
X78998Y207800D01*
Y206800D01*
X79498Y206300D01*
X80498D01*
X80998Y206800D01*
Y207300D01*
X80498Y207800D01*
X78998D01*
X124999Y188099D02*
X124499Y188599D01*
X123500D01*
X123000Y188099D01*
Y186100D01*
X123500Y185600D01*
X124499D01*
X124999Y186100D01*
X127998Y185600D02*
X125999D01*
X127998Y187599D01*
Y188099D01*
X127499Y188599D01*
X126499D01*
X125999Y188099D01*
X75700Y231099D02*
X77699Y228100D01*
Y231099D02*
X75700Y228100D01*
X78699D02*
X79699D01*
X79199D01*
Y231099D01*
X78699Y230599D01*
X101321Y160999D02*
X103321Y158000D01*
Y160999D02*
X101321Y158000D01*
X106320D02*
X104320D01*
X106320Y159999D01*
Y160499D01*
X105820Y160999D01*
X104820D01*
X104320Y160499D01*
X88299Y163343D02*
X88799Y163843D01*
Y164843D01*
X88299Y165342D01*
X86300D01*
X85800Y164843D01*
Y163843D01*
X86300Y163343D01*
X85800Y162344D02*
Y161344D01*
Y161844D01*
X88799D01*
X88299Y162344D01*
X69599Y196299D02*
X69099Y196799D01*
X68100D01*
X67600Y196299D01*
Y194300D01*
X68100Y193800D01*
X69099D01*
X69599Y194300D01*
X72598Y193800D02*
X70599D01*
X72598Y195799D01*
Y196299D01*
X72099Y196799D01*
X71099D01*
X70599Y196299D01*
X73598D02*
X74098Y196799D01*
X75098D01*
X75597Y196299D01*
Y194300D01*
X75098Y193800D01*
X74098D01*
X73598Y194300D01*
Y196299D01*
X89099Y227001D02*
X89599Y227501D01*
Y228500D01*
X89099Y229000D01*
X87100D01*
X86600Y228500D01*
Y227501D01*
X87100Y227001D01*
X86600Y226001D02*
Y225001D01*
Y225501D01*
X89599D01*
X89099Y226001D01*
X89599Y223502D02*
Y221502D01*
X89099D01*
X87100Y223502D01*
X86600D01*
X103900Y141000D02*
Y143999D01*
X105400D01*
X105899Y143499D01*
Y142499D01*
X105400Y142000D01*
X103900D01*
X104900D02*
X105899Y141000D01*
X106899Y143499D02*
X107399Y143999D01*
X108399D01*
X108898Y143499D01*
Y142999D01*
X108399Y142499D01*
X107899D01*
X108399D01*
X108898Y142000D01*
Y141500D01*
X108399Y141000D01*
X107399D01*
X106899Y141500D01*
X109898Y141000D02*
X110898D01*
X110398D01*
Y143999D01*
X109898Y143499D01*
X104800Y115800D02*
X107799D01*
Y114301D01*
X107299Y113801D01*
X106299D01*
X105800Y114301D01*
Y115800D01*
Y114800D02*
X104800Y113801D01*
Y112801D02*
Y111801D01*
Y112301D01*
X107799D01*
X107299Y112801D01*
X107799Y108302D02*
X107299Y109302D01*
X106299Y110302D01*
X105300D01*
X104800Y109802D01*
Y108802D01*
X105300Y108302D01*
X105800D01*
X106299Y108802D01*
Y110302D01*
X112800Y115800D02*
X115799D01*
Y114301D01*
X115299Y113801D01*
X114299D01*
X113800Y114301D01*
Y115800D01*
Y114800D02*
X112800Y113801D01*
Y112801D02*
Y111801D01*
Y112301D01*
X115799D01*
X115299Y112801D01*
X115799Y108302D02*
Y110302D01*
X114299D01*
X114799Y109302D01*
Y108802D01*
X114299Y108302D01*
X113300D01*
X112800Y108802D01*
Y109802D01*
X113300Y110302D01*
X76699Y126601D02*
X77199Y127101D01*
Y128100D01*
X76699Y128600D01*
X74700D01*
X74200Y128100D01*
Y127101D01*
X74700Y126601D01*
X74200Y125601D02*
Y124601D01*
Y125101D01*
X77199D01*
X76699Y125601D01*
X74200Y123102D02*
Y122102D01*
Y122602D01*
X77199D01*
X76699Y123102D01*
X73999Y141500D02*
X71000D01*
Y139501D01*
Y136502D02*
Y138501D01*
X72999Y136502D01*
X73499D01*
X73999Y137001D01*
Y138001D01*
X73499Y138501D01*
X99799Y112301D02*
X100299Y112801D01*
Y113800D01*
X99799Y114300D01*
X97800D01*
X97300Y113800D01*
Y112801D01*
X97800Y112301D01*
X97300Y111301D02*
Y110301D01*
Y110801D01*
X100299D01*
X99799Y111301D01*
X97300Y106802D02*
Y108802D01*
X99299Y106802D01*
X99799D01*
X100299Y107302D01*
Y108302D01*
X99799Y108802D01*
X179000Y62500D02*
Y65499D01*
X180499D01*
X180999Y64999D01*
Y63999D01*
X180499Y63500D01*
X179000D01*
X180000D02*
X180999Y62500D01*
X183998D02*
X181999D01*
X183998Y64499D01*
Y64999D01*
X183499Y65499D01*
X182499D01*
X181999Y64999D01*
X184998Y65499D02*
X186997D01*
Y64999D01*
X184998Y63000D01*
Y62500D01*
X96800Y135299D02*
Y132800D01*
X97300Y132300D01*
X98299D01*
X98799Y132800D01*
Y135299D01*
X101299Y132300D02*
Y135299D01*
X99799Y133800D01*
X101798D01*
X179000Y39500D02*
X181999D01*
Y38001D01*
X181499Y37501D01*
X180499D01*
X180000Y38001D01*
Y39500D01*
Y38500D02*
X179000Y37501D01*
Y36501D02*
Y35501D01*
Y36001D01*
X181999D01*
X181499Y36501D01*
Y34002D02*
X181999Y33502D01*
Y32502D01*
X181499Y32002D01*
X180999D01*
X180499Y32502D01*
Y33002D01*
Y32502D01*
X180000Y32002D01*
X179500D01*
X179000Y32502D01*
Y33502D01*
X179500Y34002D01*
X186000Y39500D02*
X188999D01*
Y38001D01*
X188499Y37501D01*
X187499D01*
X187000Y38001D01*
Y39500D01*
Y38500D02*
X186000Y37501D01*
Y36501D02*
Y35501D01*
Y36001D01*
X188999D01*
X188499Y36501D01*
X186000Y32002D02*
Y34002D01*
X187999Y32002D01*
X188499D01*
X188999Y32502D01*
Y33502D01*
X188499Y34002D01*
X150499Y44501D02*
X150999Y45000D01*
Y46000D01*
X150499Y46500D01*
X148500D01*
X148000Y46000D01*
Y45000D01*
X148500Y44501D01*
Y43501D02*
X148000Y43001D01*
Y42001D01*
X148500Y41502D01*
X150499D01*
X150999Y42001D01*
Y43001D01*
X150499Y43501D01*
X149999D01*
X149499Y43001D01*
Y41502D01*
X150499Y33501D02*
X150999Y34001D01*
Y35000D01*
X150499Y35500D01*
X148500D01*
X148000Y35000D01*
Y34001D01*
X148500Y33501D01*
X148000Y32501D02*
Y31501D01*
Y32001D01*
X150999D01*
X150499Y32501D01*
Y30002D02*
X150999Y29502D01*
Y28502D01*
X150499Y28002D01*
X148500D01*
X148000Y28502D01*
Y29502D01*
X148500Y30002D01*
X150499D01*
X158500Y73499D02*
Y70500D01*
X160499D01*
X161499D02*
X162499D01*
X161999D01*
Y73499D01*
X161499Y72999D01*
X172600Y58699D02*
Y56200D01*
X173100Y55700D01*
X174100D01*
X174599Y56200D01*
Y58699D01*
X175599Y58199D02*
X176099Y58699D01*
X177099D01*
X177598Y58199D01*
Y57699D01*
X177099Y57200D01*
X176599D01*
X177099D01*
X177598Y56700D01*
Y56200D01*
X177099Y55700D01*
X176099D01*
X175599Y56200D01*
X53149Y144336D02*
X53649Y144835D01*
Y145835D01*
X53149Y146335D01*
X52649D01*
X52149Y145835D01*
Y144835D01*
X51650Y144336D01*
X51150D01*
X50650Y144835D01*
Y145835D01*
X51150Y146335D01*
X53649Y143336D02*
X50650D01*
X51650Y142336D01*
X50650Y141337D01*
X53649D01*
X50650Y140337D02*
Y139337D01*
Y139837D01*
X53649D01*
X53149Y140337D01*
X37999Y108400D02*
X35000D01*
Y106901D01*
X35500Y106401D01*
X37499D01*
X37999Y106901D01*
Y108400D01*
X35000Y103402D02*
Y105401D01*
X36999Y103402D01*
X37499D01*
X37999Y103901D01*
Y104901D01*
X37499Y105401D01*
X67499Y86001D02*
Y88000D01*
X66000D01*
Y87000D01*
Y88000D01*
X64500D01*
Y85001D02*
Y84001D01*
Y84501D01*
X67499D01*
X66999Y85001D01*
X61499Y69501D02*
Y71500D01*
X60000D01*
Y70500D01*
Y71500D01*
X58500D01*
Y66502D02*
Y68501D01*
X60499Y66502D01*
X60999D01*
X61499Y67001D01*
Y68001D01*
X60999Y68501D01*
X104100Y85900D02*
Y88899D01*
X105599D01*
X106099Y88399D01*
Y87400D01*
X105599Y86900D01*
X104100D01*
X105100D02*
X106099Y85900D01*
X107099D02*
X108099D01*
X107599D01*
Y88899D01*
X107099Y88399D01*
X109598Y85900D02*
X110598D01*
X110098D01*
Y88899D01*
X109598Y88399D01*
X125900Y80099D02*
Y77600D01*
X126400Y77100D01*
X127400D01*
X127899Y77600D01*
Y80099D01*
X128899Y77100D02*
X129899D01*
X129399D01*
Y80099D01*
X128899Y79599D01*
X131398D02*
X131898Y80099D01*
X132898D01*
X133398Y79599D01*
Y79099D01*
X132898Y78600D01*
X132398D01*
X132898D01*
X133398Y78100D01*
Y77600D01*
X132898Y77100D01*
X131898D01*
X131398Y77600D01*
X128100Y49700D02*
Y52699D01*
X129599D01*
X130099Y52199D01*
Y51200D01*
X129599Y50700D01*
X128100D01*
X129100D02*
X130099Y49700D01*
X131099D02*
X132099D01*
X131599D01*
Y52699D01*
X131099Y52199D01*
X113400Y15400D02*
Y18399D01*
X114900D01*
X115399Y17899D01*
Y16899D01*
X114900Y16400D01*
X113400D01*
X114400D02*
X115399Y15400D01*
X118398D02*
X116399D01*
X118398Y17399D01*
Y17899D01*
X117899Y18399D01*
X116899D01*
X116399Y17899D01*
X121397Y18399D02*
X119398D01*
Y16899D01*
X120398Y17399D01*
X120898D01*
X121397Y16899D01*
Y15900D01*
X120898Y15400D01*
X119898D01*
X119398Y15900D01*
X94200Y51700D02*
Y54699D01*
X95700D01*
X96199Y54199D01*
Y53199D01*
X95700Y52700D01*
X94200D01*
X95200D02*
X96199Y51700D01*
X97199D02*
X98199D01*
X97699D01*
Y54699D01*
X97199Y54199D01*
X101198Y51700D02*
Y54699D01*
X99698Y53199D01*
X101698D01*
X88200Y87299D02*
Y84300D01*
X89700D01*
X90199Y84800D01*
Y86799D01*
X89700Y87299D01*
X88200D01*
X91199Y86799D02*
X91699Y87299D01*
X92699D01*
X93198Y86799D01*
Y86299D01*
X92699Y85799D01*
X92199D01*
X92699D01*
X93198Y85300D01*
Y84800D01*
X92699Y84300D01*
X91699D01*
X91199Y84800D01*
X72300Y64699D02*
Y62200D01*
X72800Y61700D01*
X73800D01*
X74299Y62200D01*
Y64699D01*
X75299Y61700D02*
X76299D01*
X75799D01*
Y64699D01*
X75299Y64199D01*
X79798Y61700D02*
X77798D01*
X79798Y63699D01*
Y64199D01*
X79298Y64699D01*
X78298D01*
X77798Y64199D01*
D18*
X224400Y22600D02*
Y21267D01*
Y21934D01*
X228399D01*
X227732Y22600D01*
X228499Y72034D02*
X227832Y73367D01*
X226499Y74700D01*
X225166D01*
X224500Y74034D01*
Y72701D01*
X225166Y72034D01*
X225833D01*
X226499Y72701D01*
Y74700D01*
M02*
