G04*
G04 #@! TF.GenerationSoftware,Altium Limited,Altium Designer,19.1.8 (144)*
G04*
G04 Layer_Color=8388736*
%FSLAX25Y25*%
%MOIN*%
G70*
G01*
G75*
G04:AMPARAMS|DCode=19|XSize=13.84mil|YSize=23.68mil|CornerRadius=3.97mil|HoleSize=0mil|Usage=FLASHONLY|Rotation=180.000|XOffset=0mil|YOffset=0mil|HoleType=Round|Shape=RoundedRectangle|*
%AMROUNDEDRECTD19*
21,1,0.01384,0.01575,0,0,180.0*
21,1,0.00591,0.02368,0,0,180.0*
1,1,0.00794,-0.00295,0.00787*
1,1,0.00794,0.00295,0.00787*
1,1,0.00794,0.00295,-0.00787*
1,1,0.00794,-0.00295,-0.00787*
%
%ADD19ROUNDEDRECTD19*%
G04:AMPARAMS|DCode=20|XSize=37.07mil|YSize=98.49mil|CornerRadius=3.98mil|HoleSize=0mil|Usage=FLASHONLY|Rotation=90.000|XOffset=0mil|YOffset=0mil|HoleType=Round|Shape=RoundedRectangle|*
%AMROUNDEDRECTD20*
21,1,0.03707,0.09052,0,0,90.0*
21,1,0.02910,0.09849,0,0,90.0*
1,1,0.00797,0.04526,0.01455*
1,1,0.00797,0.04526,-0.01455*
1,1,0.00797,-0.04526,-0.01455*
1,1,0.00797,-0.04526,0.01455*
%
%ADD20ROUNDEDRECTD20*%
%ADD21O,0.01587X0.03359*%
%ADD22O,0.03359X0.01587*%
%ADD23R,0.19304X0.19304*%
%ADD24R,0.03753X0.03950*%
%ADD25R,0.02769X0.03084*%
%ADD26R,0.02769X0.03359*%
%ADD27R,0.03162X0.02769*%
G04:AMPARAMS|DCode=28|XSize=41.07mil|YSize=102.49mil|CornerRadius=5.98mil|HoleSize=0mil|Usage=FLASHONLY|Rotation=90.000|XOffset=0mil|YOffset=0mil|HoleType=Round|Shape=RoundedRectangle|*
%AMROUNDEDRECTD28*
21,1,0.04107,0.09052,0,0,90.0*
21,1,0.02910,0.10249,0,0,90.0*
1,1,0.01197,0.04526,0.01455*
1,1,0.01197,0.04526,-0.01455*
1,1,0.01197,-0.04526,-0.01455*
1,1,0.01197,-0.04526,0.01455*
%
%ADD28ROUNDEDRECTD28*%
%ADD29R,0.04147X0.03753*%
%ADD30R,0.03556X0.04147*%
%ADD31R,0.03950X0.03162*%
%ADD32R,0.03556X0.04343*%
%ADD33R,0.04343X0.03556*%
%ADD34R,0.02769X0.03162*%
%ADD35R,0.03753X0.03950*%
%ADD36R,0.03950X0.03753*%
%ADD37R,0.07493X0.03950*%
%ADD38R,0.02368X0.04928*%
%ADD39R,0.03753X0.04147*%
%ADD40R,0.03950X0.04343*%
%ADD41R,0.03950X0.03950*%
%ADD42R,0.04147X0.02572*%
%ADD43R,0.03871X0.04265*%
%ADD44R,0.04737X0.07887*%
%ADD45R,0.06115X0.04934*%
%ADD46R,0.04540X0.11430*%
%ADD47R,0.06312X0.11430*%
%ADD48R,0.03556X0.05524*%
%ADD49R,0.08674X0.21666*%
G04:AMPARAMS|DCode=50|XSize=33.59mil|YSize=55.24mil|CornerRadius=5.92mil|HoleSize=0mil|Usage=FLASHONLY|Rotation=90.000|XOffset=0mil|YOffset=0mil|HoleType=Round|Shape=RoundedRectangle|*
%AMROUNDEDRECTD50*
21,1,0.03359,0.04341,0,0,90.0*
21,1,0.02175,0.05524,0,0,90.0*
1,1,0.01184,0.02170,0.01088*
1,1,0.01184,0.02170,-0.01088*
1,1,0.01184,-0.02170,-0.01088*
1,1,0.01184,-0.02170,0.01088*
%
%ADD50ROUNDEDRECTD50*%
%ADD51R,0.05524X0.05524*%
%ADD52R,0.06706X0.07099*%
%ADD53R,0.05721X0.05603*%
%ADD54R,0.07690X0.03359*%
%ADD55C,0.04816*%
%ADD56C,0.23622*%
%ADD57C,0.23622*%
%ADD58R,0.06706X0.09068*%
%ADD59R,0.09068X0.06706*%
%ADD60C,0.07099*%
%ADD61R,0.07099X0.07099*%
%ADD62C,0.05918*%
%ADD63R,0.05918X0.05918*%
%ADD64C,0.01700*%
D19*
X90363Y121060D02*
D03*
X92331D02*
D03*
X94300D02*
D03*
X96268D02*
D03*
X98237D02*
D03*
Y128540D02*
D03*
X96268D02*
D03*
X94300D02*
D03*
X92331D02*
D03*
X90363D02*
D03*
X166063Y50980D02*
D03*
X168032D02*
D03*
X170000D02*
D03*
X171968D02*
D03*
X173937D02*
D03*
Y43500D02*
D03*
X171968D02*
D03*
X170000D02*
D03*
X168032D02*
D03*
X166063D02*
D03*
D20*
X94300Y124800D02*
D03*
D21*
X92053Y182239D02*
D03*
X93627D02*
D03*
X95202D02*
D03*
X96777D02*
D03*
X98352D02*
D03*
X99927D02*
D03*
X101501D02*
D03*
X103076D02*
D03*
X104651D02*
D03*
X106226D02*
D03*
X107800D02*
D03*
X109375D02*
D03*
Y206058D02*
D03*
X107800D02*
D03*
X106226D02*
D03*
X104651D02*
D03*
X103076D02*
D03*
X101501D02*
D03*
X99927D02*
D03*
X98352D02*
D03*
X96777D02*
D03*
X95202D02*
D03*
X93627D02*
D03*
X92053D02*
D03*
D22*
X112623Y185487D02*
D03*
Y187062D02*
D03*
Y188637D02*
D03*
Y190212D02*
D03*
Y191787D02*
D03*
Y193361D02*
D03*
Y194936D02*
D03*
Y196511D02*
D03*
Y198086D02*
D03*
Y199661D02*
D03*
Y201235D02*
D03*
Y202810D02*
D03*
X88805D02*
D03*
Y201235D02*
D03*
Y199661D02*
D03*
Y198086D02*
D03*
Y196511D02*
D03*
Y194936D02*
D03*
Y193361D02*
D03*
Y191787D02*
D03*
Y190212D02*
D03*
Y188637D02*
D03*
Y187062D02*
D03*
Y185487D02*
D03*
D23*
X100713Y194149D02*
D03*
D24*
X99465Y246802D02*
D03*
X107535D02*
D03*
X99465Y239321D02*
D03*
X107535D02*
D03*
D25*
X103500Y247628D02*
D03*
Y238494D02*
D03*
D26*
X103535Y218270D02*
D03*
Y222010D02*
D03*
D27*
X106417Y164500D02*
D03*
X110354D02*
D03*
X102354D02*
D03*
X98417D02*
D03*
X99528Y214124D02*
D03*
X103465D02*
D03*
X107468Y233800D02*
D03*
X103532D02*
D03*
X79408Y212500D02*
D03*
X75471D02*
D03*
X103545Y253796D02*
D03*
X107482D02*
D03*
D28*
X170000Y47240D02*
D03*
D29*
X204000Y58039D02*
D03*
Y62961D02*
D03*
X127600Y202741D02*
D03*
Y207859D02*
D03*
D30*
X119161Y87200D02*
D03*
X114239D02*
D03*
X95239Y47200D02*
D03*
X100161D02*
D03*
X144754Y174269D02*
D03*
X149676D02*
D03*
D31*
X181000Y43685D02*
D03*
Y48803D02*
D03*
X187500Y43685D02*
D03*
Y48803D02*
D03*
X106300Y126859D02*
D03*
Y121741D02*
D03*
D32*
X129103Y136300D02*
D03*
X123591D02*
D03*
D33*
X114300Y121544D02*
D03*
Y127056D02*
D03*
D34*
X68200Y223369D02*
D03*
Y219431D02*
D03*
X92100Y172900D02*
D03*
Y168963D02*
D03*
X88900Y214131D02*
D03*
Y218069D02*
D03*
X93235Y214135D02*
D03*
Y218072D02*
D03*
D35*
X75300Y188600D02*
D03*
X69985D02*
D03*
Y183400D02*
D03*
X75300D02*
D03*
X119457Y80900D02*
D03*
X114143D02*
D03*
X100600Y40600D02*
D03*
X95285D02*
D03*
X78742Y33400D02*
D03*
X84057D02*
D03*
D36*
X87400Y169285D02*
D03*
Y174600D02*
D03*
X81300Y188643D02*
D03*
Y193957D02*
D03*
X101500Y72158D02*
D03*
Y66843D02*
D03*
X134800Y65943D02*
D03*
Y71258D02*
D03*
D37*
X144000Y215993D02*
D03*
Y202607D02*
D03*
D38*
X144814Y129706D02*
D03*
X141959D02*
D03*
X139105D02*
D03*
X136251D02*
D03*
X144814Y111989D02*
D03*
X141959D02*
D03*
X139105D02*
D03*
X136251D02*
D03*
D39*
X144918Y148800D02*
D03*
X139800D02*
D03*
X141859Y140800D02*
D03*
X136741D02*
D03*
X104941Y136700D02*
D03*
X110059D02*
D03*
X180500Y58500D02*
D03*
X185618D02*
D03*
D40*
X180400Y77069D02*
D03*
X176660Y85731D02*
D03*
X184140D02*
D03*
D41*
X137022Y174269D02*
D03*
X131116D02*
D03*
D42*
X119700Y183653D02*
D03*
Y177747D02*
D03*
D43*
X75376Y218585D02*
D03*
Y224215D02*
D03*
X79824Y218585D02*
D03*
Y224215D02*
D03*
D44*
X99200Y171200D02*
D03*
X109043D02*
D03*
D45*
X81700Y128553D02*
D03*
Y122647D02*
D03*
X157600Y51253D02*
D03*
Y45347D02*
D03*
D46*
X91398Y139500D02*
D03*
X78602D02*
D03*
X166898Y62500D02*
D03*
X154102D02*
D03*
D47*
X81473Y110300D02*
D03*
X92300D02*
D03*
X157173Y32000D02*
D03*
X168000D02*
D03*
D48*
X28600Y113284D02*
D03*
Y98716D02*
D03*
D49*
X24917Y63000D02*
D03*
X52083D02*
D03*
D50*
X122607Y71240D02*
D03*
Y63760D02*
D03*
X110993D02*
D03*
Y67500D02*
D03*
Y71240D02*
D03*
D51*
X123787Y46163D02*
D03*
Y54037D02*
D03*
X110713Y31637D02*
D03*
Y23763D02*
D03*
D52*
X110991Y50100D02*
D03*
X123509Y27700D02*
D03*
D53*
X82507Y85800D02*
D03*
X70893D02*
D03*
D54*
X86324Y42200D02*
D03*
Y47200D02*
D03*
Y52200D02*
D03*
Y57200D02*
D03*
X64276Y42200D02*
D03*
Y47200D02*
D03*
Y52200D02*
D03*
Y57200D02*
D03*
D55*
X199500Y160500D02*
D03*
X209500D02*
D03*
X199500Y150500D02*
D03*
X209500D02*
D03*
X199500Y140500D02*
D03*
X209500D02*
D03*
X199500Y130500D02*
D03*
X209500D02*
D03*
X199500Y120500D02*
D03*
X209500D02*
D03*
X199500Y247000D02*
D03*
X209500D02*
D03*
X199500Y237000D02*
D03*
X209500D02*
D03*
X199500Y227000D02*
D03*
X209500D02*
D03*
X199500Y217000D02*
D03*
X209500D02*
D03*
X199500Y207000D02*
D03*
X209500D02*
D03*
D56*
X170500Y108500D02*
D03*
Y243500D02*
D03*
X53000Y106500D02*
D03*
D57*
Y243500D02*
D03*
D58*
X49216Y30279D02*
D03*
D59*
X30713Y18469D02*
D03*
Y42091D02*
D03*
D60*
X216500Y52500D02*
D03*
Y32500D02*
D03*
Y42500D02*
D03*
Y62500D02*
D03*
Y72500D02*
D03*
D61*
Y22500D02*
D03*
D62*
X28650Y152835D02*
D03*
Y133150D02*
D03*
X28461Y86000D02*
D03*
D63*
X48539D02*
D03*
D64*
X104000Y4500D02*
D03*
X72500D02*
D03*
X40000D02*
D03*
X206500D02*
D03*
X175000D02*
D03*
X142500D02*
D03*
X200000Y272500D02*
D03*
X168500D02*
D03*
X136000D02*
D03*
X231500D02*
D03*
Y240500D02*
D03*
Y203000D02*
D03*
Y172500D02*
D03*
Y144000D02*
D03*
Y110500D02*
D03*
Y78000D02*
D03*
X232000Y41500D02*
D03*
X231500Y4500D02*
D03*
X4000D02*
D03*
Y45000D02*
D03*
Y77500D02*
D03*
Y110000D02*
D03*
Y143500D02*
D03*
Y172000D02*
D03*
Y202500D02*
D03*
Y234500D02*
D03*
Y273000D02*
D03*
X36500D02*
D03*
X68000D02*
D03*
X98500Y250500D02*
D03*
X108500Y218500D02*
D03*
Y250500D02*
D03*
X98500Y235500D02*
D03*
X108500Y228500D02*
D03*
X98500Y225500D02*
D03*
Y256000D02*
D03*
X108500Y258500D02*
D03*
X98500Y263500D02*
D03*
X108500Y265500D02*
D03*
Y273000D02*
D03*
X98500D02*
D03*
X90500D02*
D03*
M02*
