M48
;Layer_Color=9474304
;FILE_FORMAT=2:5
INCH,LZ
;TYPE=PLATED
T1F00S00C0.00787
T2F00S00C0.01181
T3F00S00C0.01500
T4F00S00C0.03150
T6F00S00C0.04016
T7F00S00C0.04331
T8F00S00C0.05118
T9F00S00C0.12598
%
T01
X0094239Y0187608
Y0191939
Y0196269
Y02006
X0098569
Y0196269
Y0191939
Y0187608
X01029
Y0191939
Y0196269
Y02006
X0107231
Y0196269
Y0191939
Y0187608
T02
X00795Y00217
X00995Y00288
X01803Y00537
X01746Y00663
X01329Y01437
X01551Y01701
X01205Y02067
T03
X0004Y00045
X004
X0004Y0045
X00725Y00045
X0104
X01425
X0175
X02065
X01991Y00474
X01527Y00712
X0232Y00415
X02315Y00045
Y0078
Y01105
Y0144
Y01725
Y0203
X01807Y02172
X01692Y0207
X01185Y01955
X0115Y01812
X0127Y01817
X0138Y01655
X0134Y016
X01355Y01513
X0129Y01465
X01234Y01433
X01263Y01303
X01286Y01117
X01614Y01085
X01642Y01022
X01705Y00994
X01768Y01022
X01796Y01085
X01768Y01148
X01705Y01175
X01642Y01148
X01587Y01307
X01491Y01412
X01002Y01431
X00845Y0153586
X00735Y01555
X00808Y01748
X01Y01785
X00847Y01971
X00818Y01988
X00786Y0201
X00787Y02041
X00868Y0206
X00985Y02255
X01085Y02285
Y02185
X0107Y00925
X01373Y00763
X01843Y00939
X02028Y00863
X00593Y01002
X00621Y01065
X00593Y01128
X00695Y0119
X0053Y01155
X00467Y01128
X00439Y01065
X00467Y01002
X0053Y00974
X0004Y011
Y00775
Y01435
Y0172
Y02025
Y02345
Y0273
X00365
X00467Y02498
X0053Y02525
X00439Y02435
X00467Y02372
X0053Y02344
X00593Y02372
X00621Y02435
X00593Y02498
X0068Y0273
X00905
X00985
Y02635
Y0256
Y02505
X01085
Y02585
Y02655
Y0273
X0136Y02725
X01685
X01705Y02525
X01768Y02498
X01796Y02435
X01768Y02372
X01705Y02344
X01642Y02372
X01614Y02435
X01642Y02498
X02Y02725
X00985Y02355
X02315Y02405
Y02725
T04
X0028461Y0086
X0048539
T06
X01995Y01205
Y01305
Y01405
Y01505
Y01605
X02095
Y01505
Y01405
Y01305
Y01205
Y0207
Y0217
Y0227
X01995
Y0217
Y0207
Y0237
Y0247
X02095
Y0237
T07
X02165Y00225
Y00325
Y00425
Y00525
Y00625
Y00725
T08
X002865Y013315
Y0152835
T09
X01705Y01085
X0053Y01065
Y02435
X01705
M30
