M48
;Layer_Color=9474304
;FILE_FORMAT=2:5
INCH,LZ
;TYPE=PLATED
T1F00S00C0.01500
T2F00S00C0.02500
T3F00S00C0.03937
T4F00S00C0.04016
T5F00S00C0.06299
T6F00S00C0.12598
;TYPE=NON_PLATED
T8F00S00C0.15748
%
T01
X0626078Y0017322
X0623278Y0023622
X0632378Y0014522
X0638678Y0017322
X0641478Y0023622
X00298Y00213
X0027Y0015
X00207Y00122
X00144Y0015
X00116Y00213
X00144Y00276
X00207Y00303
X0027Y00276
X0626078Y0029922
X0632378Y0032622
X0638678Y0029922
Y0233857
X0632378Y0231058
X0626078Y0233857
X0623278Y0240158
X0626078Y0246458
X0632378Y0249158
X0638678Y0246458
X0641478Y0240158
X00303Y02447
X00275Y0251
X00212Y02537
X00149Y0251
X00121Y02447
X00149Y02384
X00212Y02356
X00275Y02384
T02
X0075138Y01295
X0122138Y01825
X0133138Y0172
X0165138Y01775
X0211638
X0206638Y01825
X0244138
X0240638Y01775
X0258638Y0178
X0265138Y01825
X0233138Y01345
X0324138Y01425
X0326138Y01595
X0309138Y0178
X0303138Y01825
X0386138
X0393138Y0178
X0465138Y01755
X0477138Y01805
X0470638Y0153
X0531138Y01095
X0554138Y01275
X0563138Y0082
Y0073
X0573138Y0081
X0563638Y004
X0550638Y00445
X0548138Y00545
X0583138Y00645
Y0079
X0590138
X0598638Y00565
Y01975
Y02065
Y02165
X0580638Y0228
X0534138Y0215
X0536638Y0204
X0518638Y0192
X0476138Y01875
X0505638Y02265
X0496138Y02495
X0469138
X0402638Y0212
X0331638Y02115
X0313638Y02125
X0267638Y02225
X0254638Y02155
X0239638Y02214
Y0227
X0240138Y0209
X0218638Y0249
X0165638Y02285
X0146638Y0211
X0154888Y018775
X0122638Y0192
T03
X0562299Y0108268
X0572142
X0562299Y0165354
X0581984
Y0108268
T04
X0523138Y0019
X0533138
X0543138
X0553138
X0563138
X0563138Y0029
X0553138
X0543138
X0533138Y0029
X0523138
T05
X0151063Y009711
X0166811Y0093173
X0182559Y009711
X0189449Y011089
Y0128606
Y0146323
X0182559Y0160102
X0166811Y0164039
X0151063Y0160102
X0144173Y0146323
Y0128606
Y011089
X0243244
Y0128606
Y0146323
X0250134Y0160102
X0265882Y0164039
Y0093173
X0250134Y009711
X028163
X028852Y011089
Y0128606
Y0146323
X028163Y0160102
X0349205
X0364953Y0164039
X0380701Y0160102
X0387591Y0146323
Y0128606
Y011089
X0380701Y009711
X0364953Y0093173
X0349205Y009711
X0342315Y011089
Y0128606
Y0146323
X0441386
Y0128606
Y011089
X0448276Y009711
X0464024Y0093173
X0479772Y009711
X0486661Y011089
Y0128606
Y0146323
X0479772Y0160102
X0464024Y0164039
X0448276Y0160102
T06
X0632378Y0023622
X00205Y00215
X0632378Y0240158
X0021Y02445
T08
X0166811Y0128606
X0265882
X0364953
X0464024
M30
